<svg width="492" height="125" viewBox="0 0 492 125" fill="none" xmlns="http://www.w3.org/2000/svg">
<g clip-path="url(#clip0)">
<path d="M54.3 92.2C53 100.4 51.6 107.7 45.5 114.7C39.5 121.5 31.1 124.9 22.7 124.9C8.80002 124.9 -1.39998 116.7 0.100024 102.2H5.30002C4.10002 113.2 12.3 120.1 23 120.1C29.7 120.1 36.5 117.8 41.3 112.2C46.4 106.1 48.1 99.2 49.2 92.1L50.2 85.6H50C44.3 91.9 35.7 95.9 27.7 95.9C12.3 95.9 4.00002 82.9 6.40002 68.1C8.80002 52.8 21.7 40.5 37.2 40.5C45.8 40.5 51.7 44.2 55.5 50.8H55.7L57.2 41.6H62.4L54.3 92.2ZM11.6 67.9C9.60002 80 15.9 91.1 28.8 91.1C42.4 91.1 51.4 80.1 53.5 67.3C55.4 55 48.6 45.4 35.7 45.4C23.5 45.4 13.4 56.4 11.6 67.9Z" fill="#231F20"/>
<path d="M125.4 41.7L120.4 73.5C119.5 78.9 118.8 84.3 114.8 88.8C110.4 93.6 103.8 95.9 97.8 95.9C91.8 95.9 86 93.6 83.1 88.8C80.5 84.3 81.4 78.9 82.3 73.5L87.3 41.7H92.5L87.8 71.7C86.2 81.9 85.9 91.1 98.6 91.1C111.3 91.1 114 81.9 115.6 71.7L120.3 41.7H125.4V41.7Z" fill="#231F20"/>
<path d="M197.7 57.3C195.1 57.3 192.6 59.5 192.2 62C191.8 64.6 193.5 66.7 196.2 66.7C198.9 66.7 201.2 64.6 201.7 62C202.1 59.5 200.4 57.3 197.7 57.3Z" fill="#231F20"/>
<path d="M150.7 69.8C150.4 69.8 150.1 69.7 149.8 69.6C149.4 69.6 149.1 69.5 148.8 69.5C148.5 69.6 148.2 69.7 147.8 69.7L143.8 94.8H149L152.9 70.3C152.1 70.2 151.3 70.1 150.7 69.8Z" fill="#231F20"/>
<path d="M183.1 94.7H178L193 0H198.2L183.1 94.7Z" fill="#231F20"/>
<path d="M148.5 70.6C149 71.9 149.4 73.2 149.6 74.5L180.8 66.8L178.8 62L148.2 69.5C148.3 69.9 148.4 70.2 148.5 70.6Z" fill="#231F20"/>
<path d="M148.8 90.2L128 90.6L128.9 95.7L148.9 95.3C148.2 93.7 148.2 91.8 148.8 90.2Z" fill="#231F20"/>
<path d="M212.9 94.7H207.7L222.7 0H227.9L212.9 94.7Z" fill="#231F20"/>
<path d="M293.1 68.2C290.6 83.9 276.4 95.9 260.8 95.9C245.5 95.9 235.2 83.4 237.6 68.3C240 53 254.2 40.5 269.6 40.5C285.2 40.5 295.6 52.5 293.1 68.2ZM242.8 68.3C240.9 80.4 248.7 91 261.2 91C274.2 91 285.8 81.1 287.9 68.3C290 55.2 281.5 45.3 268.5 45.3C255.8 45.4 244.7 56 242.8 68.3Z" fill="#231F20"/>
<path d="M315.2 94.7H310L317.6 46.5H311.7L312.5 41.7H318.4L321.4 22.8H326.6L323.6 41.7H332.9L332.1 46.5H322.8L315.2 94.7Z" fill="#231F20"/>
<path d="M348.6 94.7H343.4L351.8 41.6H357L348.6 94.7ZM362 24C361.6 26.6 359.2 28.7 356.5 28.7C353.8 28.7 352.1 26.6 352.5 24C352.9 21.5 355.3 19.3 358 19.3C360.7 19.3 362.4 21.5 362 24Z" fill="#231F20"/>
<path d="M388.7 50H388.9C392.9 44.1 399.2 40.6 406.1 40.6C419.8 40.6 422.2 49.1 420 62.8L414.9 94.8H409.7L414.8 62.8C416.3 53.3 416.4 45.5 404.8 45.5C391.5 45.5 387.3 57.9 385.6 68.7L381.5 94.9H376.3L384.7 41.8H389.9L388.7 50Z" fill="#231F20"/>
<path d="M444.8 68.7C442.3 82.1 450.2 91.1 462.5 91.1C470.8 91.1 478.2 86.2 483.1 79L487.1 81.5C480.8 90.7 471.5 95.9 461.1 95.9C445.4 95.9 437.4 83.2 439.8 68.1C442.1 53.3 454.4 40.5 469.9 40.5C486 40.5 493.5 53.4 490.9 68.6H444.8V68.7ZM486.5 63.9C486.8 54.1 480.1 45.4 469.2 45.4C458.4 45.4 448.1 53.9 445.6 63.9H486.5Z" fill="#231F20"/>
</g>
<defs>
<clipPath id="clip0">
<rect width="491.4" height="125" fill="white"/>
</clipPath>
</defs>
</svg>
