<svg width="231" height="360" viewBox="0 0 231 360" fill="none" xmlns="http://www.w3.org/2000/svg">
<g clip-path="url(#clip0)">
<path d="M46.4299 306.69H55.1899V359.25H46.4299V306.69Z" fill="black"/>
<path d="M82.6899 306.69H119.05C128.52 306.69 131.27 309.44 131.27 319.12V346.83C131.27 356.51 128.52 359.26 119.05 359.26H82.6899C73.3199 359.26 70.3699 356.61 70.3699 346.83V319.12C70.3599 309.34 73.3199 306.69 82.6899 306.69ZM122.62 351.92V313.82H79.1199V351.92H122.62Z" fill="black"/>
<path d="M143.3 306.69H148.8L188.12 341.83C189.95 343.46 191.99 345.7 194.13 348.45C193.32 343.56 193.32 339.28 193.32 335.51V306.68H201.37V359.24H196.48L156.04 322.67C154.51 321.24 152.47 319.72 150.74 316.76C151.25 320.63 151.35 324.4 151.35 328.27V359.24H143.3V306.69Z" fill="black"/>
<mask id="mask0" mask-type="alpha" maskUnits="userSpaceOnUse" x="34" y="22" width="171" height="275">
<path d="M119.48 296.14C166.17 296.14 204.02 234.901 204.02 159.36C204.02 83.8184 166.17 22.58 119.48 22.58C72.7898 22.58 34.9399 83.8184 34.9399 159.36C34.9399 234.901 72.7898 296.14 119.48 296.14Z" fill="black"/>
</mask>
<g mask="url(#mask0)">
<path d="M235.714 160.23C239.048 74.5992 188.956 3.12617 123.831 0.59079C58.7068 -1.94459 3.21027 65.4178 -0.123441 151.049C-3.45716 236.68 46.6343 308.153 111.759 310.688C176.884 313.224 232.38 245.861 235.714 160.23Z" fill="black"/>
<path d="M108.46 117.68C108.27 128.43 108.02 139.17 107.91 149.92C107.86 155.2 107.95 160.49 108.22 165.77C108.29 167.07 109.2 168.42 109.98 169.57C112.93 173.86 116.78 177.32 120.53 180.88C121.58 181.88 122.57 182.62 123.97 183.06C126.15 183.75 127.93 187.41 127.69 190.48C127.27 195.72 126.76 200.95 126.32 206.19C126.18 207.91 125.97 209.66 126.14 211.37C126.39 213.94 125.43 215.91 123.82 217.77C118.39 224.08 113.02 230.44 107.59 236.74C105.93 238.66 104.44 241 102.34 242.2C99.9698 243.55 98.4298 245.51 96.6498 247.34C96.2098 247.8 95.7398 248.48 95.7198 249.07C95.5298 257.03 95.2398 265 95.3598 272.96C95.4498 278.68 96.1798 284.38 96.4998 290.1C96.9198 297.34 97.2098 304.59 97.5698 311.83C97.6398 313.2 97.7798 314.56 97.7998 315.92C97.8298 318.14 98.3798 318.73 100.54 318.28C108.67 316.6 116.77 314.77 124.92 313.14C129.37 312.25 133.89 311.68 138.37 310.9C140.14 310.59 142.03 310.38 143.56 309.55C144.89 308.83 146.25 307.49 146.78 306.11C148.18 302.45 149.12 298.61 150.29 294.85C150.64 293.74 151.19 292.71 151.57 291.61C151.93 290.6 152.19 289.56 152.49 288.54C152.51 288.48 152.45 288.39 152.48 288.34C153.74 285.87 155.01 283.41 156.27 280.94C156.68 280.15 157.12 279.37 157.46 278.56C158.43 276.23 159.24 273.83 160.33 271.56C161.73 268.64 163.32 265.82 164.85 262.96C167.06 258.82 169.25 254.67 171.49 250.56C172.93 247.92 174.5 245.36 175.92 242.71C176.11 242.35 175.92 241.39 175.62 241.22C174.09 240.35 174.01 239.08 174.38 237.64C175.48 233.38 180.29 231.11 184.57 232.84C186.55 233.64 188.77 234.33 188.74 237.03C188.72 238.96 186.33 241.29 183.77 241.68C181.08 242.09 180.03 243.97 178.93 246.01C176.77 250.01 174.53 253.97 172.35 257.95C171.63 259.28 170.93 260.62 170.3 262C167.36 268.45 164.44 274.92 161.52 281.38C160.29 284.1 159.04 286.8 157.93 289.57C157.78 289.96 154.92 298.51 154.69 298.84C152.77 301.64 151.71 304.69 151.36 308.08C151.01 311.45 149.29 312.74 144.4 313.51C139.82 314.23 135.2 314.71 130.65 315.53C123.02 316.91 115.43 318.46 107.83 319.96C104.31 320.65 100.79 321.37 97.2798 322.13C95.7598 322.46 94.7898 322.39 94.6698 320.4C94.2998 314.35 93.7398 308.31 93.3198 302.26C92.8898 295.97 92.4798 289.67 92.1598 283.37C91.6298 272.87 91.1198 262.37 90.7498 251.87C90.6698 249.56 91.1998 247.22 91.5598 244.91C91.6198 244.5 92.1398 244 92.5598 243.83C95.1598 242.8 97.3298 241.35 99.1098 239.08C100.79 236.94 103.04 235.26 104.89 233.24C107.08 230.85 109.12 228.31 111.22 225.83C114.38 222.1 117.55 218.38 120.66 214.61C121.17 214 121.59 213.18 121.72 212.4C122.2 209.37 122.65 206.33 122.92 203.27C123.27 199.2 123.43 195.12 123.7 191.05C123.89 188.12 123.3 187.5 120.87 185.92C118.34 184.27 116.04 182.23 113.75 180.24C111.02 177.86 108.4 175.36 105.73 172.91C105.58 172.77 105.26 172.7 105.24 172.56C104.88 170.18 104.54 167.8 104.24 165.41C104.12 164.39 104.52 163 103.98 162.4C102.83 161.09 102.62 159.73 102.76 158.17C102.92 156.47 101.79 154.7 103.32 153.02C103.77 152.52 103.42 151.22 103.32 150.31C103.04 147.62 102.52 144.95 102.42 142.25C102.3 138.97 102.44 135.68 102.63 132.4C102.72 130.88 103.25 129.39 103.48 127.87C103.64 126.8 103.68 125.71 103.64 124.63C103.61 123.75 103.27 122.87 103.25 121.99C103.16 118.02 103.06 114.05 103.14 110.09C103.15 109.31 103.89 107.89 104.33 107.88C106.2 107.82 106.31 106.22 107.09 105.23C111.12 100.09 114.96 94.81 119.84 90.41C121.4 89 122.83 87.44 124.14 85.8C124.47 85.38 124.31 84.33 124.05 83.71C122.86 80.97 124.82 75.83 127.61 74.72C127.93 74.59 128.48 74.58 128.71 74.77C129.89 75.75 131.03 76.79 132.13 77.86C134.42 80.1 133.76 83.33 130.9 84.8C129.74 85.39 128.59 86.27 127.82 87.3C125.81 89.99 124.06 92.87 122.09 95.6C121.35 96.62 120.28 97.4 119.4 98.32C116.56 101.32 113.87 104.47 110.87 107.3C108.65 109.4 108.56 111.91 108.56 114.58C108.56 115.62 108.56 116.65 108.56 117.69C108.53 117.68 108.49 117.68 108.46 117.68Z" fill="white"/>
<path d="M84.3999 273.29C84.3999 270.04 84.3499 266.79 84.4099 263.54C84.4799 259.38 81.4599 257.02 79.0699 254.34C75.5899 250.45 71.9499 246.69 68.4099 242.84C66.4499 240.71 64.5598 238.52 62.6399 236.36C60.6698 234.15 59.8998 231.76 60.1399 228.63C60.5699 222.84 60.3599 217 60.3599 211.18C60.3599 203.5 60.2999 195.83 60.3399 188.15C60.3399 187.49 60.7299 186.53 61.2399 186.23C64.5199 184.27 66.7099 181.39 68.6298 178.19C69.1398 177.34 69.9399 176.57 70.7899 176.03C75.7899 172.87 78.7199 167.84 82.2799 163.39C83.2899 162.12 83.4299 160.9 82.9699 159.19C82.6199 157.87 83.1798 155.83 84.0899 154.76C85.6199 152.98 87.9799 153.95 89.3199 154.51C93.1099 156.09 92.6399 159.35 92.6199 162.39C92.6099 164.24 91.3099 165.33 89.5499 164.75C87.1699 163.97 85.8999 165.16 84.6699 166.73C82.6699 169.28 80.8099 171.95 78.6999 174.4C75.8099 177.75 72.7099 180.92 69.7599 184.22C68.3299 185.82 66.8998 187.44 65.7398 189.23C65.1098 190.21 64.7499 191.55 64.7499 192.73C64.7598 204 64.8699 215.28 64.9599 226.55C64.9599 226.62 64.9899 226.69 64.9699 226.76C63.5199 231.92 67.2199 235.01 69.8999 238.31C72.6299 241.66 75.9499 244.53 78.9799 247.65C80.1199 248.83 81.1499 250.12 82.2799 251.31C82.5199 251.56 83.0199 251.81 83.3199 251.73C86.3799 250.9 87.2399 251.43 87.4699 254.8C87.9299 261.49 88.3599 268.19 88.6399 274.89C88.7999 278.61 88.7799 282.35 88.6099 286.06C88.4799 288.98 88.0399 291.88 87.6199 294.78C87.5199 295.47 86.8598 296.05 86.5899 296.73C86.0798 298 85.7699 299.35 85.1699 300.57C84.6199 301.7 83.7599 302.67 83.0999 303.75C81.4999 306.37 79.6099 308.88 78.4299 311.68C76.8799 315.39 74.7998 317.37 70.7698 317.75C63.3098 318.45 55.8599 319.21 48.3899 319.82C44.7799 320.12 41.0699 319.79 37.5299 320.43C34.4299 320.99 33.0499 319.58 31.5799 317.39C28.4799 312.74 24.5499 308.84 20.2799 305.23C17.5399 302.91 14.9699 300.37 12.4699 297.79C11.7699 297.07 11.2399 295.85 11.2299 294.85C11.2199 289.69 11.8599 284.48 11.3899 279.37C10.8999 274.11 14.6699 271.5 17.1099 268.04C18.9699 265.4 21.1499 263 23.1999 260.5C26.0799 257 28.7699 253.32 31.9199 250.07C33.9899 247.94 34.6499 245.41 34.9699 242.83C35.4199 239.22 39.0599 236.91 42.3799 238.34C44.7499 239.36 46.3299 240.82 46.5199 243.44C46.5699 244.12 46.3799 245.24 45.9299 245.48C43.1499 246.96 41.7799 250.67 37.9199 250.53C37.3099 250.51 36.5599 251.4 36.0499 252.02C29.6299 259.72 23.2299 267.45 16.8599 275.19C16.4399 275.7 16.0999 276.42 16.0599 277.06C15.7299 282.58 15.3699 288.1 15.2999 293.62C15.2899 294.72 16.2899 296.05 17.1799 296.9C19.9799 299.57 23.0999 301.92 25.8099 304.66C28.7099 307.59 31.4199 310.74 33.9999 313.97C35.9299 316.39 36.3899 316.7 39.3899 316.19C40.8699 315.94 42.4198 316.11 43.9398 315.99C48.2699 315.65 52.5999 315.2 56.9299 314.91C58.7699 314.79 60.6498 315.13 62.4799 314.95C64.8799 314.7 67.2899 314.29 69.6099 313.64C70.4299 313.41 70.9898 312.47 71.8398 313.55C71.8898 313.61 72.6099 313.35 72.7799 313.08C73.6599 311.77 74.5399 310.44 75.2699 309.04C76.8699 305.95 78.0699 302.6 79.9799 299.72C83.5099 294.42 84.5199 288.59 84.6399 282.45C84.6999 279.41 84.6499 276.36 84.6499 273.31C84.5999 273.29 84.4999 273.29 84.3999 273.29Z" fill="white"/>
<path d="M175.61 176.25C175.45 171.61 175.34 166.97 175.13 162.33C174.88 156.82 174.43 151.32 174.27 145.81C174.16 141.94 174.46 138.07 174.42 134.19C174.4 132.5 173.83 130.81 173.8 129.12C173.76 126.19 174 123.26 174.01 120.32C174.01 119.04 173.59 117.75 173.6 116.47C173.64 111.81 173.77 107.14 173.9 102.48C173.95 100.55 174.17 98.6299 174.2 96.6999C174.34 88.0299 174.37 79.3599 174.57 70.6899C174.71 64.6299 175.14 58.5799 175.27 52.5199C175.43 45.0699 175.43 37.6199 175.48 30.1699C175.5 26.9899 175.58 23.7999 175.42 20.6199C175.37 19.6799 174.84 18.4999 174.13 17.8999C171.5 15.6599 172.16 11.7499 175.21 10.0599C177.55 8.75989 179.52 8.85989 181.51 10.2999C184 12.0899 184.19 15.2499 181.83 17.1999C180.49 18.3099 180.18 19.4699 180.18 21.1299C180.17 29.0099 179.99 36.8899 179.88 44.7699C179.72 56.5999 179.63 68.4299 179.38 80.2499C179.22 87.4399 178.72 94.6299 178.53 101.82C178.31 110.12 178.16 118.43 178.18 126.73C178.19 130.8 178.75 134.87 178.93 138.95C179.38 148.83 179.75 158.72 180.18 168.6C180.28 170.88 180.53 173.16 180.61 175.44C180.64 176.37 180.79 176.55 181.62 176.04C182.6 175.44 183.67 175 184.65 174.4C186.7 173.14 188.76 171.89 190.73 170.51C193.54 168.56 196.21 166.39 199.08 164.51C202.75 162.11 206.56 159.93 210.3 157.64C210.82 157.32 211.21 156.69 211.76 156.52C212.68 156.24 213.83 155.85 214.58 156.19C215.17 156.45 215.64 157.75 215.6 158.56C215.36 164.16 214.7 169.75 214.7 175.35C214.7 179.99 215.47 184.63 215.81 189.28C216 191.8 216.04 194.33 216.08 196.86C216.11 198.97 215.77 201.13 216.07 203.19C216.3 204.81 217.09 206.42 217.94 207.85C219.37 210.29 219.04 212.53 217.36 214.52C215.93 216.21 213.66 216.67 211.74 216.07C210.51 215.69 209.03 214.05 208.86 212.82C208.62 211.04 208.88 208.62 209.96 207.34C212.26 204.62 211.84 201.58 211.69 198.7C211.3 191.59 210.29 184.52 209.89 177.42C209.69 173.89 210.29 170.32 210.53 166.76C210.55 166.42 210.74 166.07 210.68 165.75C210.53 164.87 210.29 164.01 210.09 163.14C209.3 163.48 208.44 163.72 207.72 164.17C201.57 168.02 195.4 171.83 189.33 175.8C186.26 177.81 183.46 180.21 180.4 182.22C179.44 182.85 177.81 183.27 176.89 182.87C176.12 182.54 175.75 180.9 175.53 179.77C175.31 178.64 175.48 177.43 175.48 176.26C175.53 176.25 175.57 176.25 175.61 176.25Z" fill="white"/>
<path d="M75.3698 67.9499C75.6898 78.7999 76.1498 89.1799 76.2498 99.5599C76.3098 105.92 75.8098 112.28 75.5898 118.64C75.4998 121.41 75.3798 124.18 75.4898 126.94C75.5198 127.75 76.1098 128.75 76.7498 129.28C78.9898 131.1 78.7698 132.19 77.9198 134.9C77.2798 136.91 76.3798 137.43 74.7098 138.3C71.0098 140.21 67.9698 139.49 66.9698 135.56C66.5398 133.86 66.8198 131.93 67.0298 130.13C67.1198 129.35 67.3998 127.62 68.9198 129.29C68.9798 129.36 69.9998 128.88 70.0798 128.54C70.4998 126.76 70.9398 124.96 71.0298 123.15C71.2998 117.71 71.4798 112.26 71.5698 106.81C71.6298 103.22 71.4598 99.6299 71.4198 96.0399C71.3698 91.7099 71.4198 87.3799 71.3098 83.0499C71.2198 79.5499 70.8298 76.0499 70.7998 72.5499C70.7198 65.0399 70.8098 57.5199 70.7698 50.0099C70.7598 48.4399 70.4898 46.8699 70.3898 45.2999C70.0598 40.2799 71.9098 35.8299 73.9798 31.3999C75.2398 28.7099 76.1098 25.8499 77.1698 23.0699C78.8998 18.5399 80.5698 13.9999 82.3798 9.50994C83.4998 6.72994 84.5798 6.33994 87.5898 6.70994C89.0998 6.89994 90.6698 6.70994 92.2098 6.63994C94.8598 6.51994 97.5098 6.39994 100.15 6.18994C103.39 5.92994 106.66 5.78994 109.85 5.21994C114.29 4.41994 118.67 3.23994 123.09 2.29994C124.46 2.00994 125.91 2.05994 127.3 1.80994C130.19 1.28994 133.05 0.629942 135.93 0.099942C138.15 -0.310058 139.09 0.479942 138.99 2.71994C138.69 9.46994 138.15 16.2199 138.05 22.9799C137.96 28.9599 138.33 34.9499 138.5 40.9299C138.55 42.8099 138.33 44.4199 136.99 46.0899C131.13 53.3799 124.28 59.4999 116.65 64.8899C113.65 66.9999 111.23 69.9299 108.55 72.4899C108.3 72.7299 108.15 73.1099 107.86 73.2599C104.49 75.0899 103.95 78.5599 102.98 81.7399C102.21 84.2599 98.1698 85.5299 96.0598 83.8099C93.9098 82.0499 94.1398 77.3699 96.5498 75.5299C97.3398 74.9199 98.3298 74.1699 99.2298 74.1599C102.23 74.1399 103.98 72.4299 105.57 70.2199C106.14 69.4199 107.02 68.8299 107.77 68.1599C110.95 65.3599 114.12 62.5299 117.34 59.7699C121.71 56.0299 126.17 52.3899 130.49 48.5999C134.28 45.2799 134.1 40.8499 133.59 36.3799C132.8 29.4599 133.41 22.5899 134.28 15.7299C134.43 14.5499 133.97 13.2999 133.94 12.0799C133.89 10.2799 133.92 8.47994 133.99 6.67994C134.08 4.30994 133.77 4.00994 131.38 4.43994C127.09 5.20994 122.82 6.17994 118.5 6.73994C109.45 7.92994 100.37 8.90994 91.2998 9.95994C90.6098 10.0399 89.9198 10.1199 89.2298 10.1199C87.3098 10.1299 86.2498 11.0299 85.6498 12.8799C84.3098 17.0799 82.8398 21.2399 81.3498 25.3899C80.3798 28.1099 79.3798 30.8399 78.2198 33.4799C75.3798 39.9499 75.3698 46.7999 75.3598 53.6599C75.3598 58.5899 75.3698 63.4999 75.3698 67.9499Z" fill="white"/>
<path d="M228.29 141.66C228.09 146.13 227.71 150.34 227.75 154.54C227.8 160.05 228.24 165.55 228.38 171.07C228.56 178.1 228.57 185.13 228.74 192.16C228.84 196.43 229.06 200.69 229.27 204.96C229.29 205.41 229.51 205.89 229.75 206.28C230.83 208.06 230.17 210.5 229.31 212.55C228.58 214.29 227.79 215.18 226.05 215.2C222.54 215.24 220.66 214.1 221.18 210.67C221.45 208.89 222.87 207.3 223.49 205.53C224.01 204.05 224.39 202.42 224.36 200.86C224.23 193.04 223.99 185.22 223.69 177.41C223.44 170.78 222.97 164.15 222.79 157.52C222.7 153.93 223.03 150.33 223.14 146.74C223.16 146.21 223 145.68 222.93 145.15C222.37 145.3 221.72 145.32 221.26 145.63C210.5 152.81 199.77 160.02 189.03 167.22C188.52 167.56 188 167.96 187.42 168.14C185.52 168.74 184.3 167.67 184.6 165.72C185.03 162.98 185.52 160.24 185.92 157.5C186.01 156.85 185.84 156.16 185.79 155.48C185.65 153.51 185.49 151.54 185.38 149.57C185.24 147.24 185.1 144.91 185.05 142.58C185.03 141.63 185.38 140.67 185.31 139.74C185.15 137.59 184.7 135.45 184.6 133.3C184.45 130.04 184.08 126.82 184.82 123.49C185.39 120.89 184.71 118.04 184.8 115.3C185 109.24 185 103.15 185.72 97.1499C186.33 92.0299 186.73 86.9299 186.91 81.7799C187.09 76.2999 187.58 70.8299 187.98 65.3599C188.45 58.9799 189.01 52.5999 189.47 46.2199C189.57 44.8599 189.48 43.4699 189.33 42.1099C189.27 41.5599 188.92 40.9099 188.5 40.5399C185.28 37.6899 185.53 34.3499 189.29 32.0499C190.44 31.3399 191.75 30.8199 193.06 30.4599C194.83 29.9599 195.91 31.3699 196.47 32.5799C196.93 33.5799 196.99 35.4799 196.36 36.1499C194.09 38.5199 193.82 41.0699 193.79 44.2399C193.73 51.9799 193.01 59.7099 192.53 67.4399C192.06 74.8899 191.58 82.3399 191.06 89.7799C190.51 97.6399 189.77 105.5 189.36 113.37C188.68 126.38 189.29 139.38 190.06 152.37C190.2 154.78 190.1 157.21 190.09 159.63C190.09 160.81 190.37 161.43 191.62 160.56C193.51 159.25 195.42 157.99 197.31 156.68C199.81 154.95 202.31 153.2 204.79 151.44C205.57 150.89 206.25 150.21 207.03 149.66C212.54 145.78 218.03 141.87 223.63 138.11C224.55 137.49 226.05 137.17 227.06 137.46C227.66 137.63 227.88 139.27 228.17 140.27C228.33 140.79 228.27 141.37 228.29 141.66Z" fill="white"/>
<path d="M165.55 37.6299C165.11 38.8199 164.64 39.9399 164.29 41.0899C163.97 42.1199 163.54 43.2099 163.58 44.2499C163.87 52.3399 164.22 60.4199 164.62 68.4999C164.9 74.0899 165.17 79.6899 165.64 85.2599C166.15 91.2899 166.85 97.3099 167.54 103.33C167.81 105.66 167.38 107.56 165.69 109.39C160.15 115.35 156.02 122.31 151.85 129.26C149.7 132.85 147.11 136.18 144.84 139.69C143.83 141.25 142.97 142.94 142.32 144.67C142.08 145.3 142.4 146.48 142.9 146.97C145.54 149.59 148.38 152.01 151.03 154.62C153.78 157.32 156.35 160.21 159.08 162.93C161.27 165.11 163.63 167.12 165.79 169.33C166.44 169.99 167.02 171.04 167.04 171.92C167.15 178.69 167.01 185.46 167.18 192.23C167.24 194.48 167.96 196.71 168.42 198.94C168.48 199.25 168.75 199.53 168.98 199.78C169.63 200.45 170.9 201.15 170.85 201.74C170.71 203.27 170.22 204.88 169.44 206.21C168.29 208.19 165.34 208.64 163.2 207.46C161.41 206.48 160.87 203.36 162.41 201.14C163.32 199.83 163.18 198.66 163.1 197.25C162.74 191.41 162.49 185.56 162.28 179.71C162.21 177.66 162.39 175.6 162.4 173.54C162.4 173.09 162.27 172.51 161.98 172.22C156.43 166.73 150.85 161.26 145.26 155.8C142.69 153.29 140.07 150.84 137.49 148.34C136.26 147.15 136.07 145.96 136.91 144.28C140.01 138.11 143.62 132.3 148 126.93C149.85 124.67 150.9 121.77 152.59 119.35C155.27 115.53 158.26 111.94 160.97 108.14C161.79 106.99 162.58 105.46 162.56 104.12C162.49 99.9799 162.03 95.8499 161.69 91.7099C161 83.2299 160.15 74.7599 159.62 66.2699C159.24 60.2099 159.33 54.1199 159.08 48.0499C159 45.9599 159.03 43.7999 157.47 41.9999C156.82 41.2499 156.45 40.1799 156.15 39.1999C155.56 37.2799 156.29 35.8999 158.15 35.0999C158.46 34.9599 158.79 34.8199 159.06 34.6099C161.25 32.8999 162.69 32.8099 164.58 34.6999C165.19 35.3399 165.21 36.5499 165.55 37.6299Z" fill="white"/>
<path d="M140.8 289.67C141.34 292.74 141.77 295.84 142.48 298.87C142.87 300.52 142.6 301.8 141.23 302.61C139.6 303.58 137.84 304.36 136.07 305.05C135.71 305.19 134.93 304.64 134.53 304.22C131.97 301.56 131.78 296.73 134.11 293.89C134.41 293.53 134.86 292.98 135.19 293.01C137.16 293.22 136.83 291.85 136.78 290.76C136.55 285.59 136.43 280.4 135.96 275.25C135.48 270.04 137.93 266.14 140.95 262.38C144.31 258.2 147.73 254.06 151 249.81C151.57 249.06 151.94 247.75 151.72 246.86C149.61 238.46 147.85 230 147.75 221.3C147.71 217.87 148.16 214.43 148.44 211C148.79 206.61 149.18 202.21 149.57 197.82C150.03 192.59 150.53 187.37 150.94 182.13C150.98 181.59 150.7 180.73 150.29 180.5C144.48 177.23 139.77 172.69 135.27 167.86C134.1 166.6 132.72 165.52 131.38 164.43C130.98 164.1 130.37 163.76 129.91 163.82C127.52 164.13 125.81 162.72 124.05 161.56C122.68 160.65 122.4 159.33 123.18 157.75C124.47 155.14 126.58 153.56 129.2 152.52C131.72 151.52 132.8 152.15 133.11 154.86C133.15 155.2 133.3 155.59 133.2 155.89C131.9 159.56 134.53 161.45 136.65 163.54C140.13 166.97 143.56 170.46 147.2 173.71C148.76 175.1 150.73 176.11 152.65 176.98C155.53 178.28 155.97 178.81 155.63 181.94C154.82 189.32 153.97 196.69 153.25 204.08C152.77 209.02 152.45 213.98 152.13 218.93C152.06 220.08 152.31 221.26 152.36 222.42C152.72 231.04 153.86 239.54 156.39 247.82C156.86 249.36 156.4 250.58 155.4 251.82C150.79 257.51 146.23 263.24 141.73 269.01C141.18 269.71 140.9 270.76 140.84 271.67C140.58 275.32 140.3 278.99 140.35 282.64C140.38 284.95 140.95 287.26 141.28 289.57C141.1 289.61 140.95 289.64 140.8 289.67Z" fill="white"/>
<path d="M23.2098 170.59C27.7498 170.27 32.2898 169.98 36.8098 169.57C37.5398 169.5 38.4698 169.06 38.8898 168.48C41.5198 164.95 44.1098 161.38 46.5498 157.72C48.6198 154.63 50.4898 151.4 52.3998 148.21C52.7298 147.65 52.9998 146.92 52.9398 146.3C52.2798 139.4 52.3698 132.51 52.5798 125.58C52.7898 118.82 52.2398 112.03 52.0298 105.26C52.0198 104.84 51.8798 104.39 51.9998 104.02C53.1198 100.51 50.9498 97.93 49.4498 95.21C48.4198 93.35 47.4298 91.62 48.3898 89.4C49.1398 87.65 52.3698 85.61 54.5798 85.68C55.9798 85.72 58.2298 87.99 59.0198 89.54C60.1798 91.84 59.0798 94.05 58.2698 95.7C55.8198 100.69 56.3498 105.84 56.4498 111.01C56.5398 115.76 56.7898 120.51 56.8798 125.26C56.9998 131.99 57.1598 138.73 57.0198 145.46C56.9898 147.12 56.1398 148.91 55.2298 150.37C53.3198 153.45 51.1198 156.36 49.0398 159.34C48.8498 159.62 48.6398 159.92 48.5598 160.24C47.1098 165.84 42.3898 169.09 38.9898 173.25C38.1698 174.25 35.7698 174.09 34.0898 174.21C27.7698 174.68 21.4398 175.07 15.0998 175.42C13.8298 175.49 13.4298 175.91 13.5398 177.19C13.9298 181.57 14.4598 185.96 14.4998 190.36C14.5698 197.28 16.7298 203.76 18.0398 210.42C18.5398 212.96 19.1798 215.31 20.5398 217.47C22.3198 220.31 18.9098 226.69 15.3898 227.7C13.1998 228.32 11.8298 226.8 10.4398 225.73C9.25984 224.83 9.42984 223.32 9.95984 221.9C10.8498 219.53 11.5798 217.21 13.6198 215.36C14.3698 214.68 14.1398 212.44 13.7798 211.07C12.0398 204.38 10.5098 197.68 10.3498 190.72C10.2398 185.77 9.89984 180.82 9.76984 175.87C9.67984 172.19 10.2998 171.52 13.8798 171.14C16.9698 170.81 20.0698 170.58 23.1698 170.3C23.1998 170.39 23.1998 170.49 23.2098 170.59Z" fill="white"/>
<path d="M41.7898 227.04C42.3698 224.45 43.7898 222.49 45.4698 220.66C45.9098 220.18 46.4398 219.51 46.4398 218.93C46.4298 214.48 47.0798 210.08 46.3498 205.57C45.8098 202.26 46.6098 198.73 46.7798 195.3C46.9098 192.72 47.1998 190.12 47.0098 187.56C46.8698 185.62 47.3998 183.99 48.7198 182.92C51.7598 180.44 53.3398 176.99 55.4998 173.91C57.2998 171.33 59.6498 169.13 61.7498 166.75C64.2898 163.86 66.7498 160.92 69.3598 158.09C70.7798 156.55 72.4998 155.28 73.9398 153.75C76.3698 151.17 78.7098 148.49 81.0398 145.82C83.2098 143.34 85.3498 140.82 87.4698 138.28C87.8898 137.77 88.4498 137.15 88.4598 136.57C88.4898 133.82 88.3698 131.06 88.2598 128.31C88.1498 125.69 87.6898 123.04 87.9498 120.46C88.1598 118.37 87.4598 116.93 86.3298 115.4C84.3898 112.78 84.4998 112.01 86.8398 109.84C87.0798 109.62 87.1898 109.26 87.3298 108.95C88.3998 106.51 89.2798 106.18 91.8398 107.24C95.1398 108.61 96.3498 110.46 95.5298 113.18C95.2898 113.98 94.7298 114.85 94.0598 115.34C92.5898 116.41 92.3298 117.68 92.3498 119.43C92.4198 124.31 92.1798 129.19 92.1698 134.07C92.1698 135.22 92.7498 136.37 92.7798 137.52C92.7998 138.36 92.5598 139.39 92.0398 140.01C89.3098 143.3 86.5398 146.57 83.6198 149.68C80.4098 153.1 76.8698 156.22 73.7398 159.71C67.5598 166.59 60.7798 172.97 55.7398 180.83C55.2998 181.52 54.7298 182.16 54.1098 182.69C51.2598 185.07 51.5598 188.42 51.2798 191.59C50.9598 195.23 50.5798 198.88 50.3898 202.53C50.2998 204.31 50.6098 206.1 50.6698 207.89C50.7798 210.85 50.8198 213.82 50.9198 216.79C50.9798 218.58 51.4898 220.11 53.0098 221.32C55.8698 223.59 55.0598 230.19 51.7998 231.79C49.6698 232.84 43.7998 231.37 42.4898 229.36C42.0398 228.7 41.9998 227.8 41.7898 227.04Z" fill="white"/>
<path d="M167.24 223.16C167.38 226.34 167.37 229.53 167.72 232.69C167.91 234.41 168.57 236.12 169.26 237.74C169.92 239.29 169.95 242.28 169.03 243.28C167.93 244.49 164.51 244.99 162.53 244.24C158.7 242.78 157.78 238.98 160.59 236.28C160.69 236.18 160.77 236 160.87 235.98C164.33 235.51 162.81 232.85 162.85 231.1C162.95 226.56 162.74 222.02 162.7 217.48C162.69 215.96 163.31 214.9 164.61 213.85C166.87 212.03 169.46 210.58 171.04 207.87C172.07 206.1 173.92 204.81 175.33 203.25C177.16 201.22 178.86 199.07 180.74 197.08C183.32 194.34 186.16 191.83 188.62 189C190.68 186.63 192.33 183.91 194.21 181.39C195.65 179.46 197 177.71 199.99 177.81C201.86 177.87 201.95 178.61 201.93 179.81C201.91 180.69 201.44 181.57 201.44 182.45C201.46 186.02 201.58 189.6 201.68 193.17C201.86 200.2 202.09 207.23 202.22 214.26C202.29 217.78 201.9 221.34 202.28 224.82C202.49 226.75 203.53 228.82 204.77 230.36C206.27 232.21 207.43 235.86 206.26 237.22C203.79 240.1 200.07 240.74 197.62 238.7C195.92 237.29 195.78 233.55 197.11 231.38C197.74 230.35 198.21 229.01 198.19 227.82C198.09 221.54 197.88 215.25 197.56 208.98C197.21 202.14 196.7 195.31 196.24 188.48C196.21 188.04 195.96 187.61 195.81 187.18C195.44 187.45 195.03 187.68 194.72 188.01C189.99 192.95 185.27 197.91 180.55 202.87C177.21 206.37 174.11 210.17 170.42 213.26C167.95 215.34 167.02 217.46 167.36 220.46C167.46 221.35 167.38 222.26 167.38 223.16C167.31 223.16 167.28 223.16 167.24 223.16Z" fill="white"/>
<path d="M138.21 220.47C138.21 222.59 138.17 225.56 138.23 228.53C138.26 230.22 138.56 231.9 138.58 233.59C138.61 236.46 138.43 239.33 138.51 242.19C138.54 243.12 138.9 244.2 139.48 244.92C142.08 248.14 141.5 251.33 137.75 252.96C136.98 253.29 135.76 253.2 134.98 252.81C132.12 251.39 130.32 246.52 131.37 243.53C131.46 243.27 131.5 242.91 131.69 242.78C134.97 240.38 133.63 236.74 134.13 233.61C134.35 232.19 134.25 230.7 134.17 229.26C134.14 228.79 133.71 228.34 133.46 227.89C133.05 228.12 132.55 228.26 132.25 228.59C129.89 231.26 127.48 233.9 125.26 236.7C124.16 238.08 123.6 239.88 122.54 241.3C119.04 245.99 115.43 250.6 111.82 255.21C111.32 255.84 110.6 256.32 109.93 256.79C107.69 258.36 106.17 259.96 106.62 263.23C107.12 266.85 106.6 270.61 106.58 274.31C106.54 280.86 106.32 287.41 106.6 293.95C106.75 297.41 107.44 300.91 110.02 303.71C111.69 305.53 111.29 309.86 109.56 311.56C107.8 313.29 104.67 312.44 103.59 309.89C102.09 306.36 101.71 302.86 103.84 299.37C104.22 298.75 104.32 297.75 104.14 297.03C102.31 289.68 102.31 282.26 102.76 274.76C103.09 269.19 103.02 263.59 103.11 258C103.13 256.85 103.07 255.9 104.76 255.75C105.61 255.68 106.48 254.66 107.15 253.9C109.19 251.57 111.36 249.29 113.07 246.73C114.79 244.16 117.37 242.16 118.14 238.88C118.47 237.5 119.76 236.36 120.61 235.1C121.65 233.56 122.59 231.93 123.78 230.52C124.64 229.49 125.96 228.84 126.85 227.83C128.26 226.23 129.54 224.51 130.79 222.77C131.94 221.17 132.88 219.41 134.11 217.87C134.67 217.17 135.87 216.3 136.49 216.49C137.8 216.86 138.96 217.86 138.21 220.47Z" fill="white"/>
<path d="M72.4499 279.64C72.2599 276.05 72.1799 272.45 71.8299 268.87C71.7399 267.96 70.9299 266.99 70.2199 266.3C69.1299 265.24 67.8099 264.4 66.6299 263.42C66.4899 263.3 66.5499 262.83 66.6299 262.56C67.0799 261.11 67.5299 259.66 68.0499 258.23C68.8899 255.88 70.4999 255.29 72.5199 256.57C72.7499 256.72 73.0199 257.08 73.1699 257.04C74.5299 256.61 75.4599 256.91 76.1899 258.24C77.2799 260.22 77.4999 262.13 76.9999 264.38C76.4999 266.62 76.6399 269 76.5499 271.33C76.3199 277.33 76.2799 283.34 75.8099 289.32C75.6799 291.01 74.5699 292.78 73.5099 294.22C70.6599 298.12 67.5899 301.85 64.6399 305.67C63.6799 306.91 62.5399 307.34 60.9299 307.47C56.3299 307.86 51.7699 308.56 47.1899 309.13C46.7799 309.18 46.3599 309.21 45.9599 309.32C41.0999 310.71 38.1699 308.58 35.4899 304.56C33.2399 301.19 30.3399 298.09 26.5099 296.19C24.7499 295.32 24.5399 293.9 24.7499 292.01C25.1599 288.38 25.3199 284.71 25.3299 281.06C25.3399 278.92 26.1699 277.74 28.0899 276.97C28.9799 276.62 29.7899 275.87 30.4299 275.12C32.2699 272.98 34.0199 270.76 35.7599 268.54C36.2599 267.9 36.5299 267.08 37.0299 266.44C40.2399 262.35 43.4199 258.22 46.7899 254.27C47.3099 253.66 48.9699 253.46 49.7699 253.81C50.7499 254.24 51.9399 255.39 52.0599 256.34C52.5599 260.48 51.1499 263.78 45.9099 262.68C45.2199 262.53 44.0899 262.9 43.6399 263.43C41.3899 266.14 39.3999 269.06 37.1199 271.74C34.7499 274.52 32.1299 277.09 29.6799 279.81C29.2199 280.32 28.8299 281.09 28.7999 281.76C28.6399 284.93 28.5699 288.12 28.5599 291.29C28.5499 293.5 30.5899 294.24 31.8699 295.5C34.5099 298.09 37.3399 300.5 39.8199 303.23C40.9599 304.48 41.9299 305.24 43.6499 305.03C49.3399 304.34 55.0499 303.81 60.7099 302.96C61.7899 302.8 62.8599 301.56 63.6299 300.58C65.9999 297.52 68.3199 294.41 70.4599 291.19C71.2899 289.94 71.9099 288.38 72.0799 286.89C72.3399 284.5 72.1499 282.06 72.1499 279.64C72.2399 279.65 72.3499 279.64 72.4499 279.64Z" fill="white"/>
<path d="M116.68 34.8099C116.47 30.6099 116.21 26.0599 116.04 21.5099C115.99 20.1799 115.37 19.6999 114.21 20.0099C110.61 20.9899 107.02 21.9799 103.48 23.1399C102.75 23.3799 102.07 24.2599 101.68 25.0099C99.4399 29.2199 97.3399 33.4999 95.1099 37.7099C93.7499 40.2699 92.3099 42.7899 90.7399 45.2299C89.5299 47.1099 89.0199 48.9599 89.2499 51.2699C89.8799 57.7399 90.2199 64.2299 90.6899 70.7199C90.7299 71.2599 90.7299 71.9199 91.0299 72.2999C93.5899 75.4899 92.6099 78.6799 90.8899 81.7099C89.3999 84.3299 86.3399 84.7099 84.0999 82.8399C82.2599 81.2999 82.0099 77.8099 84.1199 76.2599C87.2199 73.9599 87.3699 71.1099 86.8399 67.7799C86.4599 65.3599 86.3999 62.8899 86.1199 60.4499C85.8399 57.9999 85.5699 55.5399 85.0999 53.1299C84.7099 51.1399 84.8099 49.4199 85.8899 47.5999C88.7599 42.7599 91.4899 37.8299 94.1599 32.8699C95.4099 30.5399 96.5099 28.1099 97.4399 25.6299C98.2999 23.3299 100.07 21.9599 101.96 20.7899C105.84 18.3799 109.99 16.6399 114.66 16.3199C115.98 16.2299 117.28 15.5399 118.54 15.0299C120.35 14.2899 120.78 14.6899 120.75 16.6999C120.68 21.7199 120.67 26.7499 120.76 31.7799C120.8 33.7699 121.16 35.7599 121.41 37.7399C121.7 40.0199 120.64 41.2899 118.37 41.7899C115.68 42.3699 113.01 43.0499 110.39 43.8899C108.42 44.5199 106.7 45.5099 105.95 47.7799C105.43 49.3399 103.91 49.5599 102.46 49.0999C100.39 48.4399 99.0999 46.5799 99.2999 44.7699C99.5999 42.0299 101.76 39.5799 104.47 39.0399C105.01 38.9299 105.83 39.0199 106.19 39.3699C108.8 41.8499 111.27 39.8999 113.78 39.2299C114.1 39.1399 114.38 38.7499 114.68 38.7399C117.34 38.6699 117.24 37.0099 116.68 34.8099Z" fill="white"/>
<path d="M115.77 198.35C115.77 201.25 115.86 204.16 115.72 207.05C115.67 207.99 115.25 209.15 114.58 209.78C110.57 213.58 106.54 217.38 102.3 220.92C100.25 222.63 98.89 224.46 98.63 227.11C98.41 229.31 96.91 230.41 94.95 230.78C93.21 231.11 91.21 231.5 90.03 229.63C88.91 227.85 88.99 225.85 90.16 224.12C91.68 221.88 93.83 220.72 96.65 221.05C98.59 221.28 99.08 219.62 99.98 218.43C100.91 217.2 101.92 215.98 103.08 214.97C104.37 213.84 106.06 213.13 107.23 211.91C108.55 210.53 109.5 208.8 110.55 207.19C110.8 206.81 110.93 206.28 110.94 205.82C111.03 203.33 111.1 200.84 111.1 198.36C111.1 194.63 109.27 192.1 105.95 190.44C103.3 189.11 100.74 187.57 98.21 186C97.16 185.35 96.34 185.3 95.43 186.14C92.94 188.44 90.44 190.72 87.94 193.01C87.35 193.55 86.97 193.87 87.39 195C87.81 196.13 87.22 197.68 86.95 199.02C86.52 201.14 86.78 202.73 89.08 203.75C90.91 204.56 91.15 206.79 89.84 208.35C89.4 208.87 88.84 209.31 88.29 209.72C86.4 211.13 83.77 211.32 82.28 210.11C80.44 208.6 81.38 206.69 81.67 204.91C82.14 202.07 83.43 199.12 83.01 196.43C82.54 193.45 84.17 192.26 85.72 190.75C88.75 187.78 91.92 184.97 94.97 182.02C96.37 180.67 97.76 180.7 99.27 181.66C101.5 183.07 103.69 184.54 105.94 185.93C108.31 187.39 110.7 188.84 113.14 190.19C115.17 191.32 116.21 192.85 115.84 195.26C115.69 196.27 115.81 197.33 115.81 198.37C115.8 198.35 115.78 198.35 115.77 198.35Z" fill="white"/>
<path d="M3.34988 263.19C1.35988 263.2 -0.0601211 261.76 -0.00012115 259.8C0.129879 255.67 4.33988 251.61 8.43988 251.87C10.3199 251.99 11.4399 251.04 12.4599 249.82C16.6399 244.8 20.8799 239.81 24.8899 234.65C28.1199 230.5 30.2599 226.12 29.4099 220.36C28.7599 215.94 29.5399 211.29 29.7399 206.75C29.8699 203.81 30.1999 200.88 30.2699 197.94C30.2899 197.06 29.8899 196.07 29.4199 195.28C28.2499 193.32 28.2699 190.83 29.6299 189.67C31.2099 188.32 35.2799 188.18 36.6199 189.43C37.7799 190.51 37.6599 192.72 36.5999 194.38C35.9299 195.42 35.3199 196.65 35.1699 197.86C34.6699 201.83 34.2099 205.82 34.0799 209.82C33.9599 213.47 34.2699 217.13 34.3999 220.78C34.4299 221.54 34.4999 222.3 34.5899 223.05C35.2299 228.58 31.8799 232.4 28.7899 236.27C24.0099 242.24 19.0899 248.1 14.2699 254.05C13.4899 255.01 12.7899 256.08 12.3099 257.21C10.2999 261.96 8.56988 263.16 3.34988 263.19Z" fill="white"/>
<path d="M55.5998 279.48C55.9698 271.48 56.3398 263.47 56.6898 255.47C56.7198 254.88 56.7598 254.02 56.4198 253.74C54.1898 251.89 54.4598 249.11 53.8698 246.73C53.6098 245.68 54.4098 244.01 55.2498 243.13C56.2198 242.12 57.5998 242.01 59.1698 242.89C63.0598 245.08 63.8998 247.39 61.9598 251.59C61.5698 252.44 61.3398 253.43 61.2798 254.37C60.8598 261.27 60.4698 268.17 60.1298 275.07C59.8898 279.83 59.7498 284.59 59.5598 289.34C59.5398 289.96 59.5498 290.59 59.4698 291.21C59.1498 293.4 57.6098 294.15 55.7598 292.96C52.9098 291.14 50.1398 289.19 47.2398 287.46C46.4998 287.02 45.2598 286.83 44.4998 287.13C42.9498 287.74 41.3498 287.76 40.5098 286.58C39.5898 285.27 38.6598 283.22 39.0698 281.91C39.5298 280.44 39.3998 278.03 42.2098 277.68C45.0598 277.32 46.8898 278.27 47.2998 281.12C47.3898 281.76 47.8398 282.5 48.3598 282.9C49.3798 283.7 50.5298 284.34 51.6598 284.98C55.8198 287.35 55.2298 287.49 55.8098 282.58C55.9298 281.56 55.8298 280.51 55.8298 279.47C55.7498 279.48 55.6798 279.48 55.5998 279.48Z" fill="white"/>
<path d="M131.22 258.65C131.28 260.81 129.59 261.71 127.92 261.94C124.31 262.45 122.16 265.02 119.65 267.13C118.41 268.17 118.14 269.45 118.21 271.02C118.41 275.97 118.5 280.93 118.58 285.89C118.62 288.37 118.48 290.86 118.54 293.34C118.6 295.68 118.79 297.88 120.38 299.96C122.23 302.38 121.25 307.8 118.98 309.98C117.66 311.25 116.34 310.5 115.26 309.66C113.39 308.2 111.31 304.87 112.92 301.31C114.25 298.37 114.46 295.39 114.35 292.23C114.08 284.14 113.97 276.04 113.86 267.95C113.85 267.26 114.12 266.39 114.57 265.88C116.48 263.71 118.51 261.65 120.47 259.53C121.5 258.41 122.42 257.29 122.27 255.53C122.21 254.85 122.9 253.77 123.54 253.45C126.27 252.05 131.32 255.49 131.22 258.65Z" fill="white"/>
<path d="M118.17 135.62C118.57 132.41 120.1 130.42 122.89 130.23C124.82 130.09 125.47 128.66 126.19 127.45C127.98 124.43 129.45 121.22 131.21 118.18C132.06 116.72 133.26 115.45 134.32 114.11C134.87 113.41 135.54 112.8 136.04 112.07C138.59 108.28 141.18 104.52 143.58 100.63C144.04 99.8899 144.03 98.4499 143.61 97.6699C142.7 95.9599 143.31 95.2 144.77 94.4C147.8 92.75 150.76 93.11 153.65 94.57C155.52 95.52 155.82 96.9399 154.51 98.6399C152.8 100.85 151.25 103.35 147.75 103.03C147.1 102.97 146.19 104.05 145.64 104.79C142.6 108.81 139.55 112.82 136.67 116.96C135.22 119.05 134.16 121.41 132.89 123.63C131.28 126.44 129.7 129.27 128 132.03C127.37 133.05 126.96 133.88 127.67 135.03C128.35 136.12 127.98 136.98 126.79 137.52C126.36 137.72 125.87 137.99 125.63 138.37C124.3 140.45 122.33 139.77 120.91 139.03C119.73 138.41 119.06 136.8 118.17 135.62Z" fill="white"/>
<path d="M137.4 212.52C136.47 211.93 135 211.51 134.52 210.58C133.85 209.28 133.41 207.63 135.09 206.29C136.66 205.04 137.4 203.29 137.34 201.17C137.29 199.24 137.61 197.3 137.62 195.37C137.64 192.97 137.53 190.69 136.48 188.32C135.59 186.33 135.59 183.72 135.95 181.51C136.09 180.63 138.5 179.27 139.45 179.55C141.15 180.06 142.59 181.58 143.99 182.85C144.26 183.09 144 184.22 143.68 184.75C142.68 186.43 141.17 187.89 140.56 189.68C140.03 191.22 140.43 193.08 140.48 194.8C140.54 196.59 140.68 198.39 140.77 200.18C140.84 201.69 141.21 202.98 142.6 203.9C144.26 205 144.49 206.71 143.66 208.34C142.48 210.68 140.11 211.44 137.4 212.52Z" fill="white"/>
<path d="M174.175 109.381C175.807 67.4412 151.274 32.4354 119.377 31.1936C87.4807 29.9519 60.2999 62.9443 58.6671 104.884C57.0343 146.824 81.5679 181.83 113.464 183.072C145.361 184.314 172.542 151.321 174.175 109.381Z" fill="black"/>
<path d="M105.2 129.09C107.75 129.27 106.64 126.94 107.28 126.06C107.33 125.99 106.67 125.19 106.22 124.99C104.58 124.28 102.85 123.78 101.25 123C100.27 122.53 99.2198 121.86 98.6398 120.98C96.5898 117.86 94.7298 114.62 92.8098 111.42C92.6998 111.24 92.7498 110.97 92.7198 110.75C92.9798 110.76 93.2498 110.77 93.5098 110.78C93.7598 110.79 93.9098 110.47 93.7198 110.31C93.1598 109.82 92.0298 109.17 92.1098 108.89C93.6498 103.95 95.2398 99.02 97.0398 94.17C98.0298 91.5 99.3998 88.97 100.69 86.42C101 85.81 101.66 85.39 102.17 84.88C101.73 85.12 101.29 85.35 100.84 85.59C100.82 85.6 100.78 85.58 100.75 85.59C99.6598 86.18 98.5698 86.76 97.4898 87.37C97.4798 87.37 97.6498 87.79 97.7998 87.94C97.9398 88.08 98.1798 88.12 98.3798 88.2C98.1598 88.32 97.9498 88.52 97.7198 88.55C96.9698 88.64 96.2198 88.68 95.4698 88.72C95.3598 88.72 95.1398 88.59 95.1398 88.51C95.1398 88.36 95.2398 88.2 95.3198 88.05C95.4598 87.79 95.6198 87.54 95.7598 87.28C95.4598 87.38 95.1298 87.44 94.8598 87.59C93.2998 88.45 91.7098 89.25 90.2298 90.23C89.0998 90.97 87.9898 91.84 87.1198 92.86C86.5798 93.49 84.7798 94.78 84.0898 94.48C83.9698 94.43 83.7298 94.5 83.6298 94.6C83.0798 95.12 82.5798 95.7 82.0198 96.2C80.7898 97.29 79.5398 98.35 78.2998 99.43C78.0698 99.63 77.8498 99.86 77.6298 100.08C77.8598 100.08 78.1098 100.03 78.3198 100.1C78.3998 100.13 78.4598 100.54 78.4098 100.58C77.7898 100.98 77.1098 101.29 76.5098 101.71C75.9998 102.07 75.5798 102.54 75.1198 102.96C75.2298 103.07 75.3198 103.24 75.4498 103.27C75.6498 103.31 75.8798 103.24 76.0898 103.22C75.9298 103.45 75.7998 103.7 75.6198 103.91C74.7798 104.86 73.8298 105.74 73.1198 106.77C72.5398 107.61 72.4698 109.18 71.7698 109.49C70.2098 110.17 70.5098 110.9 71.0598 111.97C71.1598 112.16 71.0598 112.49 70.9798 112.72C70.9498 112.81 70.6798 112.81 70.5198 112.85C70.5198 112.62 70.5298 112.39 70.5198 112.16C70.5098 111.98 70.5198 111.74 70.4098 111.63C70.2898 111.5 69.9798 111.38 69.8698 111.45C69.3298 111.77 68.8398 112.16 68.3298 112.53C68.7798 112.82 69.2298 113.12 69.6898 113.4C69.9898 113.59 70.3198 113.74 70.6098 113.93C73.8098 116.01 76.8598 118.36 80.2298 120.1C85.5098 122.82 90.9998 125.13 96.3998 127.61C97.0198 127.89 97.6198 128.34 98.2598 128.42C100.55 128.71 102.88 128.87 105.2 129.09Z" fill="black"/>
<path d="M132.44 125.19C132.8 125.11 133.04 125.12 133.2 125.01C137.65 121.95 142.18 119 146.51 115.79C152.82 111.12 156.6 103.7 163.64 99.76C163.88 99.62 164.02 98.69 163.89 98.6C162.45 97.62 160.98 96.68 159.45 95.85C157.52 94.8 155.54 93.87 153.58 92.88C152.21 92.19 150.84 91.51 149.48 90.81C148.72 90.42 147.88 90.09 147.24 89.54C146.66 89.05 146.44 87.97 145.83 87.72C141.06 85.78 136.23 83.97 131.41 82.13C131.27 82.08 131.09 82.14 130.94 82.15C131.07 82.26 131.19 82.38 131.32 82.48C131.81 82.85 132.76 83.26 132.73 83.59C132.54 85.56 133.53 86.7 135.09 87.59C135.43 87.79 135.79 88.08 135.97 88.42C137.07 90.54 138.26 92.64 139.13 94.86C139.78 96.52 140.29 98.35 140.3 100.11C140.32 102.55 140.06 105.06 139.47 107.43C138.67 110.63 138.07 114.16 136.26 116.76C133.59 120.6 129.92 123.75 126.68 127.2C126.56 127.33 126.51 127.52 126.42 127.69C126.61 127.63 126.81 127.61 126.98 127.51C128.72 126.5 130.45 125.47 132.2 124.45C132.63 124.2 133.08 124 133.51 123.77C133.24 124.1 132.97 124.43 132.7 124.76C132.63 124.82 132.59 124.91 132.44 125.19Z" fill="black"/>
<path d="M154.16 155.38C154.15 155.3 154.12 154.72 153.96 154.19C153.86 153.86 153.56 153.59 153.35 153.29C153.39 153.59 153.43 153.89 153.45 154.2C153.46 154.38 153.43 154.57 153.41 154.76C153.21 154.57 152.97 154.41 152.83 154.18C152.28 153.3 151.74 152.4 151.24 151.49C150.76 150.62 150.34 149.72 149.86 148.85C149.75 148.65 149.14 148.79 149.13 148.99C149.1 149.4 149.11 149.81 149.11 150.22C148.73 149.56 148.29 148.91 147.98 148.21C147.87 147.97 147.97 147.5 148.16 147.29C148.47 146.93 148.94 146.71 149.31 146.39C151.71 144.26 150.78 141.89 149.74 139.55C149.61 139.26 149.22 139.08 148.95 138.85C148.88 139.05 148.78 139.25 148.73 139.46C148.68 139.66 148.68 139.87 148.66 140.08C148.51 139.91 148.28 139.75 148.22 139.55C147.99 138.72 147.96 137.79 147.58 137.05C146.34 134.65 145.09 132.24 143.6 129.99C143.05 129.16 141.46 128.07 140.96 128.32C139.05 129.27 137.4 130.72 135.65 131.98C135.4 132.16 135.1 132.27 134.9 132.49C134.7 132.71 134.52 133.02 134.48 133.31C134.42 133.73 134.5 134.16 134.51 134.59C134.2 134.51 133.89 134.42 133.57 134.36C133.43 134.34 133.15 134.41 133.15 134.44C133.16 135.26 132.94 136.23 133.29 136.89C134.04 138.3 135.21 139.49 135.98 140.89C137.63 143.89 139.12 146.99 140.74 150C140.89 150.28 141.62 150.47 142 150.37C143.09 150.09 144.14 149.65 145.2 149.27C145.63 150.69 148.48 151.47 146.34 153.58C146.24 153.68 146.32 153.95 146.32 154.15C146.46 154.04 146.62 153.94 146.75 153.81C147.06 153.48 147.35 153.13 147.65 152.8C147.55 153.23 147.41 153.65 147.36 154.08C147.28 154.79 147.05 156.05 147.26 156.14C148.69 156.72 150.13 157.11 149.56 159.17C149.54 159.23 149.78 159.42 149.92 159.46C151.86 159.98 154.33 157.91 154.16 155.38Z" fill="black"/>
<path d="M143.63 59.31C143.39 59.11 143.14 58.92 142.9 58.72C142.46 58.94 142.02 59.16 141.58 59.38C141.32 59.51 140.98 59.84 140.82 59.76C139.33 59.05 138.63 59.48 138.23 61.09C137.39 64.5 136.46 67.89 135.42 71.24C134.65 73.72 135.44 75.96 137.55 76.5C139.42 76.98 141.29 77.46 143.17 77.91C143.46 77.98 143.79 77.93 144.1 77.93C143.96 77.62 143.72 77.31 143.69 76.99C143.61 75.99 143.61 74.99 143.58 73.99C143.88 74.1 144.42 74.19 144.43 74.34C144.54 75.31 144.52 76.29 144.57 77.27C144.58 77.48 144.7 77.69 144.8 77.89C144.81 77.91 145.1 77.85 145.16 77.76C145.52 77.2 145.98 76.66 146.18 76.04C147.54 71.82 148.89 67.6 150.11 63.35C150.24 62.89 149.67 62.15 149.28 61.65C148.86 61.11 147.77 60.51 147.86 60.26C148.54 58.37 149.02 56.1 150.38 54.83C152.29 53.04 152.18 50.97 152.18 48.91C152.18 48.44 150.37 47.61 149.39 47.6C148.07 47.58 146.58 47.95 145.5 48.66C145.08 48.94 145.63 50.61 145.66 51.65C145.7 53.01 145.71 54.38 145.61 55.74C145.57 56.27 145.27 56.82 144.99 57.29C144.59 58 144.09 58.64 143.63 59.31Z" fill="black"/>
<path d="M105.37 74.6499C107.64 74.6999 108.08 74.1599 107.4 71.8599C106.4 68.4799 105.16 65.1699 104.04 61.8299C103.9 61.3999 103.79 60.9499 103.74 60.4999C103.68 59.9999 103.71 59.4799 103.7 58.9699C103.07 59.0399 102.43 59.0599 101.81 59.1899C100.77 59.4099 99.65 60.1999 99.17 58.3899C98.71 56.6799 98.21 54.9699 97.52 53.3499C96.92 51.9299 96.81 50.7899 97.59 49.3099C98.05 48.4399 97.98 46.7999 96.21 46.4399C95.78 46.3499 95.42 45.9699 95.02 45.7299C95.46 45.7999 95.9 45.9399 96.34 45.9099C96.56 45.8999 96.77 45.6099 96.98 45.4399C96.3 44.6499 95.66 43.8099 94.89 43.1199C94.82 43.0499 93.93 43.8999 93.42 44.3199C93.24 44.4699 93.09 44.7199 92.89 44.7599C90.66 45.1999 90.41 46.4199 90.83 48.5299C91.15 50.1699 91.87 50.7599 93.27 50.8099C93.99 50.8299 94.73 50.5099 95.46 50.3299C95.56 50.3099 95.69 50.2099 95.74 50.2399C95.82 50.2899 95.91 50.4599 95.88 50.5299C95.43 51.5699 95.18 53.2899 94.47 53.4999C91.86 54.2899 94.5 55.2199 94.26 56.0199C94.18 56.2699 94.76 56.6699 94.77 57.0099C94.79 58.2999 96.95 60.4799 93.45 60.4199C93.27 60.4199 93.08 60.6499 92.9 60.7699C93.13 60.8999 93.34 61.0499 93.58 61.1499C93.89 61.2799 94.22 61.3699 94.53 61.4699C94.48 61.5699 94.44 61.7399 94.37 61.7499C92.9 62.0599 93.38 62.8399 93.71 63.8199C94.69 66.7799 95.61 69.7799 96.35 72.8099C96.59 73.7899 96.23 74.9199 96.15 75.9799C96.15 76.0399 96.28 76.1199 96.36 76.1799C97.23 76.7599 98.11 77.3199 98.97 77.9099C99.1 77.9999 99.17 78.1699 99.27 78.3099C99.28 78.1499 99.23 77.9499 99.31 77.8399C99.67 77.3199 99.97 76.5999 100.47 76.3699C101.74 75.7999 103.11 75.4699 104.44 75.0199C104.86 74.8999 105.26 74.6899 105.37 74.6499Z" fill="black"/>
<path d="M115.53 70.96C115.46 71.92 115.38 72.13 115.44 72.27C115.69 72.86 115.99 73.42 116.29 73.99C116.29 74 116.48 73.91 116.58 73.87C117.31 73.59 118.03 73.25 118.79 73.04C119.13 72.94 119.54 73.08 119.92 73.11C119.54 73.38 119.17 73.67 118.78 73.93C118.47 74.13 118.14 74.29 117.81 74.46C118.36 74.44 118.96 74.56 119.45 74.37C121.52 73.56 123.57 72.68 125.6 71.76C126.11 71.53 126.52 71.08 126.97 70.73C126.87 70.63 126.77 70.44 126.68 70.44C124.76 70.54 125.38 69.08 125.34 68.15C125.2 65.37 125.18 62.59 125.04 59.82C125.02 59.47 124.55 59.12 124.25 58.8C123.87 58.39 123.47 58 123.07 57.61C123.37 57.48 123.7 57.4 123.95 57.21C124.38 56.9 124.75 56.52 125.15 56.17C124.75 56.14 124.35 56.13 123.95 56.07C123.79 56.05 123.63 55.94 123.49 55.84C122.93 55.47 122.36 54.76 121.84 54.79C120.19 54.9 120.42 53.85 120.35 52.85C120.28 51.94 120 51.04 119.96 50.13C119.95 49.71 120.24 49.23 120.52 48.86C120.82 48.45 121.35 48.19 121.59 47.76C121.69 47.58 121.31 47.14 121.15 46.81C120.96 46.4 120.59 45.94 120.66 45.57C120.71 45.32 121.38 45.2 121.75 44.98C122.02 44.82 122.22 44.55 122.47 44.37C122.67 44.23 122.91 44.09 123.15 44.07C123.41 44.05 123.69 44.16 123.96 44.22C123.82 43.79 123.81 43.21 123.52 42.95C123.13 42.59 122.53 42.45 122.01 42.26C119.69 41.42 117.34 39.75 115.12 42.46C114.92 42.7 114.7 42.93 114.48 43.17C114.81 43.13 115.14 43.05 115.46 43.06C115.96 43.07 116.47 43.13 116.97 43.17C116.43 43.67 115.92 44.21 115.33 44.63C115.22 44.71 114.79 44.31 114.49 44.19C114.24 44.08 113.95 44.05 113.68 43.98C113.68 44.25 113.56 44.61 113.69 44.76C114.29 45.48 114.98 46.13 115.59 46.85C115.66 46.93 115.49 47.26 115.37 47.43C115.26 47.57 114.92 47.65 114.93 47.74C114.94 47.97 115.04 48.33 115.2 48.4C117.77 49.5 116.94 51.82 117.08 53.74C117.13 54.39 116.66 55.06 116.52 55.74C116.47 55.95 116.69 56.22 116.79 56.46C116.53 56.56 116.25 56.76 116.01 56.72C115.79 56.68 115.59 56.39 115.44 56.18C115.27 55.93 115.16 55.64 115.03 55.37C114.95 55.69 114.87 56.02 114.8 56.34C114.75 56.6 114.69 56.86 114.68 57.12C114.61 59.79 114.39 62.46 114.55 65.11C114.7 67.32 115.28 69.51 115.53 70.96Z" fill="black"/>
<path d="M118.35 161.4C117.71 160.9 117.09 160.38 116.43 159.9C116.23 159.75 115.97 159.69 115.74 159.59C115.86 159.32 115.92 158.94 116.12 158.81C116.57 158.54 117.09 158.37 117.6 158.2C119.02 157.72 120 154.82 119.16 153.53C119.13 153.48 119.08 153.41 119.04 153.41C115.09 153.42 116.54 152.92 116.4 153.5C116.31 152.88 116.22 152.27 116.14 151.65C115.88 149.81 114.99 147.45 114.86 148C114.74 147.42 114.57 146.85 114.52 146.26C114.23 143.29 113.95 140.32 113.72 137.35C113.66 136.57 113.77 135.76 113.84 134.97C113.85 134.88 114.15 134.71 114.23 134.75C116.36 135.84 118.43 134.53 120.54 134.61C122 134.67 123.47 134.41 124.94 134.32C125.08 134.31 125.35 134.53 125.35 134.65C125.38 140.03 125.4 145.4 125.37 150.78C125.37 151.65 125.13 152.53 124.96 153.4C124.9 153.69 124.71 153.96 124.58 154.23C124.46 153.86 124.3 153.5 124.22 153.12C124.17 152.88 124.3 152.59 124.24 152.36C124.15 151.99 123.17 152.41 123.12 152.94C123.09 153.2 123.04 153.46 122.98 153.71C122.7 154.85 122.4 155.98 122.12 157.12C122.11 157.16 122.23 157.26 122.3 157.27C124.68 157.65 125.08 158.82 123.69 161.41C121.91 161.42 120.13 161.41 118.35 161.4Z" fill="white"/>
<path d="M87.1599 161.22C87.2599 159.24 88.9099 158.69 90.1299 157.58C91.4299 156.4 91.9699 154.39 92.8299 152.74C92.3499 152.54 91.8699 152.36 91.3899 152.15C91.1099 152.03 90.7899 151.91 90.5899 151.7C90.5199 151.62 89.7699 151.54 89.6299 151.92C89.5999 151.27 89.3799 150.57 89.5599 149.99C90.6599 146.45 91.7799 142.92 93.0299 139.43C93.4499 138.26 94.3399 137.27 94.8499 136.12C95.1499 135.45 95.1099 134.63 95.2099 133.88C95.2299 133.72 95.2099 133.56 95.1999 133.4C95.4299 133.41 95.6699 133.36 95.8799 133.43C98.3999 134.2 100.89 135.03 103.43 135.72C104.09 135.9 104.87 135.66 105.58 135.56C105.83 135.52 106.51 135.83 106.46 136.11C106.24 137.42 106.36 139.02 105.64 139.99C103.15 143.37 102.98 147.47 101.63 151.19C101.55 151.41 101.59 152.24 101.01 152.31C100.31 152.39 98.3899 153.1 97.4499 153.19C96.7499 153.25 95.8699 153.74 95.4999 154.32C94.7799 155.45 94.3599 156.77 93.7899 158C93.7199 158.15 93.5099 158.24 93.3699 158.36C93.3499 158.19 92.9999 160.24 93.1999 161.28C93.0799 161.28 92.9599 161.28 92.8399 161.28C91.3199 162.66 89.8099 160.79 89.8099 161.26C88.9399 161.23 88.0499 161.23 87.1599 161.22Z" fill="white"/>
<path d="M92.8598 161.25C91.8498 161.24 90.8398 161.24 89.8298 161.23L92.8598 161.25Z" fill="black"/>
<path d="M105.2 129.09C102.88 128.88 100.56 128.71 98.2498 128.42C97.5998 128.34 96.9998 127.89 96.3898 127.61C90.9898 125.13 85.4898 122.82 80.2198 120.1C76.8498 118.36 73.7998 116 70.5998 113.93C70.2998 113.74 69.9798 113.59 69.6798 113.4C69.2198 113.12 68.7798 112.82 68.3198 112.53C68.8298 112.16 75.6498 103.3 75.4498 103.27C75.3298 103.25 75.2298 103.07 75.1198 102.96C75.5798 102.54 77.8698 100.07 77.6398 100.08C77.8598 99.8599 78.0698 99.6399 78.3098 99.4299C79.5498 98.3499 80.8098 97.2899 82.0298 96.1999C82.5898 95.6999 83.0898 95.1199 83.6398 94.5999C83.7498 94.4999 89.1098 90.9699 90.2398 90.2299C91.7198 89.2499 93.3198 88.4499 94.8698 87.5899C95.1398 87.4399 95.4698 87.3799 95.7698 87.2799C95.6198 87.5399 99.6698 86.1799 100.76 85.5999C100.78 85.5899 100.82 85.6099 100.85 85.5999C101.29 85.3699 101.74 85.1299 102.18 84.8899C101.68 85.3999 101.01 85.8299 100.7 86.4299C99.4098 88.9799 98.0398 91.5099 97.0498 94.1799C95.2498 99.0299 93.6598 103.96 92.1198 108.9C92.0298 109.18 92.9898 110.77 92.7198 110.77C92.7498 111 92.6998 111.26 92.8098 111.44C94.7298 114.64 96.5898 117.88 98.6398 121C99.2198 121.87 100.27 122.54 101.25 123.02C102.85 123.8 104.59 124.3 106.22 125.01C106.67 125.2 109.1 127.53 109.03 127.59C107.37 128.92 107.26 128.99 105.2 129.09Z" fill="white"/>
<path d="M132.44 125.19C132.59 124.91 128.7 126.49 126.96 127.5C126.8 127.6 126.59 127.62 126.4 127.68C126.48 127.52 126.54 127.32 126.66 127.19C129.9 123.74 133.57 120.59 136.24 116.75C138.05 114.15 138.65 110.62 139.45 107.42C140.04 105.05 140.3 102.55 140.28 100.1C140.27 98.34 139.76 96.51 139.11 94.85C138.25 92.63 137.05 90.54 135.95 88.41C135.77 88.07 135.41 87.77 135.07 87.58C133.51 86.69 132.53 85.55 132.71 83.58C132.74 83.26 131.79 82.85 131.3 82.47C131.17 82.37 131.05 82.25 130.92 82.14C131.08 82.13 131.26 82.07 131.39 82.12C136.21 83.96 141.04 85.77 145.81 87.71C146.42 87.96 146.65 89.04 147.22 89.53C147.86 90.08 148.7 90.4 149.46 90.8C150.82 91.5 152.19 92.19 153.56 92.87C155.52 93.86 157.51 94.79 159.43 95.84C160.96 96.67 162.43 97.61 163.87 98.59C164 98.68 163.86 99.62 163.62 99.75C156.58 103.69 152.81 111.11 146.49 115.78C142.15 118.99 137.63 121.94 133.18 125C133.04 125.11 132.8 125.11 132.44 125.19Z" fill="white"/>
<path d="M154.16 155.38C154.33 157.91 151.86 159.98 149.92 159.44C149.78 159.4 148.69 156.7 147.27 156.12C147.06 156.03 146.47 154.03 146.33 154.14C146.33 153.95 146.26 153.67 146.35 153.57C148.5 151.46 145.64 150.68 145.21 149.26C144.15 149.64 143.1 150.08 142.01 150.36C141.63 150.46 140.9 150.27 140.75 149.99C139.12 146.97 137.64 143.88 135.99 140.88C135.22 139.48 134.05 138.29 133.3 136.88C132.95 136.22 133.17 135.26 133.16 134.43C133.16 134.4 133.44 134.33 133.58 134.35C133.9 134.4 134.43 133.71 134.49 133.3C134.53 133.01 134.71 132.71 134.91 132.48C135.1 132.26 135.41 132.15 135.66 131.97C137.41 130.71 139.06 129.26 140.97 128.31C141.47 128.06 143.06 129.15 143.61 129.98C145.1 132.23 146.35 134.64 147.59 137.04C147.97 137.79 148.88 139.05 148.95 138.84C149.22 139.07 149.61 139.25 149.74 139.54C150.78 141.89 151.71 144.25 149.31 146.38C148.95 146.7 148.47 146.92 148.16 147.28C147.98 147.49 147.88 147.96 147.98 148.2C148.29 148.9 148.72 149.54 149.11 150.21C149.12 149.8 150.77 150.61 151.25 151.48C151.75 152.39 153.4 153.59 153.36 153.28C153.57 153.58 153.87 153.85 153.97 154.18C154.12 154.72 154.15 155.29 154.16 155.38Z" fill="white"/>
<path d="M143.63 59.3099C144.09 58.6399 144.59 57.9999 145 57.2999C145.28 56.8199 145.58 56.2799 145.62 55.7499C145.72 54.3899 145.7 53.0199 145.67 51.6599C145.64 50.6199 145.09 48.9499 145.51 48.6699C146.59 47.9599 148.08 47.5899 149.4 47.6099C150.38 47.6199 152.19 48.4499 152.19 48.9199C152.19 50.9799 152.31 53.0399 150.39 54.8399C149.03 56.1199 148.55 58.3799 147.87 60.2699C147.78 60.5199 148.88 61.1199 149.29 61.6599C149.68 62.1599 150.25 62.9099 150.12 63.3599C148.89 67.6199 147.55 71.8399 146.19 76.0499C145.99 76.6699 145.53 77.2099 145.17 77.7699C145.11 77.8599 144.82 77.9099 144.81 77.8999C144.71 77.6999 143.96 77.6299 144.1 77.9399C143.79 77.9399 143.46 77.9899 143.17 77.9199C141.29 77.4699 139.42 76.9899 137.55 76.5099C135.44 75.9699 134.65 73.7299 135.42 71.2499C136.46 67.8999 137.39 64.5099 138.23 61.0999C138.63 59.4899 139.33 59.0499 140.82 59.7699C140.98 59.8399 141.32 59.5199 141.58 59.3899C142.02 59.1699 142.46 58.9499 142.9 58.7299C143.14 58.9199 143.39 59.1099 143.63 59.3099Z" fill="white"/>
<path d="M105.37 74.65C105.26 74.69 104.86 74.9 104.44 75.04C103.11 75.49 101.74 75.82 100.47 76.39C99.9598 76.62 97.2298 76.77 96.3598 76.2C96.2798 76.15 96.1398 76.06 96.1498 76C96.2198 74.94 96.5898 73.81 96.3498 72.83C95.5998 69.8 94.6898 66.81 93.7098 63.84C93.3798 62.85 93.8898 61.29 93.5798 61.17C93.3398 61.07 93.1298 60.92 92.8998 60.79C93.0798 60.67 93.2698 60.43 93.4498 60.44C96.9498 60.5 94.7898 58.32 94.7698 57.03C94.7598 56.69 94.1898 56.3 94.2598 56.04C94.4898 55.24 93.9898 50.85 93.2598 50.83C91.8598 50.79 91.1498 50.19 90.8198 48.55C90.3998 46.44 90.6598 45.22 92.8798 44.78C93.0798 44.74 93.2298 44.49 93.4098 44.34C93.9198 43.92 95.9998 43.08 96.0698 43.14C97.8998 43.47 97.7498 45.32 98.4298 46.11C98.2198 46.28 98.0298 48.45 97.5698 49.32C96.7898 50.8 96.8998 51.94 97.4998 53.36C98.1898 54.98 98.6998 56.69 99.1498 58.4C99.6298 60.21 100.75 59.43 101.79 59.2C102.41 59.07 103.05 59.05 103.68 58.98C103.69 59.49 103.67 60 103.72 60.51C103.77 60.96 103.88 61.41 104.02 61.84C105.14 65.18 106.38 68.49 107.38 71.87C108.08 74.16 107.64 74.7 105.37 74.65Z" fill="white"/>
<path d="M115.53 70.96C115.28 69.51 114.69 67.33 114.56 65.11C114.4 62.46 114.62 59.78 114.69 57.12C114.7 56.86 114.75 56.6 114.81 56.34C114.88 56.01 114.96 55.69 115.04 55.37C115.17 55.64 116.48 55.95 116.53 55.74C116.68 55.06 117.14 54.39 117.09 53.74C116.96 51.82 117.78 49.5 115.21 48.4C115.05 48.33 114.95 47.97 114.94 47.74C114.93 47.65 114.75 46.87 114.68 46.8C114.07 46.09 114.3 45.48 113.7 44.76C113.57 44.61 113.69 44.25 113.69 43.98C113.96 44.05 113.81 43.13 114.06 43.24C114.36 43.37 114.81 43.14 114.48 43.18C114.69 42.95 114.92 42.72 115.12 42.47C117.34 39.76 119.69 41.43 122.01 42.27C122.54 42.46 123.13 42.61 123.52 42.96C123.81 43.22 123.82 43.8 123.96 44.23C123.69 44.18 123.61 46.57 123.35 46.59C123.12 46.61 121.69 47.6 121.59 47.78C121.34 48.21 120.82 48.47 120.52 48.88C120.25 49.25 119.95 49.73 119.96 50.15C119.99 51.06 120.28 51.96 120.35 52.87C120.43 53.87 120.19 54.91 121.84 54.81C122.37 54.78 122.94 55.49 123.49 55.86C123.63 55.95 123.79 56.07 123.95 56.09C124.35 56.15 124.75 56.16 125.15 56.19C124.75 56.54 125.42 56.85 124.99 57.16C124.74 57.35 124.67 58.22 125.05 58.63C125.34 58.95 125.02 59.48 125.04 59.84C125.19 62.62 125.2 65.4 125.34 68.17C125.39 69.1 124.76 70.56 126.68 70.46C126.77 70.46 126.87 70.65 126.97 70.75C126.52 71.1 126.11 71.55 125.6 71.78C123.57 72.7 121.52 73.58 119.45 74.39C118.97 74.58 118.36 74.46 117.81 74.48C118.13 74.3 117.31 73.61 116.58 73.9C116.48 73.94 116.3 74.03 116.29 74.02C116 73.45 115.7 72.88 115.44 72.3C115.38 72.12 115.46 71.92 115.53 70.96Z" fill="white"/>
<path d="M123.02 107.55C123.21 107.7 123.41 107.85 123.7 108.08C123 108.02 122.36 108.11 122 107.44C122.33 107.48 122.68 107.52 123.02 107.55Z" fill="black"/>
<path d="M123.5 95.85L123.55 95.89L123.5 95.91V95.85Z" fill="white"/>
<path d="M117.356 89.6077L100.775 106.189L117.356 122.771L133.938 106.189L117.356 89.6077Z" stroke="white" stroke-width="2" stroke-miterlimit="10" stroke-linecap="round" stroke-linejoin="round"/>
<path d="M109.981 98.5849V114.105H125.501V98.5849H109.981Z" stroke="white" stroke-width="2" stroke-miterlimit="10" stroke-linecap="round" stroke-linejoin="round"/>
</g>
</g>
<defs>
<clipPath id="clip0">
<rect width="230.3" height="359.25" fill="white"/>
</clipPath>
</defs>
</svg>
