<svg width="377" height="453" viewBox="0 0 377 453" fill="none" xmlns="http://www.w3.org/2000/svg">
<g clip-path="url(#clip0)">
<path d="M254.01 311.58C257.8 308.67 261.59 299.55 265.38 296.64C264.76 301.66 264.15 312.9 263.53 317.92C260.35 315.81 257.18 313.69 254.01 311.58Z" fill="black"/>
<path d="M259.29 433.97C257.14 433.8 253.67 422.89 252.48 410.73C255.74 414.52 260.79 423.04 264.05 426.83C262.94 428.98 261.83 431.13 260.71 433.28C260.22 433.78 259.75 434.01 259.29 433.97Z" fill="black"/>
<path d="M292.39 392.15C295.99 390.39 299.6 388.64 303.2 386.88C302.86 388.42 302.12 390.7 300.43 392.98C296.79 397.87 291.43 399.07 289.9 399.35C290.72 396.96 291.56 394.56 292.39 392.15Z" fill="black"/>
<path d="M22.33 163.15C22.16 169.91 21.13 179.83 17 191C12.08 204.3 4.9 213.59 0 219C3.63 219.21 8.77 219.89 14.5 222C29.01 227.35 36.95 238.1 43 246.5C53.91 261.67 58.19 277.11 60 287.5C64.9 283.36 72.73 277.68 83.5 273.5C92.5 270.01 107.51 264.19 124.5 269.5C136.67 273.31 144.65 281.2 149 286.5C149.76 280.58 151.37 273.9 154.5 267C167.76 237.81 198.07 227.45 206 225C200.02 223.63 191.87 222.61 182.5 224C156.14 227.9 140.81 247.74 137 253C134.62 248.12 129.79 240.22 120.75 234.77C117.59 232.86 113.06 230.13 107 230C99.69 229.83 94.46 233.56 88 238C73.91 247.67 64.5 254.18 59 258C61.03 250.46 63.34 242.61 66 234.5C69.4 224.14 72.99 214.42 76.66 205.38C75.54 199.8 73.23 198.15 72.01 197.57C66.86 195.1 59.28 201.02 51.54 207.06C46.72 210.82 43.07 214.43 40.56 217.11C40.07 213.28 39.33 207.76 38.33 201.11C35.95 185.43 34.93 182.3 34.05 180.09C32.39 175.87 29.15 169.63 22.33 163.15Z" fill="black"/>
<path d="M1.33008 154C11.1901 153 17.9001 155.61 21.3301 157.33C36.7801 165.11 45.3901 185.31 42.6601 208C50.0701 201.09 57.0701 197.04 61.9901 194.67C69.8901 190.87 73.0501 191.08 75.3201 192C79.4701 193.69 81.3101 198.06 81.9901 200C83.3201 197.33 84.6601 194.67 85.9901 192C81.7801 188.86 75.0201 182.91 69.9901 173.33C66.9301 167.51 65.4301 162.09 64.6601 158C61.1501 155.2 55.9601 150.44 51.3301 143.33C48.2101 138.54 40.1801 124.73 41.3301 106C41.6201 101.23 42.6801 93.51 46.6601 84.67C45.8701 85.35 42.0601 88.44 36.6601 88C29.0801 87.38 25.5101 80.37 25.3301 80C26.9001 84.9 28.6801 92.27 28.6601 101.33C28.6501 106.31 28.4901 117.85 21.9901 130.66C15.5501 143.39 6.25008 150.68 1.33008 154Z" fill="black"/>
<path d="M166 28.67C163.67 27.29 160.4 24.99 157.33 21.34C153.27 16.5 151.48 11.6 150.66 8.67004C148.49 10.82 145.32 13.86 141.33 17.34C136.93 21.16 130.09 27.12 124 30.67C121.03 32.4 114.82 35.56 95.3298 37.34C85.1398 38.27 71.0298 38.85 53.9998 37.34C55.4398 39.34 57.3898 42.48 58.6698 46.67C60.1798 51.63 60.3898 56.85 58.6698 66C56.6798 76.56 54.5798 79.33 51.3398 90.67C48.3998 100.97 46.7198 106.81 46.6698 113.34C46.6198 119.36 47.9098 131.08 59.3398 145.34C57.2898 140.57 54.7398 132.8 55.3398 123.34C56.5598 104.25 69.7698 91.76 78.6698 83.34C94.5798 68.3 112.3 62.08 123.34 59.34C125.77 56.41 128.22 53.3 130.67 50.01C134.94 44.28 138.7 38.69 142 33.34C143.47 34.45 146.5 36.4 150.67 36.67C159.78 37.26 165.59 29.25 166 28.67Z" fill="black"/>
<path d="M69.3301 242.67C72.7301 238.94 78.1801 233.76 86.0001 229.34C92.7201 225.54 100.09 221.37 108.67 222.01C124.76 223.2 134.18 240.48 135.34 242.68C138.22 238.62 142.92 232.99 150.01 228.01C165.66 217.02 182.24 216.81 192.01 216.68C234.08 216.13 272.97 245.93 280.68 252.01C277.17 242.44 276.48 234.21 276.68 228.01C278.03 186.34 322.25 161.73 326.68 159.34C320.93 157.98 312.98 155.36 304.68 150.01C289.93 140.49 282.52 127.78 279.35 121.34C278.36 125.09 276.61 130.33 273.35 136.01C262.82 154.34 245.45 161.77 240.02 164.01C221.52 171.62 218.19 164.09 192.69 169.34C183.81 171.17 184.23 172.08 143.36 188.67C112.85 201.06 110.25 201.51 103.36 206C86.0701 217.25 75.5601 231.87 69.3301 242.67Z" fill="black"/>
<path d="M210 42.67C217.91 43.21 226.64 43.14 236 42C277.96 36.92 307.5 13.58 322 0C320.75 7.93 319.55 18.36 319.33 30.67C319.05 46.22 318.99 54.17 322.66 63.34C324.72 68.49 329.68 78.31 341.99 87.34C333.73 85.46 323.06 82.2 311.32 84.67C284.54 90.31 260.86 102.38 248.05 109.09C254.37 103.13 259.49 94.48 266.35 86.18C273.07 78.06 281.82 70.82 286.42 63.63C280.66 59.88 264.6 51.47 245.31 52.67C237.05 53.18 230.24 55.29 225.31 57.34C223.12 56.06 220.58 54.32 217.98 52.01C214.32 48.72 211.74 45.36 210 42.67Z" fill="black"/>
<path d="M118 66C111.72 68.3 102.38 72.46 92.6698 80C84.6398 86.23 73.1998 95.1 67.3398 111.33C65.4198 116.65 61.4998 129.95 65.3398 144.66C65.9698 147.06 66.6998 149.13 72.0098 160.66C76.8998 171.29 81.0698 179.98 84.0098 185.99C85.3198 180.15 86.4898 172.14 86.0098 162.66C85.7398 157.29 84.8498 149.55 82.0098 140.66C79.2898 132.16 75.7098 125.45 72.6798 120.66C73.8198 119.23 75.9698 116.96 79.3498 115.33C84.8098 112.7 89.9198 113.47 91.7398 113.84C88.1398 110.06 84.5498 106.27 80.9498 102.49C83.7398 99.92 86.5398 97.32 89.3498 94.66C99.4498 85.09 108.99 75.51 118 66Z" fill="black"/>
<path d="M78.6699 214C84.2599 199.87 91.4999 190.03 96.6699 184C96.6699 184 118.52 158.56 152 152C158.36 150.75 164 150.7 169.33 153.33C174.23 155.75 177.14 159.58 178.66 162C180.42 158.05 183.5 152.11 188.66 146C201.75 130.49 217.33 126.79 241.99 116.67C252.41 112.39 267.45 105.73 285.32 96C284.42 97.87 282.33 102.89 283.32 109.33C284.14 114.68 286.68 118.34 287.99 120C283.55 117.33 279.1 114.67 274.66 112C274.8 115.32 274.61 120.37 272.66 126C268.74 137.3 260.22 143.67 252.66 149.33C245.82 154.45 241.23 157.88 233.99 160C220.69 163.89 214.16 158.74 195.99 162.67C193.33 163.24 191.1 163.87 184.66 166C170.59 170.67 156.44 175.36 137.99 183.33C114.63 193.44 94.4999 204.44 78.6699 214Z" fill="black"/>
<path d="M292.67 92.67C300.85 90.2 310.53 86.89 316.67 88.19C314.56 90.46 310.5 96.26 308.67 99.34C298.49 116.47 302.18 135.44 304 142.67C300.44 139.82 294.87 137.31 290.98 133.01C288.71 130.5 284.72 123.08 282.98 120.73C284.62 121.32 286.27 121.91 287.91 122.5C289.55 123.09 291.2 123.68 292.84 124.27C290.47 120.36 287.66 115.26 286.7 111.06C286.11 108.51 286.14 99.92 288 94.67C289.06 94.12 290.63 93.28 292.67 92.67Z" fill="black"/>
<path d="M93.4 116.08C90.78 116.03 88.57 116.31 86.89 116.64C86.03 116.81 84.08 117.22 81.68 118.13C79.81 118.84 78.24 119.63 77 120.34C77.49 121.17 78.21 122.43 79 124.01C80.94 127.89 81.64 130.06 83.33 134.01C85.43 138.9 88.79 146.34 89.86 152.92C91.03 160.1 90.84 172.39 87.66 187.34C89.72 184.55 93.14 180.26 97.99 175.67C107.77 166.43 116.25 162.71 133.32 153.34C142.88 148.09 150.44 143.94 155.99 140.34C166.65 133.42 180.69 121.47 193.66 99.67C189.25 101.84 182.79 105.05 174.99 109C159.46 116.87 151.6 120.88 146.66 124C140.04 128.18 129.85 134.72 119.33 146C112.49 153.34 107.74 160.28 104.66 165.33C104.78 161.89 104.86 157.08 104.66 151.33C104.32 141.59 104.2 136.62 102.66 131.66C101.52 127.98 99.09 122.21 93.4 116.08Z" fill="black"/>
<path d="M227 59.0001C230.02 58.2201 234.24 57.3501 239.33 57.0001C247.93 56.4101 254.42 56.25 261.28 57.6C266.45 58.61 273.28 61.6801 281.05 64.5401C279.07 66.6601 275.76 70.2201 271.66 74.6601C260.2 87.1001 257.11 90.0801 251.12 98.3301C247.87 102.81 243.25 109.57 242.03 111.79C210.15 122.65 191.73 132.22 178.66 152.99C176.96 151.32 174.22 149.09 170.33 147.66C161.04 144.24 152.61 148.05 150.66 148.99C154.22 146.86 159.11 143.76 164.66 139.66C172.26 134.04 180.79 127.63 188.99 117.33C192.46 112.98 196.93 106.58 200.99 98C205.11 96.66 211.12 94.64 218.32 92C233.69 86.36 237.11 84.6301 239.32 83.3301C243.57 80.8201 249.48 76.6401 255.49 69.6401C250.94 68.4101 246.03 66.87 240.84 64.92C235.78 63.03 231.16 61.0101 227 59.0001Z" fill="black"/>
<path d="M242.5 252C236.41 257.24 236.5 266.04 236.54 270.46C236.56 272.49 236.8 279.93 241.6 289C244.46 294.42 250.85 300.69 263.5 312.99C268.6 317.95 272.04 321.12 276.53 326.79C276.53 326.79 280.69 332.04 284 337.49C291.16 349.27 309.32 414.67 269.84 442.41C239.58 463.67 199.19 446.15 196.5 444.94C222.94 448.77 248.11 439.93 260.56 421.34C270.34 406.74 269.6 390.15 269.41 386.07C268.68 369.65 261.5 357.8 253.8 345.08C244.15 329.15 242.2 332.66 230.77 314.24C219.68 296.38 215.26 283.01 213 274C211.76 269.07 211.03 264.88 210.58 261.89C209.13 262.5 207.05 263.3 204.5 264C202.41 264.58 196.15 266.68 185.5 265.5C179.43 264.83 171.38 263.56 162 261C165.33 257.57 168.99 254.05 173 250.5C179.91 244.39 186.69 239.28 193 235C195.91 232.92 199.74 230.56 204.5 228.5C209.42 226.37 213.91 225.19 217.5 224.5C225.95 226.8 235.55 229.99 245.83 234.5C257.6 239.66 267.55 245.35 275.66 250.67C270.79 248.71 262.79 246.44 253.49 248C249.31 248.71 245.73 249.22 242.5 252Z" fill="black"/>
<path d="M364.47 305.39C354.81 308.28 349.31 301.39 336 299.07C331.27 298.25 317.66 296.62 304.83 304.07C293.06 310.91 287.22 322.32 284.67 328.5C286.84 330.67 290.16 334.53 292.72 340.31C295.13 345.75 295.88 350.66 296.13 353.78C297.41 347.66 299.9 341.31 305.05 338.06C311.55 333.95 316.7 338.31 323.79 334.01C330.93 329.68 328.54 323.55 335.13 318.76C344.02 312.29 352.52 320.45 362.85 315.33C367.1 313.22 372.42 308.48 376.31 296.65C373.92 299.73 370.05 303.72 364.47 305.39Z" fill="black"/>
<path d="M209.68 48.91C205.7 43.9 205.12 39.58 205 35.16C204.8 27.73 206.8 21.54 208 17.83C208.88 15.11 209.8 12.9 210.5 11.33C198.62 17.75 189.44 23.5 183.33 27.5C168.95 36.92 160.61 43.84 150.66 41.67C147.34 40.95 144.85 39.43 143.33 38.34C142.07 41.51 140.03 46.08 136.83 51.17C134.01 55.65 131.46 58.69 123.16 67.5C111.52 79.87 105.53 86.19 97.4902 93.17C93.0502 97.02 89.2202 100.07 86.4902 102.17C94.4802 108.21 98.7002 114.74 100.82 118.67C105.58 127.51 106.53 135.84 107.32 142.84C107.96 148.47 107.95 153.2 107.82 156.51C116.94 143.67 126.16 134.73 132.82 129.01C136.81 125.58 155.83 109.62 184.82 99.18C190.4 97.17 198.33 94.65 210.32 90.85C223.16 86.77 231.52 84.3 241.15 77.85C245.33 75.05 248.48 72.35 250.48 70.52C247.7 70.68 221.02 63.21 209.68 48.91ZM173.31 73.57C174.29 80.04 174.3 81.69 180.15 84.27C178.86 85.25 172.87 84.23 171.64 83.71C172.04 84.68 171.43 90.66 169.51 94.17C168 96.92 165.16 97.94 162.18 99C157.18 100.79 152.67 100.6 152.68 100.83C152.69 100.99 154.77 100.81 157.51 101.33C159.35 101.68 160.83 102.23 161.84 102.66C160.71 103.84 156.11 108.37 149.01 108.66C138.32 108.1 134.98 102.04 134.34 100.83C134.21 101.06 134.08 101.3 133.96 101.54C131.75 105.73 131.03 109.77 129.59 114.6C128.9 111.02 128.35 106.72 128.27 101.82C128.2 97.42 128.53 93.49 129.01 90.15C124.64 93.79 119.44 97.65 113.34 101.37C109.41 103.76 105.62 105.79 102.06 107.51C107.93 99.42 114.76 90.85 122.69 82.1C134.96 68.56 147.2 57.53 158.34 48.66C157.83 50.3 157.27 51.97 156.67 53.66C154.46 59.9 151.95 65.56 149.34 70.66C154.48 64.63 161.34 57.8 170.27 51.41C174.06 48.7 177.76 46.4 181.27 44.44C180.5 47.1 179.83 49.21 179.41 50.49C176.94 58.06 172.12 65.7 173.31 73.57Z" fill="black"/>
<path d="M166 67.5C165.79 69.33 165.68 72.23 166.53 75.62C167.47 79.36 169.17 82.05 170.31 83.58C169.15 83.76 160.82 75.86 146.18 85.19C148.19 83.27 150.26 81.33 152.37 79.4C156.97 75.2 161.52 71.24 166 67.5Z" fill="black"/>
<path d="M105.59 104.59C107.65 102.27 110.94 98.59 115.08 94.12C122.42 86.2 127.07 81.58 141.17 67.19C143.95 64.35 148.2 60.01 153.45 54.63C152.11 58.49 150.8 62.49 149.54 66.63C148.96 68.56 147.51 72.7 146.98 74.58C148.86 73.14 152.78 68.57 156.51 65.65C161.76 61.56 163.84 59.88 168.09 56.58C170.38 54.8 173.83 52.14 178.14 48.91C176.9 50.52 175.3 52.9 173.95 56.03C172.05 60.42 171.61 64.08 171.3 66.77C170.77 71.38 170.49 73.83 171.58 76.82C172.86 80.32 175.27 82.53 176.74 83.66C175.47 83.31 173.8 82.64 172.27 81.29C168.72 78.13 168.34 73.32 168.08 69.99C167.95 68.3 167.94 66.11 168.36 63.57C166.54 64.44 142.86 83.97 139.48 87.99C137.81 89.98 134.91 93.49 132.64 98.87C130.62 103.68 130.18 105.01 129.94 107.89C129.56 104.72 130.1 98.57 130.78 93.94C132.08 85.04 134.87 83.57 137.38 79.89C132.17 84.07 107.58 103.63 105.59 104.59Z" fill="black"/>
<path d="M153.99 91.87C153.17 92.34 151.8 93.11 151.74 94.04C151.64 95.49 154.7 97.4 157.61 97.58C161.29 97.8 166.16 95.01 168.55 91.63C173.78 84.23 161.64 82.68 160.26 82.46C152.72 81.24 146.17 86.93 144.73 88.17C140.46 91.87 139.06 94.66 138.62 95.97C138.18 97.28 137.72 98.7 138.14 100.31C139.18 104.34 144.71 105.83 146.02 106.18C152.62 107.96 158.48 103.94 160.18 102.88C158.99 103.1 157.21 104.01 155.03 104.09C150.83 104.23 143.37 103.61 143.29 97.57C143.21 91.91 150.08 87.69 154.55 86.23C156.61 85.56 159.65 84.57 161.87 86.23C163.21 87.23 164.05 89.04 163.8 90.73C163.28 94.33 158.19 95.19 157.93 95.23C156.3 95.48 153.73 95.34 153.43 94.26C153.18 93.39 154.46 92 156.57 90.96C155.95 91.07 155 91.29 153.99 91.87Z" fill="black"/>
<path d="M8.5599 390.35C11.2299 390.35 13.2099 391.99 13.2099 394.91C13.2099 397.58 11.5699 399.04 9.5099 399.47C11.2299 402.31 14.6699 403.34 18.3799 403.34C26.2099 403.34 29.6599 396.97 29.6599 388.28V330.14C29.6599 327.21 28.9699 326.61 26.6499 326.61H23.6399C22.5199 326.61 22.3499 326.44 22.3499 325.32V323.34C22.3499 322.22 22.6899 321.96 23.6399 321.96H41.8899C42.9199 321.96 43.1799 322.22 43.1799 323.34V325.32C43.1799 326.44 42.9199 326.61 41.8899 326.61H38.7899C36.4699 326.61 35.8599 327.13 35.8599 330.14V388.88C35.8599 400.24 30.6099 407.99 19.2499 407.99C7.7199 407.99 3.7599 401.79 3.7599 394.99C3.7399 392.16 5.8899 390.35 8.5599 390.35Z" fill="black"/>
<path d="M63.2999 358.98V375.94C63.2999 378.95 64.1599 379.47 66.6599 379.47H70.0199C71.2299 379.47 71.3999 379.73 71.3999 380.59V382.83C71.3999 383.69 71.1399 384.12 70.0199 384.12H50.6499C49.4399 384.12 49.1899 383.86 49.1899 382.91V380.67C49.1899 379.72 49.4499 379.46 50.6499 379.46H53.8399C56.3399 379.46 57.1099 378.86 57.1099 375.93V329.54C57.1099 327.56 56.5099 326.79 54.6999 326.7H50.6499C49.8799 326.7 49.1899 326.7 49.1899 325.41V323.26C49.1899 322.23 49.4499 321.97 50.7399 321.97H70.6199C86.1999 321.97 94.3799 327.48 94.3799 340.22C94.3799 350.55 88.9599 356.06 80.9499 358.12C85.6799 360.36 88.0899 365.35 93.2599 376.37C94.7199 379.56 95.4099 380.33 97.9899 380.33C99.3699 380.33 99.9699 380.07 101.09 379.81C101.69 379.64 102.04 379.81 102.04 380.5V382.65C102.04 383.51 101.87 384.03 100.66 384.46C99.6299 384.89 97.8199 385.06 96.2699 385.06C91.4499 385.06 89.1299 382.39 87.0599 378C84.0499 371.37 80.4299 358.98 70.4499 358.98H63.2999V358.98ZM71.9099 354.59C82.3299 354.59 87.7499 350.29 87.7499 340.47C87.7499 330.57 82.2399 326.61 71.2199 326.61H63.2999V354.58H71.9099V354.59Z" fill="black"/>
<path d="M126.48 337.29C141.11 337.29 146.88 347.71 146.88 361.22C146.88 374.65 141.11 385.23 126.48 385.23C111.85 385.23 106.17 374.64 106.17 361.22C106.16 347.71 111.85 337.29 126.48 337.29ZM112.45 361.22C112.45 372.58 116.24 380.59 126.48 380.59C136.81 380.59 140.6 372.59 140.6 361.22C140.6 349.86 136.81 341.94 126.48 341.94C116.24 341.94 112.45 349.86 112.45 361.22Z" fill="black"/>
<path d="M183.37 352.18C181.13 352.18 179.5 350.72 179.5 348.22C179.5 346.67 180.19 345.38 181.22 344.6C179.33 342.97 176.23 341.67 171.67 341.67C164.27 341.67 161.86 345.11 161.86 348.99C161.86 362.24 187.94 354.15 187.94 371.71C187.94 380.75 181.4 385.22 170.98 385.22C161.43 385.22 154.2 381.43 154.2 374.37C154.2 371.87 155.84 370.07 158.25 370.07C160.49 370.07 162.12 371.62 162.12 374.12C162.12 375.67 161.43 376.87 160.31 377.65C162.72 379.89 166.51 380.84 170.73 380.84C177.79 380.84 182.26 378.17 182.26 372.4C182.26 359.49 156.18 367.58 156.18 349.59C156.18 341.76 161.17 337.28 171.59 337.28C182.09 337.28 187.34 341.41 187.34 348.04C187.33 350.37 185.61 352.18 183.37 352.18Z" fill="black"/>
<path d="M232.01 351.15C232.01 359.59 226.59 365.09 214.62 365.09C210.23 365.09 205.58 364.23 201.71 362.85C201.97 375.33 207.22 379.98 217.03 379.98C222.02 379.98 225.64 378.77 228.22 377.66C229.94 376.89 230.97 376.28 231.49 376.28C232.09 376.28 232.26 376.45 232.26 377.23V379.47C232.26 380.59 232.09 381.02 230.63 381.79C227.96 383.17 222.88 384.8 216.51 384.8C201.53 384.8 195.42 375.76 195.42 361.65C195.42 346.93 202.22 337.29 215.3 337.29C226.24 337.29 232.01 342.46 232.01 351.15ZM201.79 358.38C205.84 359.76 210.4 360.53 214.19 360.53C222.28 360.53 226.41 357.26 226.41 351.06C226.41 345.03 222.54 341.94 215.31 341.94C207.39 341.94 202.65 347.62 201.79 358.38Z" fill="black"/>
</g>
<defs>
<clipPath id="clip0">
<rect width="376.3" height="452.88" fill="white"/>
</clipPath>
</defs>
</svg>
