<svg width="112" height="30" viewBox="0 0 112 30" fill="none" xmlns="http://www.w3.org/2000/svg">
<g clip-path="url(#clip0)">
<path d="M111.1 26.1C111.1 28.3 109.3 30 107.2 30H85.7C83.5 30 81.8 28.2 81.8 26.1V4.59995C81.8 2.39995 83.6 0.699951 85.7 0.699951H107.2C109.4 0.699951 111.1 2.49995 111.1 4.59995V26.1V26.1Z" fill="#DD7B98"/>
<path d="M99.4001 8.59998H93.1001C91.2001 8.59998 89.6001 10.2 89.6001 12.2V18.3C89.6001 20.3 91.2001 21.9 93.1001 21.9H99.4001C101.3 21.9 102.9 20.3 102.9 18.3V12.2C102.9 10.2 101.3 8.59998 99.4001 8.59998ZM101.7 18.3C101.7 19.7 100.6 20.8 99.3001 20.8H93.2001C91.9001 20.8 90.8001 19.7 90.8001 18.3V12.3C90.8001 10.9 91.9001 9.79998 93.2001 9.79998H99.3001C100.6 9.79998 101.7 10.9 101.7 12.3V18.3Z" fill="black"/>
<path d="M96.2001 11.9C94.4001 11.9 92.9001 13.4 92.9001 15.3C92.9001 17.2 94.4001 18.7 96.2001 18.7C98.0001 18.7 99.5001 17.2 99.5001 15.3C99.6001 13.4 98.1001 11.9 96.2001 11.9ZM96.2001 17.5C95.0001 17.5 94.0001 16.5 94.0001 15.3C94.0001 14.1 95.0001 13.1 96.2001 13.1C97.4001 13.1 98.4001 14.1 98.4001 15.3C98.4001 16.5 97.4001 17.5 96.2001 17.5Z" fill="black"/>
<path d="M99.7001 12.5C100.142 12.5 100.5 12.1419 100.5 11.7C100.5 11.2582 100.142 10.9 99.7001 10.9C99.2583 10.9 98.9001 11.2582 98.9001 11.7C98.9001 12.1419 99.2583 12.5 99.7001 12.5Z" fill="black"/>
<path d="M29.4 25.4C29.4 27.6 27.6 29.3 25.5 29.3H3.9C1.7 29.3 0 27.5 0 25.4V3.9C0 1.8 1.8 0 3.9 0H25.4C27.6 0 29.3 1.8 29.3 3.9V25.4H29.4Z" fill="#DD7B98"/>
<path d="M70.4 25.4C70.4 27.6 68.6 29.3 66.5 29.3H44.9C42.7 29.3 41 27.5 41 25.4V3.9C41 1.8 42.8 0 44.9 0H66.4C68.6 0 70.3 1.8 70.3 3.9V25.4H70.4Z" fill="#DD7B98"/>
<path d="M62.7 9.60005C62.1 9.90005 61.4999 10.2 60.7999 10.3C60.2999 9.70005 59.5 9.30005 58.7 9.30005C57.1 9.30005 55.7999 10.7 55.7999 12.3C55.7999 12.5 55.8 12.8 55.9 13C53.5 12.9 51.2999 11.7 49.7999 9.80005C49.4999 10.2 49.4 10.8 49.4 11.3C49.4 12.3 49.9 13.3 50.7 13.8C50.2 13.8 49.8 13.6 49.4 13.4C49.4 14.9 50.3999 16.1 51.7999 16.4C51.5999 16.5 51.3 16.5 51 16.5C50.8 16.5 50.6 16.5 50.4 16.4C50.8 17.6 51.8999 18.5 53.0999 18.5C52.0999 19.3 50.8 19.8 49.4 19.8C49.2 19.8 48.9 19.8 48.7 19.8C50 20.7 51.6 21.2 53.2 21.2C58.6 21.2 61.5999 16.6 61.5999 12.6C61.5999 12.5 61.5999 12.3 61.5999 12.2C62.1999 11.8 62.6999 11.2 63.0999 10.6C62.5999 10.8 62 11 61.4 11.1C62 10.9 62.5 10.3 62.7 9.60005Z" fill="black"/>
<path d="M17.3 15.0999H11.2V12.2999H17.8L17.3 15.0999Z" fill="black"/>
<path d="M12.7001 10.4C12.7001 10.8 12.7001 21.6 12.7001 21.6H15.5001C15.5001 21.6 15.5001 11.1 15.5001 10.9C15.5001 10.6 15.7001 10.4 16.0001 10.4C16.6001 10.4 17.3001 10.4 17.9001 10.4C17.9001 10.1 17.9001 8.69998 17.9001 7.59998C17.1001 7.59998 16.2001 7.59998 15.8001 7.59998C12.6001 7.59998 12.7001 9.99998 12.7001 10.4Z" fill="black"/>
</g>
<defs>
<clipPath id="clip0">
<rect width="111.1" height="30" fill="white"/>
</clipPath>
</defs>
</svg>
