<svg xmlns="http://www.w3.org/2000/svg" viewBox="0 0 397.6 434.99"><defs><style>.cls-1{fill:#aa3a24;}.cls-2{fill:#010101;}.cls-11,.cls-3{fill:#722716;}.cls-4{fill:#e2c1a3;}.cls-15,.cls-5{fill:#f2b7a9;}.cls-11,.cls-12,.cls-13,.cls-16,.cls-18,.cls-5{stroke:#010101;stroke-miterlimit:10;}.cls-12,.cls-16,.cls-18,.cls-5{stroke-width:0.89px;}.cls-6{fill:#dab38d;}.cls-7{fill:#8e6a29;}.cls-8{fill:#6a5120;}.cls-9{fill:#4a3915;}.cls-10{fill:#fff;}.cls-11,.cls-13{stroke-width:1.78px;}.cls-12{fill:#e24d29;}.cls-13,.cls-16{fill:none;}.cls-14{fill:#705622;}.cls-17{fill:#725722;}.cls-18{fill:#f9efd2;}</style></defs><title>Asset 3</title><g id="Layer_2" data-name="Layer 2"><g id="Layer_1-2" data-name="Layer 1"><path class="cls-1" d="M230.46,432.93,360.27,8,2.86,309.35Z"/><path class="cls-2" d="M229.62,430.88c.76-5.82,1.65-11.25,2.55-16.6S234,403.8,235,398.71c1.95-10.12,4-19.81,6.24-29.15s4.54-18.37,7-27.13l7.59-26.09c10.23-34.62,20.85-68.68,32.31-102.46l8.65-25.39,8.85-25.41,18-51.18c6-17.18,12.06-34.43,18-51.81,5.79-17.43,12.39-34.72,16.45-52.79l3.56,2.35c-15.33,12-30,24.9-44.53,37.84S288,73.29,273.46,86.32s-29,26-43.5,39.07l-43.45,39.12c-14.52,13-29,26-43.64,38.91s-29.27,25.73-44,38.44-29.57,25.36-44.44,37.95A218.2,218.2,0,0,1,31,297.39c-4.13,2.65-8.37,5.18-12.79,7.5l-3.34,1.7c-1.14.53-2.26,1.1-3.42,1.6a70.55,70.55,0,0,1-7.15,2.86l-.37-3.65q56.52,30.69,112.86,61.52ZM231.3,435,116.54,373.36Q59.11,342.45,1.8,311.3l-1.8-1,1.42-2.68a73.62,73.62,0,0,1,4-6.56C6.14,300,6.89,299,7.61,298l2.24-3c3-4,6.23-7.72,9.55-11.34a216.86,216.86,0,0,1,21.28-20.09q22.37-18.8,44.91-37.4t45.31-36.92c15.18-12.22,30.46-24.32,45.72-36.44l45.9-36.23q23-18.09,45.85-36.28C283.66,68.19,298.83,56,314,43.76s30.37-24.42,44.82-37.51L365.74,0,362.4,8.6c-6.76,17.35-11,35.47-16,53.46s-9.62,36.2-14.44,54.43l-14.45,55.07-7.37,27.71L302.56,227c-10.17,37.05-21.18,73.82-32.59,110l-8.63,27q-4.38,13.43-9.19,26t-10,24c-1.75,3.76-3.49,7.48-5.3,11S233.25,432,231.3,435Z"/><path class="cls-1" d="M237.13,126.82c-47.88,46.51-95.24,91.35-142.41,137.78L237.13,127.25Z"/><path class="cls-2" d="M237.1,126.9l-8.76,8.64-8.87,8.64L201.7,161.44l-35.58,34.47q-35.61,34.44-70.9,69.19l-1-1,35.48-34.46,35.6-34.35,35.79-34.14,18-17,18-16.94,0,.07A1.71,1.71,0,0,1,237.1,126.9Zm.07-.16a2.63,2.63,0,0,1,.06.5v.05l0,0-17.58,17.39L202,162l-35.42,34.53-35.61,34.33L95.21,265.11l-1-1q35.4-34.66,71.28-68.82Z"/><path class="cls-1" d="M288.77,88.93c-13.72,14.84-27.91,29.52-41.41,44.82l-.18.22c.06.06.11.13.17.2l41.42-45.23Z"/><path class="cls-2" d="M288.71,89.05c-.85,1-1.58,1.93-2.4,2.82l-2.56,2.85-5.14,5.69-10.29,11.37-10.26,11.37c-3.38,3.8-6.8,7.68-10.06,11.49l-.05-1.41.21.25-1.6,0L256.73,122c3.41-3.81,6.83-7.61,10.35-11.31,7-7.42,14.14-14.77,21.59-21.81l0,.07A.14.14,0,0,0,288.71,89.05Zm.12-.24a.15.15,0,0,1,.07.15l0,.05,0,0c-6.36,8-13.05,15.77-19.82,23.42-3.38,3.84-6.87,7.58-10.36,11.3l-10.54,11.14-.84.89-.76-.92-.14-.16-.63-.76.58-.64c3.48-3.87,6.92-7.57,10.43-11.31l10.57-11.12,10.67-11,5.34-5.5L286,91.6C286.94,90.62,287.94,89.69,288.83,88.81Z"/><path class="cls-1" d="M351,17.47q3.33-3.19,6.64-6.41Z"/><path class="cls-2" d="M351,17.41a39.79,39.79,0,0,0,3.27-3.59c.95-1.16,1.83-2.24,2.82-3.27l1,1a9.21,9.21,0,0,1-2.93,2.7A24.34,24.34,0,0,0,351,17.41Zm-.13.12a26.74,26.74,0,0,0,2.5-3.28,15.74,15.74,0,0,1,3.72-3.7l1,1c-1.23,1.11-2.57,2.17-3.83,3.14A38.19,38.19,0,0,0,350.89,17.53Z"/><path class="cls-1" d="M244.88,295c-7.3,16.17-12.64,32.17-18.86,48.18-3.56,8.89-8,17.78-11.12,27.11"/><path class="cls-2" d="M245,295c-2.61,6.23-5,12.54-7.26,18.9S233.23,326.64,231,333l-3.36,9.59q-1.77,4.8-3.92,9.4c-2.87,6.13-5.85,12.13-8.69,18.29l-.25-.09a119.6,119.6,0,0,1,6.49-19.27l3.91-9.29c1.3-3.1,2.57-6.24,3.82-9.37,2.48-6.28,4.93-12.58,7.49-18.84s5.33-12.44,8.27-18.53Z"/><path class="cls-1" d="M313,120.56c7.73-19.36,15.3-38.69,22.55-58.3l-23.16,58.19A4.1,4.1,0,0,1,313,120.56Z"/><path class="cls-2" d="M312.92,120.48,334.85,62l1.32.51-5.63,14.61-2.85,7.29-2.93,7.26-6,14.46c-2.05,4.8-4.12,9.59-6.27,14.35l-.1-.16Zm.08.16-.67-.07-.14,0,.05-.15c1.7-4.94,3.5-9.84,5.31-14.73L323.1,91,326,83.74l2.94-7.26L334.86,62l1.32.51Z"/><path class="cls-1" d="M332.27,75.11c-.55,1.49-1.09,3-1.65,4.49l1.75-4.38Z"/><path class="cls-2" d="M332.28,75.2c-.23.88-.42,1.71-.55,2.49s-.27,1.47-.44,2.15L330,79.33a10.12,10.12,0,0,1,.69-2.25,6.34,6.34,0,0,1,1.54-1.93l0,.19A.12.12,0,0,0,332.28,75.2Zm0-.18a.51.51,0,0,1,.25.08h0l0,.18a6.37,6.37,0,0,1-.2,2.45,11,11,0,0,1-1.05,2.12L330,79.35c.38-.82.79-1.61,1.2-2.33S331.94,75.64,332.25,75Z"/><path class="cls-1" d="M304.27,145.8l-54,135.54c12.17-28,21.95-55.56,33.51-83.12,7-17.57,14.05-34.86,21-52.09A3.72,3.72,0,0,1,304.27,145.8Z"/><path class="cls-2" d="M304.3,145.92l-53,135.82-2-.82c4.74-11.17,9.22-22.45,13.58-33.78l6.58-17,6.74-16.94,14.07-33.63,7.09-16.78c2.42-5.58,4.79-11.17,7.24-16.73l.07.19C304.57,146.16,304.44,146.05,304.3,145.92Zm-.07-.25a6.09,6.09,0,0,1,.62.32l.11.07,0,.12c-2.09,5.71-4.25,11.39-6.37,17.08l-6.51,17c-2.15,5.68-4.41,11.32-6.61,17s-4.52,11.27-6.72,16.92l-6.64,17-6.71,17c-4.52,11.28-9.16,22.53-14.08,33.66l-2-.82Z"/><path class="cls-1" d="M206.46,223.11c-7.43,11.14-14.86,21.43-22.29,32l60.64-84.91C232.4,187.36,220,204.37,206.46,223.11Z"/><path class="cls-2" d="M206.53,223.16c-3.7,5.35-7.45,10.66-11.1,16.05l-11,16.13-.51-.37,7.47-10.68,7.53-10.66L214,212.33l30.09-42.61,1.5,1.08c-3.22,4.38-6.39,8.8-9.64,13.16s-6.48,8.75-9.79,13.08l-9.85,13Zm-.15-.1,9.44-13.33,9.32-13.4c3.09-4.48,6.25-8.91,9.39-13.36s6.36-8.84,9.54-13.26l1.5,1.08L215,213.08l-15.27,21.15-7.63,10.57-7.69,10.54-.51-.36,11.29-15.92C199,233.76,202.66,228.39,206.38,223.06Z"/><path class="cls-1" d="M283.93,118.15,312,78.84l-.12-.15c-9.44,13.19-18.71,25.83-28.4,39.28A3.38,3.38,0,0,1,283.93,118.15Z"/><path class="cls-2" d="M283.92,118.11l27.8-39.47v.42l-.13-.16h.58l-7,9.87-7.1,9.82-7.2,9.75q-3.63,4.86-7.31,9.67l0-.09Zm0,.08-.48-.16-.07,0,0-.06q3.42-5,6.89-10l7-9.9,7.11-9.81,7.17-9.77.28-.39.3.39.1.14.16.21-.15.21Z"/><path class="cls-1" d="M296.85,83l31.57-36.56c0-.05-.07-.1-.1-.16-10.62,12.26-21,24-31.9,36.5Z"/><path class="cls-2" d="M296.84,83l31.31-36.74,0,.42-.11-.17.58.05-7.92,9.18-8,9.13-8.08,9q-4,4.5-8.17,9l0-.09Zm0,.09-.45-.2-.07,0,.05,0q3.86-4.68,7.78-9.3L312,64.25l8-9.12,8-9.07.32-.36.26.42.09.14.14.23-.17.19Z"/><path class="cls-1" d="M174.45,269.34c3.24-4.86,6.48-9.55,9.72-14.18L110.44,358.4C132.66,328.91,152.22,300.46,174.45,269.34Z"/><path class="cls-2" d="M174.34,269.27l9.72-14.19.22.16-18.14,26-9.07,13-9.13,13L111.42,359.1l-1.94-1.43q8.14-11,16.14-22.13l16.1-22.18c5.4-7.37,10.91-14.67,16.36-22S169,276.67,174.34,269.27Zm.22.15c-5.27,7.47-10.41,15-15.49,22.63s-10.14,15.22-15.33,22.75-10.52,15-15.88,22.36-10.89,14.71-16.46,22l-1.94-1.42,37.21-51.37,9.3-12.85,9.37-12.8,18.72-25.6.23.16Z"/><path class="cls-1" d="M286.36,111.28c-1.36,2.25-2.49,4.06-3.63,5.89l3.91-5.47C286.54,111.56,286.44,111.42,286.36,111.28Z"/><path class="cls-2" d="M286.36,111.37c-.6,1.12-1.13,2.19-1.61,3.24s-.94,2-1.43,2.93l-1.16-.78a27.91,27.91,0,0,1,1.78-2.86,13.92,13.92,0,0,1,2.47-2.37v.34A1.39,1.39,0,0,0,286.36,111.37Zm0-.18a2.21,2.21,0,0,1,.51.34l.08.07-.08.26a13.54,13.54,0,0,1-1.45,3.1,27.9,27.9,0,0,1-2.12,2.62l-1.17-.78c.72-1,1.48-2,2.2-3S285.74,112,286.36,111.19Z"/><path class="cls-1" d="M282.73,117.17l-37.92,53.08c11.15-15.35,22.36-30.78,34.55-47.61C280.62,120.55,281.68,118.85,282.73,117.17Z"/><path class="cls-2" d="M282.68,117.24c-6.38,9-12.68,18-18.83,26.91s-12.27,17.71-18.46,26.52l-1.15-.83c2.77-4.05,5.61-8.05,8.47-12s5.77-7.93,8.65-11.89,5.86-7.86,8.79-11.79,5.93-7.81,8.93-11.69v0c.56-.85,1.14-1.67,1.76-2.51S282.08,118.19,282.68,117.24Zm.1-.14c-.53.87-1,1.78-1.51,2.76s-1.06,2-1.61,3h0v0q-4.12,6.09-8.33,12.13c-2.84,4-5.62,8-8.49,12s-5.7,8-8.62,11.91-5.82,7.89-8.81,11.78l-1.15-.83c6.45-8.89,13-17.78,19.45-26.57S276.52,125.84,282.78,117.1Z"/><line class="cls-1" x1="153.56" y1="390.7" x2="187.79" y2="331.13"/><path class="cls-2" d="M153.44,390.64l8.1-15.16,8.21-15.09c2.75-5,5.3-10.16,8.32-15s6.11-9.69,9.6-14.29l.23.13c-2.21,5.33-4.82,10.44-7.51,15.49s-5.84,9.85-8.79,14.76l-8.91,14.69-9,14.63Z"/><line class="cls-1" x1="60.65" y1="341.8" x2="117.99" y2="279.57"/><path class="cls-2" d="M60.55,341.71l13.94-15.92L88.54,310c4.69-5.26,9.21-10.68,14.14-15.74s9.9-10.05,15.22-14.74l.19.18c-4.24,5.68-8.8,11.06-13.45,16.37S95,306.3,90.11,311.41L75.47,326.7,60.75,341.89Z"/><line class="cls-1" x1="41.09" y1="295.13" x2="92.21" y2="248"/><path class="cls-2" d="M41,295l12.42-12.17,12.51-12.08c4.18-4,8.2-8.19,12.6-12s8.83-7.51,13.59-10.89l.18.19c-3.76,4.47-7.83,8.61-12,12.67s-8.62,7.74-13,11.58L54.32,283.84,41.18,295.22Z"/><line class="cls-1" x1="348.24" y1="21.38" x2="333.62" y2="39.87"/><path class="cls-2" d="M348.28,21.4q-3.51,4.76-7.07,9.44c-1.18,1.57-2.32,3.18-3.58,4.68s-2.56,3-4,4.38l-.07-.06c1-1.7,2.18-3.28,3.34-4.87s2.47-3.06,3.72-4.57q3.75-4.54,7.56-9Z"/><line class="cls-1" x1="347.89" y1="30.7" x2="337.53" y2="51.88"/><path class="cls-2" d="M347.93,30.72q-2.42,5.39-4.9,10.73c-.82,1.78-1.59,3.59-2.51,5.33s-1.86,3.47-2.95,5.12l-.08,0c.64-1.87,1.44-3.67,2.23-5.47s1.76-3.51,2.67-5.25q2.7-5.25,5.46-10.46Z"/><path class="cls-3" d="M127.92,209.18c-2.19,3.4-15.67,25-7.7,49.2,6.24,19,21.89,28.09,29.63,32.6,15,8.71,31.52,9.17,64.61,10.07,26.91.74,34.46-2,40.3-6.52,10.07-7.75,13.5-19.45,14.82-26.08Z"/><path class="cls-4" d="M185.49,105.42q-5,16.33-10,32.66a30.3,30.3,0,0,0-13.31,5c-1.65,1.14-3.21,3.3-3.65,3s1.14-2.76,2.13-7.24c.43-1.9.93-5.06.33-5.27-.37-.12-1,.85-1.62,1.74-1.56,2.32-1.88,4-2.17,4-.67-.1.49-9.37-.51-9.59s-4,10.22-5,10,.89-9.83-.39-10.17c-.73-.19-1.67,2.85-4.81,8.06-3.42,5.66-4.62,5.89-6,9.53-1.27,3.48-.34,3.71-1.52,8.3-1.82,7.07-4.92,10-3.64,11.56s5.09-.93,7.67,1.19c1.33,1.09,1.6,2.81,1.78,4.24.81,6.31,1.21,9.47.61,14.22-1.62,12.81,6.37,25,9.51,29.76a54.15,54.15,0,0,0,10,11.31,14.69,14.69,0,0,0,1.68,3.59,17.79,17.79,0,0,0,5.5,5.06c8.76,5.11,27.18,4.87,27.18,4.87,7-.09,16-.47,26.42-1.59a13.69,13.69,0,0,1,2.47-4.71c3.76-4.64,9.42-5.19,10.75-5.29a27.29,27.29,0,0,0,3,13.29c4.26,8.07,11.61,11.48,15.78,13.34,9.39,4.19,17.09,3.84,29.91,3.63,8.53-.14,21.8-.26,38.87,0l6.86,3.29,2.32,3.35a16.59,16.59,0,0,1,4.71-.81c2,0,2.82.3,3.68-.21s1.72-1.8,1.53-5.56l8.11,1,2.95.37-13.07-6.8a4.29,4.29,0,0,0-.07-3.4c-1.42-2.71-6.78-3.06-9.72-1-1.75,1.24-1.27,2.36-2.78,3.51-2.73,2.08-6.8.3-12.34-1.06-7.91-1.94-7.48-.25-13.33-1.87-6-1.68-5.62-3.23-19.4-11.09-6.62-3.77-8.86-4.63-11.28-7.85a21.82,21.82,0,0,1-4.06-10.67,6.94,6.94,0,0,0,2.62-3.48,5.87,5.87,0,0,0,.27-3c-.52-2.63-3.1-3.06-5.1-5.56-1.14-1.42-1.5-3.32-2.23-7.11-.59-3-.65-4.86-1-11.38-.41-8.68-.48-9.23.12-9.72,3.44-2.84,13.7,8.74,19.06,5.77,1.49-.82,2.66-2.79,2.67-16.89,0-16.62-1.6-21.05.8-28.78.36-1.15,1.69-5.24,6.54-12.12s14.41-18.33,32.31-28.84q.51-6.21,1-12.43c-4.21,1.9-10.05,4.62-16.92,8.06-16.69,8.34-17.33,9.85-42.18,23.87-15,8.48-20.2,11-25.11,18.23a43,43,0,0,0-6.45,15.56l-18.24-2.11-6.83-5.86a9.86,9.86,0,0,0,.42-5.82c-1.48-5.81-9.23-10.12-19.28-10q.81-11.11,1.63-22.23l-4.28,8.25,0-8.93q-2.06,4.72-4.1,9.46Z"/><path class="cls-5" d="M122.4,172.43a17,17,0,0,1-4.55-8.59c-.8-4.43.67-7.85,3.26-13.63a56.28,56.28,0,0,1,10.37-16.3c2.4-2.61,5.63-5.11,12-10,10.22-7.85,10.49-7.26,15.93-11.78a107.16,107.16,0,0,0,15.78-16,64.73,64.73,0,0,0,8.45-13A58.79,58.79,0,0,0,188.08,70a20.65,20.65,0,0,1,1,4.07A23.93,23.93,0,0,1,187,86.78a41.66,41.66,0,0,1-2.52,4.67A96.93,96.93,0,0,1,178,101a99.15,99.15,0,0,1-7.93,9.63c-3.42,3.58-6.25,5.85-11.93,10.37-7.27,5.8-7.53,5.38-10.89,8.52a63,63,0,0,0-9.85,11.71,47.28,47.28,0,0,0-6.6,14.74,16.63,16.63,0,0,0-.44,7.19,15.54,15.54,0,0,0,2.74,6.37Z"/><path class="cls-6" d="M175.12,139.09a51.48,51.48,0,0,1,36.94,6.26,8.22,8.22,0,0,0,.67-4c-.64-6.26-9.29-9.84-12.13-11a30.88,30.88,0,0,0-7.32-2q.71-10,1.4-20.08a27.87,27.87,0,0,0-2.89,4.45q-.43.84-.78,1.65c-.07-2.74-.15-5.48-.22-8.23a49.73,49.73,0,0,0-3.11,6.12c-.37.87-.71,1.72-1,2.55a12.87,12.87,0,0,0-1.34-10.22,50.24,50.24,0,0,1-3.55,14.22c-1.43,3.42-2.59,5-4,8.89A48.42,48.42,0,0,0,175.12,139.09Z"/><path class="cls-6" d="M245.36,172.88c.54.77,1,1.38,1.33,1.77-1.92,1.56-10.35,4.23-14.89,5.12-9.46,1.84-21.74-2.68-26-13.12-3.7-9,7.21-19,8.22-20.67,17.92,12.4,25.59,17.23,27.57,20.23A43.85,43.85,0,0,0,245.36,172.88Z"/><path class="cls-6" d="M176.56,148.2c.38-.34,11.71,6.79,14.23,11.56,5.47,10.4-2.51,23.49-3.11,24.45-3.4,5.4-13.66,7.83-17.12,9.78,1.19-2.66,3.82-6,5-8.67a33.45,33.45,0,0,0,3.56-4.66c1.16-1.84,7.88-12.49,4.44-22.23C181.9,153.73,176.22,148.51,176.56,148.2Z"/><path class="cls-6" d="M243.21,210.22c-2.34,5.74-10.8,6.32-14.3,8.33-26.88,15.5-68.5-5.74-79.8-17.11-3,2.2,14.79,31.22,16.89,30.78a28.88,28.88,0,0,0,10.23,6.23c3.59,1.22,6.05,1.21,12.22,1.55,13.08.72,11.57,1.3,17.79,1.34a102.11,102.11,0,0,0,19.33-1.78,9.36,9.36,0,0,1,2-4.45c.46-.54,1.45-1.57,4.45-2.89A30.45,30.45,0,0,1,239.8,230a62.24,62.24,0,0,0,1.78-6.22A71.1,71.1,0,0,0,243.21,210.22Z"/><path class="cls-6" d="M273.88,126.64c10.05-9.08,23.8-8.45,28.6-8a51.82,51.82,0,0,0-9.93,13.49,54.83,54.83,0,0,0-5.63,23.71c-.39,11.21-3.11,29.71-12.89,62.08l-3.41,2.37c-.65-1.35-1.51-3.27-2.37-5.63a57.39,57.39,0,0,1-3.41-14.22c-.49-5.76.63-8.57,1.19-13.34,1.24-10.68-2.25-14.73-3.26-24.15C262.47,160.2,260.47,138.77,273.88,126.64Z"/><path class="cls-6" d="M158.22,145.32,156,150.87c8.28-3.44,12.15-.93,14.19-1.67,6.42-2.3,11-3.12,16.76-5.5,2.34-.95,12.88-.93,17.23-2.27-11-3.56-24.93-3.12-30.32-2.12A46.36,46.36,0,0,0,158.22,145.32Z"/><path class="cls-7" d="M239,229.6a17.19,17.19,0,0,0-8.22,2.9,9.88,9.88,0,0,0-3.81,4.28c-1.05,2.73.06,5.39,2.32,10.19,6,12.75,7,12.9,7.26,16.15.33,4.91-2,5.42-1.63,11.71.16,2.94.42,7.49,3.26,10.07,4.09,3.72,11.52,1.54,15.56.3,8.1-2.49,11.63-5.83,27.5-18.48,2.2-1.76,16-12.75,25.4-22.12a47.5,47.5,0,0,0,7-8.6,45.76,45.76,0,0,0,4.14-8.32,44.84,44.84,0,0,1-12.29,1.65c-15.33-.07-26.43-8-30.81-11.61a35.12,35.12,0,0,1-3.27,2.43C260.55,227.26,245.22,228.93,239,229.6Z"/><path class="cls-8" d="M165.56,232.15a63.07,63.07,0,0,0,17.67,7.52c8.57,2.16,15.54,1.92,24.41,1.63a149.86,149.86,0,0,0,18.13-1.7c1.47,4.23,3.43,9.71,5.88,16.11a64.19,64.19,0,0,1,2.81,8,35.83,35.83,0,0,1-.51,18c-2.11.36-5.38.83-9.4,1.11-26.86,1.84-47.83-8-56.67-12.22a130.22,130.22,0,0,1-23.36-14.49,73.46,73.46,0,0,0,7.41-6.22A74.7,74.7,0,0,0,165.56,232.15Z"/><path class="cls-9" d="M173.27,237.45a7.43,7.43,0,0,0-5.34.14,7.33,7.33,0,0,0-3.26,3.86c-1.27,2.92-4.58,5.53-13.2,13.82.69.89.17.87,1.78,2.11a19.13,19.13,0,0,0,3.11,1.92c13.13,6.5,35.12,11.71,35.12,11.71,5,1.18,8.21,1.86,14.22,3.11,6.94,1.45,8.81,1.74,10.23,1.93,5.54.74,8.59-.69,12.53-.89a12.89,12.89,0,0,1,0-3.89c.33-3.48-.13-4.4-.09-6.67.05-3,.07-5-1.69-8.44a72.37,72.37,0,0,1-4.15-9.19,18.55,18.55,0,0,0-3.31-5.74c-1.32-1.33-5.91-1.26-7.43-1.15,2.81-.64,10.8.12,13.61-.52a79.08,79.08,0,0,1,4.75,10.37,80.41,80.41,0,0,1,3.11,10.52,54.63,54.63,0,0,1,1.33,8,42.88,42.88,0,0,1-1,13.19,66,66,0,0,1-10.07,1.63c-3.08.25-10.46.64-25.49-2.81-11.72-2.7-8.32-3.18-33-11.27-5.93-1.93-12.87-4.11-17.93-10.66a25.49,25.49,0,0,1-2.82-4.6,23.39,23.39,0,0,0,10.08-7.85c2.47-3.52,3.62-7.59,8.3-11.12a36.53,36.53,0,0,1,3-2.29C167.71,233.66,171.19,236.46,173.27,237.45Z"/><path class="cls-6" d="M338.32,202.82c2.92-2.31,5.26-2.72,6.83-2.68,1.78.05,2.18.65,6.52,1.93a38.54,38.54,0,0,0,6.38,1.48,27.48,27.48,0,0,0,7.16,0,84.53,84.53,0,0,0-8.17,7.66c-.43.48-1.7,1.89-3.54,3.76-1.31,1.35-2.41,2.42-3.15,3.13a35.8,35.8,0,0,0-6.92-2.32,36.18,36.18,0,0,0-12.14-.62,16,16,0,0,0,7-12.3Z"/><path class="cls-10" d="M118.73,221a13.54,13.54,0,0,1-18.69.23c-3.77-5.33-8.89-12.65-14.94-21.5-8.43-12.33-9.94-14.88-10.23-19.11-.18-2.67,0-7.07-.66-15.34a31.49,31.49,0,0,0-.67-5.33c-1.82-5.8-6-6.15-10.23-12.9-1.49-2.36-3.33-5.37-3-9.26.08-1.13.34-4.46,3-6.37a7.73,7.73,0,0,1,5.48-1.19c4.27.48,6.77,3.89,7.34,4.67,1.28,1.75,1.29,2.73,2.67,7.19,1.75,5.69,2.63,8.53,3.85,10.22,1.54,2.15,4.14,3.8,9.33,7.12,4,2.57,4.11,2.06,6.23,3.7a32.2,32.2,0,0,1,7.33,8.23c2,3.08,1.82,3.75,3.86,6.81a37.76,37.76,0,0,0,5.36,6.45q1.17,8.21,2.47,16.52,1.44,9.39,3,18.57Z"/><path class="cls-10" d="M240.73,164.78l-4.64,5.87a11.68,11.68,0,0,1-4.44,1.49c-5.09.59-9-2.51-11.26-4.3-2.46-2-4.5-3.56-4.89-6.22-.32-2.15.59-3.87,2.22-6.82a32.27,32.27,0,0,1,5.48-7.26,69.2,69.2,0,0,0,8.74-12.45c3.33-6.07,3.34-8.32,6.67-11.11,1.28-1.07,4.16-2.64,9.93-5.78a27.08,27.08,0,0,0,5.93-4.15,28.58,28.58,0,0,0,2.37-2.52,35.66,35.66,0,0,0,4.74-7.26,10,10,0,0,1,5-3.41,5.17,5.17,0,0,1,3.85,0c1.87,1,2.23,3.46,2.37,4.45.62,4.25-2.06,7.74-2.89,8.81a15.26,15.26,0,0,1-3.55,3.34,8.57,8.57,0,0,0-1.93,2.07,8.8,8.8,0,0,0-1,1.93c-2.12,1.39-5.16,3.49-8.67,6.22-7,5.46-10.53,8.19-13.56,12.82-2.2,3.36-5.84,8.92-4.67,15.78A17.87,17.87,0,0,0,240.73,164.78Z"/><path class="cls-10" d="M376.49,87.64a6,6,0,0,0-2.44,2.55,6.31,6.31,0,0,0-.44,4c.23,1.3.6,1.25.77,2.45.22,1.47-.29,1.92-.44,3.78a7.3,7.3,0,0,0,.44,4,5.42,5.42,0,0,0,3.45,2.89,5.49,5.49,0,0,0,4.56-1c.13-.1,1.17-.9,1-1.34s-1.21,0-2.34-.44a3.76,3.76,0,0,1-2.11-2.78,7.3,7.3,0,0,1,.78-3.45c.36-1,.54-1.15.44-1.55-.22-.94-1.44-.89-2.55-2A5.5,5.5,0,0,1,376.27,92,7.86,7.86,0,0,1,376.49,87.64Z"/><path class="cls-10" d="M372.94,65.19c.54.18,1.25-.61,2.11-1.56a6.84,6.84,0,0,0,2.22-4.33,8.64,8.64,0,0,0-.78-2.89,14.1,14.1,0,0,0-2.22-4c-.74-.94-1-1-1.22-1-.64.09-1,1.48-1,2.55a5.55,5.55,0,0,0,.67,2.22c.5,1,.8,1.1.89,1.67.12.89-.53,1.38-1,2.34C371.62,62.18,372.09,64.89,372.94,65.19Z"/><path class="cls-10" d="M381.83,64c.18.42,1.07.39,2.33.34a13.28,13.28,0,0,0,3.34-.56,6,6,0,0,0,2.11-.89c.61-.45,1.81-1.6,1.44-2.44-.27-.64-1.31-.76-1.55-.78a2.82,2.82,0,0,1-1.11,1.67c-.55.35-1,.27-2.89.44a5.61,5.61,0,0,0-2.34.45C382.37,62.63,381.63,63.5,381.83,64Z"/><path class="cls-10" d="M352.05,155.76c-2,.71-4.95.65-6.12-1.11a4.56,4.56,0,0,1-.33-3.33,6,6,0,0,1,2.11-3.89,4.61,4.61,0,0,1,6,0c.34.26,2.32,1.77,2.22,4C355.81,154.34,352.28,155.68,352.05,155.76Z"/><path class="cls-10" d="M336.38,153.76c-1.16-.35-2.32.77-2.56,1a3.36,3.36,0,0,0-1.11,3,2.84,2.84,0,0,0,1.55,1.89,2.54,2.54,0,0,0,1.67.11,3.08,3.08,0,0,0,1.89-2.22C338.18,156.13,337.67,154.15,336.38,153.76Z"/><path class="cls-10" d="M336.49,168.88c-1.13,0-1.79,1.31-2,2a2.81,2.81,0,0,0,.22,2.33,2.48,2.48,0,0,0,2,1.22,2.34,2.34,0,0,0,1.67-.78,3,3,0,0,0,.11-3.33C338.37,170.12,337.64,168.83,336.49,168.88Z"/><path class="cls-10" d="M273.32,286.61c.81-2.11,2.73-4.46,3.66-4.09s1.2,2.81-1.42,13.73A9.32,9.32,0,0,1,273.32,286.61Z"/><path class="cls-10" d="M98.88,219.11c.82,3.68,6.26,5.11,7.11,5.33,6.81,1.8,16.16-1.83,17.34-8.66.72-4.2-1.71-9.2-5.51-10.86C110,201.48,97.47,212.81,98.88,219.11Z"/><path class="cls-2" d="M120.29,221c-2,1.39-8.82,6.43-14.22,5.19-2-.46-4.25-1.54-9.86-8.15-3.73-4.4-6.39-8.24-12.37-17.64-7-11-7.69-12.53-8.3-14.22-1.68-4.66-3.61-10-2.82-16.52.28-2.28.75-3.57.37-5.93-.18-1.15-.78-3.93-5.11-9.41-3.59-4.55-4.06-3.76-5.78-6.45-1.05-1.64-4.33-10.23-1.11-15,2-2.92,5.68-3.3,6.08-3.34,5.29-.46,9.38,4.45,11,7.71.94,1.87.39,1.81,1.78,6.22,1.74,5.57,2.61,8.35,4.89,10.67,1.13,1.16,3.27,2.41,7.55,4.89,3,1.74,3.12,1.63,4.23,2.37a33.35,33.35,0,0,1,9.33,9.78c1.71,3.09,4.82,7.12,8.6,12.67l.29,2.45c-6.13-7.38-8.7-10.88-10.3-14.45-.91-2-4.64-6.55-8.44-9-1.42-.93-1.89-.83-4.37-2.15A28.15,28.15,0,0,1,84,155.24c-3-3.16-4.07-6.82-5.49-11.48-1.19-3.95-.72-4.21-1.77-6.15-.68-1.24-4-6.83-9.19-6.67-.42,0-3.91.17-5.56,2.67-2.54,3.86,1.45,10.09,2.67,12,1.84,2.88,2.29,2.19,5.48,6.37,2.59,3.4,4.79,6.35,5.34,10.38.32,2.39-.21,3.2-.45,6-.54,6.2,1.29,11.08,3.11,15.93,1.6,4.25,3.56,7.4,7.49,13.7,4.3,6.92,6.84,11.6,12.52,18.75,4.44,5.59,6.29,6,8.81,6.67,5,1.33,10.92-2.28,13-3.78Z"/><path class="cls-11" d="M272.69,287.35a19.15,19.15,0,0,0,1.56,6.44c3.53,8,11.64,10.93,13.56,11.56,3.25-2.05,6.6-4.34,10-6.89a154.75,154.75,0,0,0,21.78-19.78l-9.11,3.11v-4.67l-3.11,1.56,4.44-11.34-10,4.23c1.14-2.8,2.27-5.59,3.41-8.38l-4.67-.07a136.34,136.34,0,0,0-12.07,8.82A112.25,112.25,0,0,0,278,281.42C275.81,283.71,274,285.76,272.69,287.35Z"/><path class="cls-11" d="M376.2,233.33l.81-5.85-4.15,1.85q1.71-6,3.41-12.07l-6.44,4.15c.34-2.2.69-4.4,1-6.6l-9.92,3c4.72-7,9.25-9.14,12.52-9.78s5.45.21,9.33-.89a20.26,20.26,0,0,0,9.49-6.23l4.07,3.71a39.66,39.66,0,0,0-5.41,7.78c-3.05,5.74-2.87,8.81-5.55,13A23.31,23.31,0,0,1,376.2,233.33Z"/><path class="cls-12" d="M282.59,277.79A15.37,15.37,0,0,0,284.92,290c4.69,6.52,13.48,7,14,7l9.67-7.45a22.15,22.15,0,0,0-15.65-21.13C289.46,271.18,286.07,275.05,282.59,277.79Z"/><path class="cls-2" d="M241.13,163.69a23.83,23.83,0,0,1-5.81,9.21c-1.83,1.59-7.51-.14-10.6-1.3-5.46-2.06-8.14-4.26-9.72-7.11a8,8,0,0,1,1-9.67c4.25-5,11.43-15.32,14-19.34,3.94-6.16,5.79-11.16,9.95-13.95,2.22-1.49,4.55-2.83,4.55-2.83,3.47-1.91,4.32-2.22,6-3.32,2.8-1.78,4.77-2.83,6.89-5.92,2.74-4,2.85-5.55,4.71-7.15s6.14-4,8.94-2.12c2.49,1.7,2.2,6.94,2.17,7.39-.34,4.54-4.4,8.6-6.22,9.9a9.46,9.46,0,0,0-2.45,2.39,15.52,15.52,0,0,0-1.26,2.83l-1.34.83a20.58,20.58,0,0,1,1.82-3.83,15.15,15.15,0,0,1,2.89-3c.94-.8,5.26-4.48,5.67-9.06.05-.54.31-4.12-1.78-5.5-2.27-1.51-6,.46-8,2.17-1.79,1.55-1.46,2.3-3.83,5.89-1.78,2.68-3.7,5.57-7.06,7.78-1.24.81-1.22.58-5.33,2.83-2.57,1.41-4.49,2.55-4.78,2.72-4.2,2.53-5.4,7.39-9.34,13.56-3.8,6-9.65,12.93-14,19.45a5.38,5.38,0,0,0-1.28,3.11,8.32,8.32,0,0,0,1.83,5.45c1.29,1.69,3,3.28,7.45,5.11a9.93,9.93,0,0,0,8.95-.67c3.28-2.11,4.64-6.79,5.16-8.89C240.59,161,240.89,163.36,241.13,163.69Z"/><path class="cls-2" d="M175.54,138.08a17.39,17.39,0,0,1,.47-4.84c.58-2.41,1.44-3.7,2.7-6.37a69.26,69.26,0,0,0,2.71-6.82c1.27-3.85,1.13-4.94,2.66-10.19.56-1.9,1.07-3.44,1.41-4.44a9.71,9.71,0,0,1,1.11,2.37,10.76,10.76,0,0,1-.07,6.44c.63-1.67,1.39-3.44,2.29-5.29.58-1.17,1.16-2.27,1.75-3.3a32.23,32.23,0,0,1,.7,6c0,.79,0,1.54,0,2.26a30.73,30.73,0,0,1,1.82-3.81,31.53,31.53,0,0,1,1.78-2.82c0,.85,0,2.18-.12,3.82-.17,3.71-.48,5.92-.88,10.07-.15,1.55-.36,3.83-.56,6.63a18.23,18.23,0,0,1,3.11.15,20.22,20.22,0,0,1,8.15,3.11,19.21,19.21,0,0,1,6.22,5.37,17.38,17.38,0,0,1,3.1,9.19l-2-1.18a13.21,13.21,0,0,0-.26-2,14.09,14.09,0,0,0-3.19-6.22,18.6,18.6,0,0,0-8.7-5.56,26.36,26.36,0,0,0-6.52-1.18,9.39,9.39,0,0,0-3.64.11,8.19,8.19,0,0,0-3.63,2.11,5.93,5.93,0,0,1,2.3-2.74,5.81,5.81,0,0,1,3.74-.85c.15-1.31.39-3.33.71-5.82.35-2.8.52-4,.77-6,.22-1.74.53-4.28.86-7.41q-.87,1.44-1.71,3.18a41.58,41.58,0,0,0-2,5c0-1.6-.08-2.9-.11-3.81,0-1.51-.06-2.27-.11-3.45s-.11-1.92-.15-2.52c-.43.9-.79,1.65-1,2.19-1,2.12-1.7,3.89-2.29,5.33-.21.5-.37.91-.48,1.19a11.71,11.71,0,0,1-.23-3.11c.06-.93.2-1.35.26-2a8,8,0,0,0-.81-4.19c-.21.61-.53,1.58-.85,2.78-.6,2.19-.76,3.47-1.23,5.82s-.71,3.57-1.14,5a44.13,44.13,0,0,1-2.75,6.63c-1.77,3.76-2.32,4.32-2.77,6.27a15.41,15.41,0,0,0-.36,4.69Z"/><path class="cls-2" d="M173.78,138.17a41.88,41.88,0,0,1,1.22-6.76c.59-2.45,1.47-3.77,2.75-6.5a69.86,69.86,0,0,0,2.76-7c1.3-3.92,1.16-5,2.72-10.39.57-1.94,1.09-3.51,1.44-4.53a29.18,29.18,0,0,1,2.15,4,11,11,0,0,1-.08,6.58c.65-1.71,1.42-3.52,2.35-5.41.58-1.19,1.18-2.31,1.77-3.36a32.54,32.54,0,0,1,.72,6.12c0,.8,0,1.57,0,2.31a32.26,32.26,0,0,1,3.67-6.77c0,.87,0,2.23-.12,3.9-.18,3.78-.5,6-.9,10.27-.16,1.57-.37,3.9-.57,6.76a18.94,18.94,0,0,1,3.17.15,20.41,20.41,0,0,1,8.31,3.18,19.46,19.46,0,0,1,6.35,5.47,17.84,17.84,0,0,1,3.16,9.37c-.68-.4-1.87.15-2.55-.26a12.44,12.44,0,0,0-.26-2,14.46,14.46,0,0,0-3.25-6.35,19,19,0,0,0-8.88-5.66,26.78,26.78,0,0,0-6.65-1.21,9.72,9.72,0,0,0-3.7.11,8.39,8.39,0,0,0-3.7,2.16,9.44,9.44,0,0,1,2.86-3.75,6.1,6.1,0,0,1,3.82-.87c.15-1.33.39-3.39.71-5.93.37-2.85.54-4,.8-6.08.22-1.77.54-4.36.87-7.56-.59,1-1.17,2.07-1.74,3.25a52.76,52.76,0,0,0-2.34,5.59c0-1.63.21-3.45.19-4.38,0-1.54-.06-2.32-.12-3.51s-.11-2-.15-2.57c-.44.91-.8,1.67-1.06,2.23-1,2.16-1.73,4-2.34,5.44-.21.5-.69,1.9-.81,2.19a11.85,11.85,0,0,1-.22-3.18c.06-.94.2-1.37.26-2a10.82,10.82,0,0,0-.51-5.24c-.22.62-.54,1.6-.87,2.83-.61,2.23-.77,3.54-1.25,5.93s-.73,3.65-1.17,5.14a45.45,45.45,0,0,1-2.79,6.76c-1.81,3.83-2.37,4.4-2.84,6.38a15.74,15.74,0,0,0-.36,4.79Z"/><path class="cls-2" d="M136.59,167a34.6,34.6,0,0,1,1.07-7.52c.21-.81.57-2.05,3.12-8.22,1.94-4.71,1.74-4,3.66-8.62s2.32-5.79,3.56-7.83a41.53,41.53,0,0,1,3.36-5.26c.25,1.51.77,3.49.92,5.2.12,1.34.19,2.62.22,3.84a28,28,0,0,1,1.22-3.56,27.3,27.3,0,0,1,3.23-5.61,18.63,18.63,0,0,1,.77,4.44,19,19,0,0,1-.27,4.45,16.42,16.42,0,0,1,2.39-3.5,16.68,16.68,0,0,1,1.77-1.73c-.09.84-.25,2.05-.5,3.51a49.09,49.09,0,0,1-2.22,9.16,38.88,38.88,0,0,1-1.89,4.39c.47-.22,1.13-.53,1.95-.83a22.81,22.81,0,0,1,7.33-1.33c2.73-.07,5.35-.13,8.39,1.22a15.15,15.15,0,0,1,6.12,4.94c2,2.81,2.31,6.26,2.55,8.1.44,3.31-.17,6-1.39,11.17-1.39,5.93-3.15,10.54-6.11,13.5-.28.28-1.47,1.47-1.72,1.28s.22-1.58,1.83-4.59a51.29,51.29,0,0,0,3.06-6.06c.37-1,.57-1.67.89-2.78a48.11,48.11,0,0,0,1.44-6.67c.45-3.4.72-5.4.17-7.89-.22-1-1.36-6.13-5.95-8.83-2.05-1.21-3.87-1.39-6.89-1.67-2.82-.27-6.16-.58-9.72,1.17a14.88,14.88,0,0,0-4.45,3.44,17.33,17.33,0,0,0-3.05,5.34c-.15.36-.26.67-.34.89a1.16,1.16,0,0,1-1.05-.12c-.37-.36-.18-1.24.5-2.66a26.32,26.32,0,0,1,3.33-5,33.58,33.58,0,0,0,3.17-5.43,38.39,38.39,0,0,0,1.87-4.63,45.88,45.88,0,0,0,2-8.23,13.43,13.43,0,0,0-1.7,2,34.09,34.09,0,0,0-2,3.62l-.89,1.68c.25-1.46.42-2.7.53-3.61a23.9,23.9,0,0,0,.32-4.22,16.63,16.63,0,0,0-.46-3.28,20.88,20.88,0,0,0-2.49,4.44c-.41,1-.68,1.95-1.2,3.69-.41,1.38-.72,2.53-.93,3.35,0-1.07-.08-2.26-.16-3.55s-.18-2.42-.3-3.8c-.09-1.08-.2-2.27-.33-3.56a21.36,21.36,0,0,0-2.34,3.58c-.17.3-1.33,2.72-2.37,5a33.49,33.49,0,0,0-1.33,3.37c-.91,2.32-.37.74-3.48,8.29-2.65,6.43-2.76,7.19-3,8.23a29.84,29.84,0,0,0-1.13,7Z"/><path class="cls-2" d="M134.5,167.29a35,35,0,0,1,1.11-7.65c.21-.82.58-2.08,3.19-8.35,2-4.79,1.8-4.07,3.77-8.76s2.38-5.89,3.66-8a46.43,46.43,0,0,1,5.33-6.22c.25,1.53.47,3.75.63,5.49.12,1.36.19,2.66.23,3.9a27.91,27.91,0,0,1,1.25-3.61,27.53,27.53,0,0,1,3.31-5.71,19.22,19.22,0,0,1,.8,4.52,19.53,19.53,0,0,1-.28,4.52A16.66,16.66,0,0,1,160,133.9a18.2,18.2,0,0,1,1.83-1.75c-.1.85-.26,2.08-.51,3.56A50.11,50.11,0,0,1,159,145a41.46,41.46,0,0,1-1.94,4.46,20.31,20.31,0,0,1,2-.85,40.1,40.1,0,0,1,9.14-1.35c2.81-.07,5.49-.13,8.62,1.24a15.41,15.41,0,0,1,6.28,5,15.71,15.71,0,0,1,2.69,7.51c.44,3.36-.18,6.07-1.43,11.35a29.17,29.17,0,0,1-7.89,13.72c-.29.28-1.51,1.49-1.77,1.3s.17-.9,1.83-4a52.46,52.46,0,0,0,3.14-6.15c.38-1,.58-1.69.91-2.83a46.76,46.76,0,0,0,1.48-6.77c.47-3.47.74-5.49.18-8-.22-1-1.4-6.23-6.11-9-2.11-1.23-4-1.41-7.08-1.7-2.9-.27-6.34-.59-10,1.19a15.24,15.24,0,0,0-4.57,3.5,17.88,17.88,0,0,0-3.14,5.42c-.15.38-.28,1.71-.36,1.93-.36.09-.85.41-1.11.17s-.13-2.57.56-4a27.24,27.24,0,0,1,3.42-5.08,33.68,33.68,0,0,0,3.26-5.51,39.19,39.19,0,0,0,1.92-4.71,46.61,46.61,0,0,0,2-8.36,13.57,13.57,0,0,0-1.75,2,32.32,32.32,0,0,0-2,3.68c-.39.73-.93,2.86-1.14,3.24.26-1.49.66-4.28.78-5.2a24.68,24.68,0,0,0,.32-4.29,16.27,16.27,0,0,0-.47-3.34,21,21,0,0,0-2.55,4.52A38,38,0,0,0,153,138c-.42,1.4-.82,4.51-1,5.34,0-1.09-.09-2.3-.17-3.62s-.18-2.45-.31-3.86c-.09-1.09-.14-4.3-.27-5.61a22.49,22.49,0,0,0-2.39,3.7c-.18.3-1.37,2.77-2.43,5.12a32.24,32.24,0,0,0-1.37,3.43c-.94,2.36-.39.75-3.58,8.43a55.21,55.21,0,0,0-3.43,9.94c-.71,3-.88,3.84-.81,5.51C136.79,166.43,134.87,167.19,134.5,167.29Z"/><path class="cls-2" d="M133.18,168.89a20.42,20.42,0,0,1-1.89-7.16,19.77,19.77,0,0,1,1.48-7.93,55.91,55.91,0,0,1,10.78-18.75,69.93,69.93,0,0,1,7-6.81c4.34-3.81,6.88-5.33,10-7.67,6-4.54,9.69-8.91,13.71-13.63a92.25,92.25,0,0,0,11.63-17c2-3.75,2.9-6.21,3.3-9.15.63-4.65,0-13.32-.78-15.67-.28,1-1.16,4.75-1.67,6.45-.78,2.63-1.67,5.62-2.26,7.29a39.63,39.63,0,0,1-5.7,10.26,77.45,77.45,0,0,1-8.37,10.67c-6.29,6.51-9.76,10.11-15.27,14.08-3,2.14-4.33,2.81-9.41,6.52-3.23,2.37-6.86,4.82-9,6.59a61.07,61.07,0,0,0-12.6,13.9,55,55,0,0,0-6,12.78c-3.22,9.56-1.89,13.57-1.22,15.15a24.36,24.36,0,0,0,1.71,3.3c.61,0,3.19.26,3.81.29a26.14,26.14,0,0,1-1.78-3.74c-.4-1.08-2-5.6.82-14.52a48.6,48.6,0,0,1,6.19-12.71,65.29,65.29,0,0,1,12-13.41c1.9-1.62,3.6-2.87,7-5.37,5-3.7,6.55-4.5,9.34-6.52,4.94-3.58,8.44-7.24,15.45-14.56,6-6.25,7.7-8.7,8.33-9.63a45.15,45.15,0,0,0,5.56-10.48c.6-1.72,1.46-4.64,2.15-7.26.28-1.07.49-2,.64-2.6a23.32,23.32,0,0,1,.15,8.87,24.19,24.19,0,0,1-3.28,8.92,100,100,0,0,1-12.11,17.15,103.07,103.07,0,0,1-14.37,13.55c-3.61,2.77-5.8,4-10.12,7.76a70.35,70.35,0,0,0-7.94,7.83c-2.28,2.67-8,9.86-10.56,19.09a23.17,23.17,0,0,0-1,7.92c.15,2.51,2.32,5.44,2.8,6.82Z"/><path class="cls-2" d="M166.42,232.32a3,3,0,0,1,2.21.4c.54.37,1.08.72,1.63,1.06a33.6,33.6,0,0,0,3.39,1.82,27,27,0,0,0,7.24,2.11c2.47.32,5.23.55,7.84.81s5.28.53,7.91.72a143.07,143.07,0,0,0,15.78.64,75.47,75.47,0,0,0,7.9-.79c1.31-.18,2.62-.32,4-.43s2.61-.43,4.12.57c-1.12,1.46-2.55,1.35-3.81,1.65s-2.65.46-4,.6l-8,.77a87.69,87.69,0,0,1-16.2.53c-2.69-.21-5.36-.48-8-.78l-4-.49c-1.31-.17-2.68-.31-4.06-.61a26.52,26.52,0,0,1-7.89-2.92,34.11,34.11,0,0,1-3.47-2.29c-.55-.41-1.09-.83-1.61-1.27A2.71,2.71,0,0,1,166.42,232.32Z"/><path class="cls-2" d="M144.07,255.19a3.7,3.7,0,0,1,1.4-.07,1,1,0,0,1,.66.4c.34.35.67.7,1,1,.71.67,1.47,1.31,2.26,1.92a43,43,0,0,0,5,3.31c.86.48,1.73.94,2.6,1.33.45.21.83.36,1.34.57l1.48.62c1.92.81,3.79,1.62,5.69,2.37a210.89,210.89,0,0,0,23.24,7.72c4,1.06,8,2.16,12,3.26,2,.55,4,1.12,5.93,1.59s3.91.94,5.86,1.27a59.11,59.11,0,0,0,12,.6c2.07-.05,4.13-.14,6.2-.27l3.09-.23a4,4,0,0,1,3.25.62,3.83,3.83,0,0,1-2.91,1.63l-3.09.63q-3.1.58-6.22,1.07a60.34,60.34,0,0,1-12.89.85,83.38,83.38,0,0,1-12.69-2c-4.1-.93-8.1-1.92-12.17-3a122.23,122.23,0,0,1-23.86-8.8c-1.9-.94-3.78-1.93-5.6-2.95l-1.34-.73c-.43-.24-1-.53-1.46-.81-1-.56-1.88-1.2-2.78-1.83a47.85,47.85,0,0,1-5-4.22c-.77-.76-1.52-1.55-2.24-2.39-.36-.42-.7-.86-1-1.31S143.34,256.3,144.07,255.19Z"/><path class="cls-2" d="M219.24,241.23c.26-.12,4.19,6.05,6.33,14,3.74,13.85.13,25.92-.22,25.89s1.72-10.3-1.85-24.82C221.47,248.07,219,241.34,219.24,241.23Z"/><path class="cls-2" d="M207.57,242.34c.29-.14,6,6.62,7.78,15,2.87,13.3-3.87,24.31-4.22,24.23s4.26-10.67,1.66-24.34C211.13,248.49,207.28,242.47,207.57,242.34Z"/><path class="cls-2" d="M196,242.45c.31,0,4,8.59,2.45,18.45-1.51,9.37-7.28,15.67-7.56,15.56s3.35-6.47,4.89-16.34C197.39,249.87,195.72,242.48,196,242.45Z"/><path class="cls-2" d="M182.12,241.11c.33,0,1.72,8.09-1.74,16.67-3.1,7.69-9,12.63-9.26,12.45s3.77-4.94,7-13.11C181.71,248,181.8,241.07,182.12,241.11Z"/><path class="cls-2" d="M172.34,237.56c.29.11.21,7.29-4.11,14-5.1,7.91-13.23,11.58-13.45,11.34s5.69-4.24,11.11-12.45C170.56,243.39,172.07,237.46,172.34,237.56Z"/><path class="cls-13" d="M129.11,171a23.07,23.07,0,0,1-5.63,1.7c-4.3.65-5.84-.83-7.26-.29-4.32,1.61-1.49,19.22,2.51,40.3,2.56,13.46,5.34,27,14.16,37.57,2.09,2.51,4.9,5.31,8.66,5.55,5.54.36,10.32-5,13.71-8.74,1.37-1.53,3.46-4.47,7.63-10.37,1.86-2.62,3.7-3.45,3.78-5.41.11-2.59-2.35-4.14-5.26-7A49.36,49.36,0,0,1,151,208.88a48.59,48.59,0,0,1-3.78-12.37c-1.45-7.35-2.52-12.78-2.3-19.93.08-2.52.35-5.94-1.85-8.44-.28-.32-2.1-2.34-4.45-2.23-1.22.06-1.59.66-4.29,2.3A44.28,44.28,0,0,1,129.11,171Z"/><path class="cls-2" d="M129.55,170.51a22.93,22.93,0,0,1-5.63,1.7c-4.29.64-5.83-.83-7.26-.3-4.31,1.62-1.49,19.23,2.52,40.31,2.56,13.46,5.34,27,14.15,37.56,2.1,2.52,4.9,5.31,8.67,5.56,5.53.36,10.32-5,13.71-8.74,1.37-1.53,3.45-4.48,7.63-10.38,1.85-2.62,3.7-3.44,3.78-5.4.1-2.59-2.36-4.15-5.26-7a53.41,53.41,0,0,1-14.16-27.78c-1.45-7.35-2.52-12.79-2.29-19.93.08-2.53.34-5.95-1.86-8.45-.28-.32-2.1-2.34-4.44-2.22-1.23.06-1.6.65-4.3,2.29A41.85,41.85,0,0,1,129.55,170.51Z"/><path class="cls-10" d="M130.68,174.5a20.85,20.85,0,0,1-5.07,1.53c-3.87.58-5.25-.75-6.54-.27-3.88,1.46-1.33,17.31,2.27,36.28,2.3,12.11,4.81,24.28,12.74,33.81,1.88,2.26,4.41,4.78,7.8,5,5,.32,9.29-4.47,12.34-7.87a88.6,88.6,0,0,0,7.19-9c1.67-2.36,3.49-2.54,3.56-4.3.09-2.33-3.13-3.87-5.74-6.41-5.15-5-8.14-11.16-9.82-14.72a43.67,43.67,0,0,1-3.4-11.14c-1.31-6.61-2.27-11.5-2.07-17.93.07-2.28,1.32-5.22-.66-7.47-.25-.28-1.89-2.1-4-2-1.1.06-1.44.59-3.87,2.07A40.13,40.13,0,0,1,130.68,174.5Z"/><path class="cls-2" d="M129.55,170.51a22.93,22.93,0,0,1-5.63,1.7c-4.29.64-5.83-.83-7.26-.3-4.31,1.62-1.49,19.23,2.52,40.31,2.56,13.46,5.34,27,14.15,37.56,2.1,2.52,4.9,5.31,8.67,5.56,5.53.36,10.32-5,13.71-8.74,1.37-1.53,3.45-4.48,7.63-10.38,1.85-2.62,3.7-3.44,3.78-5.4.1-2.59-2.36-4.15-5.26-7a53.41,53.41,0,0,1-14.16-27.78c-1.45-7.35-2.52-12.79-2.29-19.93.08-2.53.34-5.95-1.86-8.45-.28-.32-2.1-2.34-4.44-2.22-1.23.06-1.6.65-4.3,2.29A41.85,41.85,0,0,1,129.55,170.51Z"/><path class="cls-7" d="M130.68,174.5a20.85,20.85,0,0,1-5.07,1.53c-3.87.58-5.25-.75-6.54-.27-3.88,1.46-1.33,17.31,2.27,36.28,2.3,12.11,4.81,24.28,12.74,33.81,1.88,2.26,4.41,4.78,7.8,5,5,.32,9.29-4.47,12.34-7.87a88.6,88.6,0,0,0,7.19-9c1.67-2.36,3.49-2.54,3.56-4.3.09-2.33-3.13-3.87-5.74-6.41-5.15-5-8.14-11.16-9.82-14.72a43.67,43.67,0,0,1-3.4-11.14c-1.31-6.61-2.27-11.5-2.07-17.93.07-2.28,1.32-5.22-.66-7.47-.25-.28-1.89-2.1-4-2-1.1.06-1.44.59-3.87,2.07A40.13,40.13,0,0,1,130.68,174.5Z"/><path class="cls-14" d="M154.77,218c.14-.1,4.76,5.42,6.12,6.53,2.34,1.89,2.74,2,3.26,2.89a3.55,3.55,0,0,1,.67,2.81c-.23.69-.72.89-1.63,1.71a24.58,24.58,0,0,0-2.22,2.59c-2.11,2.61-2.22,3.14-4,5.33-.72.88-1.37,1.6-2.67,3a46.14,46.14,0,0,1-4.23,4.37,13.16,13.16,0,0,1-4.51,3,8.79,8.79,0,0,1-10.23-3c-2.27-2.59-4.89-4.71-8.39-13.61,1,1.07,2.2,4,5.35,5.09,1.5.51,4.83,1.64,8.23.37.62-.23,1.33-.58,6.22-5.48,3.95-4,2.94-3.2,5.56-5.78,3.42-3.39,3.83-3.59,4-5C156.78,219.75,154.42,218.27,154.77,218Z"/><path class="cls-14" d="M238.18,230.67c-.48.35-3.53.8-4.09,1.65a8.58,8.58,0,0,0-1,5.63c.32,3.81,3.42,10.51,4.19,13.06,3.62,11.85,24.44,21.83,49.9,10.22-2.74-.35-5.59-.2-8.52-1-11.66-3.19-24.94-3.3-31.93-9.71C241.39,245.66,241,234.6,238.18,230.67Z"/><path class="cls-14" d="M273.51,228.15c1.5,1.88,6.49,8.37,14.41,10.3,11.52,2.8,20.6-2.72,27-4.37q1.36-2.94,2.74-5.86a44.51,44.51,0,0,1-13.34,1.41c-15.4-.73-26.08-9.4-30-13a5.67,5.67,0,0,1-1.11,2.08,6.07,6.07,0,0,1-3.11,1.93A17.66,17.66,0,0,0,273.51,228.15Z"/><path class="cls-14" d="M235.65,264c.32,2.18.21,4.4,0,8.74-.34,6.93-.83,7.89,0,9.48,1.81,3.48,6.88,4.16,9,4.45,9.86,1.33,18-5,20.74-7.26,1-1.24,7.24-6.44,8.23-7.68-2,1.17-10,3.16-14.3,4.31-4.53,1.21-10.56,2.83-13.93-.15-1.07-.95-1.7-3-3-7.11-1.57-5.1-1.35-6.4-2.38-8.89a18.77,18.77,0,0,0-7.11-8.3C234.31,253.87,235.14,260.47,235.65,264Z"/><path class="cls-2" d="M319.19,227c-1.4,3.56-4.19,10-8.64,14.91a63,63,0,0,1-6.85,7.33c-9.45,8-9.36,8.77-19.34,17.34-6.51,5.59-12.73,10.35-16.07,12.74-9.67,6.91-18.62,11.34-27.34,9.08-1.29-.33-5.08-1.31-7.12-4.56-1.63-2.6-1.47-5.62-1.22-10.33.26-4.95,1.06-5,.78-7.89-.18-1.85-1.42-4.52-3.89-9.78-2.91-6.2-3.63-7.72-4.33-10.34a15.31,15.31,0,0,1-.34-8.18c1.6-5.15,13.16-8.42,14.3-8.64,0,.49-.44,2-.44,2.52-1.07.19-8.51,1.16-9.89,5.45-.2.59-.47,1.8.66,5.89,1.06,3.81,2.23,6.09,4.34,10.67,3.75,8.15,3.92,9.34,4,10.22.22,2.68-.46,2.64-.78,8.56-.36,6.6.4,8.14.78,8.78,1.72,2.95,5.12,3.91,6.22,4.22,8.2,2.32,17-3.93,26.34-10.67,2-1.47,5.65-4.54,12.89-10.67,14-11.84,10.72-9.93,19.9-17.55a46.43,46.43,0,0,0,5.77-5.45A53,53,0,0,0,317,228Z"/><path class="cls-4" d="M353.38,258.15a70.46,70.46,0,0,0-8.23-4,6.65,6.65,0,0,0-1.55-3,7.36,7.36,0,0,0-5.34-2.23c-2.74,0-5.09,1.61-6.66,2.67-1.37.93-2,1.64-3.49,2a8.2,8.2,0,0,1-3.48-.07c-3.41-.43-6.74-1-10.67-1.86a73.9,73.9,0,0,1-16.82-6.07A69.45,69.45,0,0,1,286,239.63c-3.84-2.67-10.28-8.1-15.34-18.52a6.78,6.78,0,0,0,1.86-.82,7,7,0,0,0,2.28-2.34l-1-1.09a7.21,7.21,0,0,1-1.45,1.73,7.55,7.55,0,0,1-1.85,1.19,17.72,17.72,0,0,0-1.34-4.38,17.08,17.08,0,0,0-1.78-3,18.49,18.49,0,0,0,0,2.81s-18.56-3.11-23.48-2.61c-.26-.81-.55-1.36-.74-1.39-.38-.05-.88,2.06-3.93,15-1.28,5.4-1.66,6.86-1.7,9.33a24.55,24.55,0,0,0,1.85,10.45c.52,1.2,3.21,7,12.59,11.78,2.81,1.42,7.66,3.46,31.34,4.3,18.76.66,38.46-.32,41.68-.11a15.23,15.23,0,0,1,5.67,1.52c2.44,1.26,2.24,1.84,4.22,2.74,1.09.49,4,1.79,7,.66a6.56,6.56,0,0,0,3.64-3.11,6,6,0,0,0,.59-2.3,43.72,43.72,0,0,0,7,.23,47,47,0,0,0,5-.52C356.67,260.13,355.09,259.13,353.38,258.15Z"/><path class="cls-2" d="M243.21,211.18c-.38-.05-.88,2.06-3.93,15-1.28,5.4-1.66,6.86-1.7,9.33a24.55,24.55,0,0,0,1.85,10.45c.52,1.2,3.21,7,12.59,11.78,2.81,1.42,7.66,3.46,31.34,4.3,18.76.66,38.46-.32,41.68-.11a15.23,15.23,0,0,1,5.67,1.52c2.44,1.27,2.24,1.84,4.22,2.74,1.09.49,4,1.79,7,.66a6.56,6.56,0,0,0,3.64-3.11,6,6,0,0,0,.59-2.3,43.72,43.72,0,0,0,7,.23,47,47,0,0,0,5-.52c-1.45-1-3-2-4.74-3a70.46,70.46,0,0,0-8.23-4,6.65,6.65,0,0,0-1.55-3,7.36,7.36,0,0,0-5.34-2.23c-2.74,0-5.09,1.61-6.66,2.67-1.37.93-2,1.64-3.49,2a8.2,8.2,0,0,1-3.48-.07c-3.41-.43-6.74-1-10.67-1.86a73.9,73.9,0,0,1-16.82-6.07A69.45,69.45,0,0,1,286,239.63c-3.84-2.67-10.28-8.1-15.34-18.52a6.78,6.78,0,0,0,1.86-.82,7,7,0,0,0,2.28-2.34l-1-1.09a7.21,7.21,0,0,1-1.45,1.73,7.55,7.55,0,0,1-1.85,1.19,17.72,17.72,0,0,0-1.34-4.38,17.08,17.08,0,0,0-1.78-3,18.49,18.49,0,0,0,0,2.81,19.31,19.31,0,0,0,1.12,5,45.69,45.69,0,0,0,5.26,10.3c5,7.49,12.87,11.55,17.85,14.29a91.12,91.12,0,0,0,19.49,7.71c4.5,1.18,11.64,2.79,12.63,2.87a18.2,18.2,0,0,0,4.29-.18c2-.42,2.55-1.22,3.67-1.95,2.14-1.37,2.07-1.86,3.49-2.44.67-.28,3.29-1.37,5.7,0a6.08,6.08,0,0,1,2.74,3.77c2.27,1,4.6,2.14,7,3.34,1.7.86,3.36,1.72,5,2.59-1.42.06-3,.07-4.59,0a50.57,50.57,0,0,1-6.3-.67,5.53,5.53,0,0,1-.15,2.38,5.43,5.43,0,0,1-2,2.89c-2.28,1.51-5.46.1-7-.6-2.11-.93-1.81-1.42-4.07-2.59a17.9,17.9,0,0,0-6.6-2.3c-2.39-.16-9.5-.78-16.07-.59-9.66.28-18.32-.22-24.45-.59-2.09-.13-7.62-.7-18.67-1.86a32.05,32.05,0,0,1-10.15-2.22,21,21,0,0,1-9.12-6.52,21.36,21.36,0,0,1-3.85-9.33,32.72,32.72,0,0,1,.15-12,39.37,39.37,0,0,0,1.7-9.92C244.64,214.1,243.65,211.24,243.21,211.18Z"/><path class="cls-2" d="M246.69,174.73c-.09.05-1.53-.72-4.08-4.74-4.9-7.74-7.36-11.61-7.63-12.52-3-10.34,8.56-22.09,10.38-23.86,1.52-1.5,4.15-3.27,9.4-6.82a179.22,179.22,0,0,1,21.05-12.74c8.26-4.15,40.39-21.48,45.27-23.49,3-1.24,4.9-2.72,6.71-3a55.84,55.84,0,0,1-1,7.87c-.27,1.6.38,3.2,0,4.56a10.9,10.9,0,0,0-1.86,1.13c-4.08,3.41-7.35,6.73-9.12,8a85.39,85.39,0,0,0-12.37,11c-1.79,2-4.48,6.08-9.85,14.23a19.51,19.51,0,0,0-2.82,5.93c-.68,2.53-1.66,4.48-1.55,6L287.59,145a30.46,30.46,0,0,1,1-6.93,26.56,26.56,0,0,1,3.85-7.78c3.65-5.5,5.47-8.26,8.82-11.92a83.13,83.13,0,0,1,13.48-11.71c1.48-1.08,5.23-3.74,9.71-6.74.65-.44.91-.51,1.27-.76.39-1-.23-2.29.06-3.59a30,30,0,0,0,.94-6.54c-1.36.22-2.59,1.61-4.86,2.52-5.19,2.06-34,19.07-42.68,23.41a158.93,158.93,0,0,0-21,12.37c-4.34,3.07-6.51,4.6-8.74,6.82-2,2-13,13-10.22,22.3.29,1,.25.32,3.26,5.7C245.57,167.69,246.94,174.59,246.69,174.73Z"/><path class="cls-2" d="M158.52,146.68a42.9,42.9,0,0,1,4.82-2.59c2.42-1.3,6.75-3.22,14.3-3.92,6-.56,18.74-2.86,31.48,4.26a49.87,49.87,0,0,1,11.12,8.07l1.18-1.26a49.4,49.4,0,0,0-11.48-8.59c-13.31-7.19-26-6-32.16-5.41-7.53.71-11.9,2.66-14.37,4a41.4,41.4,0,0,0-4.67,3.31Z"/><path class="cls-2" d="M338.34,201.55a15.51,15.51,0,0,1,6.12-2.26c4.51-.38,6.89,2.09,11.73,3.05,2.35.47,6,1.64,10.8.1-3.93,3.26-6.86,6.2-8.57,7.57a33,33,0,0,0-3.21,2.92c-.4.41-.82.87-1.24,1.36-1.19,1.4-1.71,3.54-2.27,4.43-.47-.17-1.48-1.17-1.95-1.33a30.6,30.6,0,0,1,3-4.23,33.6,33.6,0,0,1,5.11-4.44q4.53-3.24,7.39-5.21a20.45,20.45,0,0,1-9.12.83c-5-.72-7.29-3.17-11.55-2.69a14.59,14.59,0,0,0-6.23,2.69C338.32,203.72,338.32,202.17,338.34,201.55Z"/><path class="cls-2" d="M262.88,163.68a.51.51,0,0,0,.31-.25.27.27,0,0,0,.06-.12.23.23,0,0,0,0-.07v0l0,.18.07.42.16.88c.12.6.25,1.19.39,1.79.3,1.19.61,2.38.86,3.6a51,51,0,0,1,.91,7.36c.17,2.44.32,4.91.34,7.38s-.09,5-.23,7.39c-.06,1.21-.1,2.41-.06,3.6a35.18,35.18,0,0,0,.36,3.53,30.6,30.6,0,0,0,2.1,6.78,39.63,39.63,0,0,0,8.11,11.69,28.36,28.36,0,0,0,2.64,2.38c.89.79,1.88,1.44,2.84,2.14a38.88,38.88,0,0,0,6.29,3.31,42.89,42.89,0,0,0,13.92,3c4.81.11,9.7.18,14.25-1.17a25.16,25.16,0,0,0,11.91-7.57h0l.76-.85,0,1.12a18.51,18.51,0,0,0,4.52,11.37,17.12,17.12,0,0,0,10.65,5.83,19.85,19.85,0,0,0,6.2-.14,18.9,18.9,0,0,0,3-.79,21.09,21.09,0,0,0,2.82-1.32,16.72,16.72,0,0,1,6.27-2,21.73,21.73,0,0,1,6.54.24l-.42,1.06a50.92,50.92,0,0,1-8.43-6.71,37,37,0,0,1-3.57-4.06,14.85,14.85,0,0,0-3.71-3.54,26,26,0,0,0-9.56-4,27.73,27.73,0,0,0-10.47-.21l-1,.18.63-.8a27,27,0,0,0,3.65-6.11,21.14,21.14,0,0,0,1.15-3.36,29.85,29.85,0,0,0,.72-3.48,31.31,31.31,0,0,0-1.64-14,36.84,36.84,0,0,0-7-12.3,55.3,55.3,0,0,0-11.07-9c-4-2.66-8.13-5.15-12.23-7.72s-8.11-5.31-12-8.16c-2-1.43-3.9-2.89-5.79-4.4a31.61,31.61,0,0,1-5.38-5.1,22.92,22.92,0,0,1-5.12-13.85l.38.67a4.8,4.8,0,0,0-2.35-.89,1.92,1.92,0,0,0-1.79,1,14,14,0,0,0-1.13,2.58l-1,2.83c-1.3,3.79-2.5,7.67-4.1,11.41-.39.93-.81,1.85-1.17,2.76a11,11,0,0,0-.44,1.34,1.74,1.74,0,0,0,0,1c.13.19.12.21.68.23a3.77,3.77,0,0,1,1.75.36,4.65,4.65,0,0,1,2.17,2.66,17.29,17.29,0,0,1,.75,3c.16,1,.34,2,.41,3.06a13.38,13.38,0,0,1,0,1.56,3.61,3.61,0,0,0,.19,1.29,7.12,7.12,0,0,0,1.47,2.35c1.27,1.51,2.65,3,4,4.44a20.68,20.68,0,0,1,2,2.39c.59.83,1.09,1.77,1.6,2.57a25.33,25.33,0,0,0,1.84,2.33,5.26,5.26,0,0,1,.48.67,1.42,1.42,0,0,1,.22,1.06,2.29,2.29,0,0,1-1.29,1.36,9.73,9.73,0,0,1-3.07.79,16.06,16.06,0,0,1-3.1,0,11.67,11.67,0,0,1-3.07-.64,5.21,5.21,0,0,1-2.66-1.91,2,2,0,0,1-.36-.9,2.52,2.52,0,0,1,.1-.94,3.85,3.85,0,0,0,.21-1.32,4,4,0,0,0-.35-1.29,2.2,2.2,0,0,0-.72-1,4.27,4.27,0,0,0-1.19-.59,3.25,3.25,0,0,1-.84-.37l-.16-.15-.07-.1a1.28,1.28,0,0,1-.14-.21,3.86,3.86,0,0,1-.2-.41c-.4-1-.5-2.08-.78-2.94a1.72,1.72,0,0,0-.29-.52l-.43-.61-.87-1.21c-.3-.39-.61-.78-.92-1.15-.16-.18-.32-.36-.48-.52l-.23-.21-.08,0s0,0,0,0h.06A.44.44,0,0,0,262.88,163.68Zm-.38-1.16a.87.87,0,0,1,.32,0l.16,0a.85.85,0,0,1,.19.09,1.77,1.77,0,0,1,.23.16l.33.3q.28.3.54.6c.33.4.64.81.94,1.23l.89,1.24.42.63a2.57,2.57,0,0,1,.41.81c.33,1.06.41,2.06.73,2.89a1.82,1.82,0,0,0,.13.28l.06.11,0,0,0,0a5,5,0,0,0,.54.22,5.15,5.15,0,0,1,1.48.78,3.34,3.34,0,0,1,1,1.42,5.07,5.07,0,0,1,.4,1.62,4.67,4.67,0,0,1-.25,1.64,1,1,0,0,0,.12,1,4.28,4.28,0,0,0,2.16,1.54,11.09,11.09,0,0,0,2.82.62,11.44,11.44,0,0,0,5.66-.73,1.6,1.6,0,0,0,.79-.71c.06-.13-.22-.57-.53-.92a24.46,24.46,0,0,1-1.92-2.39c-.58-.89-1-1.73-1.62-2.53a20.1,20.1,0,0,0-1.9-2.24c-1.4-1.45-2.8-2.9-4.13-4.45a8.21,8.21,0,0,1-1.72-2.73,4.7,4.7,0,0,1-.26-1.68,14,14,0,0,0,0-1.45,27.63,27.63,0,0,0-.43-2.91,15.42,15.42,0,0,0-.72-2.81,3.32,3.32,0,0,0-1.54-1.92,2.48,2.48,0,0,0-1.17-.21,2.58,2.58,0,0,1-1-.13,1.71,1.71,0,0,1-.9-.83,2.88,2.88,0,0,1-.11-1.94,11.11,11.11,0,0,1,.48-1.54c.37-1,.77-1.88,1.15-2.81,1.52-3.68,2.65-7.52,3.9-11.36l1-2.87a15.43,15.43,0,0,1,1.28-2.94,4.06,4.06,0,0,1,1.34-1.33,3.65,3.65,0,0,1,1.89-.46,6.32,6.32,0,0,1,3.24,1.16l.36.23,0,.45a21.43,21.43,0,0,0,4.78,12.82,29.68,29.68,0,0,0,5.08,4.86q2.81,2.26,5.72,4.39c3.86,2.86,7.84,5.57,11.88,8.19s8.16,5.15,12.17,7.88a57.48,57.48,0,0,1,11.21,9.35A38.1,38.1,0,0,1,337.3,188a32.28,32.28,0,0,1,1.54,14.5,29.63,29.63,0,0,1-.79,3.6,22.2,22.2,0,0,1-1.22,3.46,27.92,27.92,0,0,1-3.82,6.25l-.37-.62a32.38,32.38,0,0,1,5.39-.42,36,36,0,0,1,5.38.49,25.2,25.2,0,0,1,10.07,3.95,15.4,15.4,0,0,1,4,3.78,36.34,36.34,0,0,0,3.46,4,50.59,50.59,0,0,0,8.22,6.58l2.53,1.62-2.95-.55a20.48,20.48,0,0,0-6.2-.24,15.4,15.4,0,0,0-5.87,1.82,21.8,21.8,0,0,1-3,1.38,19.69,19.69,0,0,1-3.19.83,21.09,21.09,0,0,1-6.54.13,17.92,17.92,0,0,1-11.28-6.25,20.25,20.25,0,0,1-3.34-5.62,19,19,0,0,1-1.29-6.39l.79.26h0a24.19,24.19,0,0,1-5.36,5.23,23.5,23.5,0,0,1-3.22,2,26.13,26.13,0,0,1-3.51,1.44,33,33,0,0,1-7.39,1.48,68.82,68.82,0,0,1-7.46.18,43.53,43.53,0,0,1-14.7-3,41.09,41.09,0,0,1-6.67-3.57,37.27,37.27,0,0,1-3-2.29,30.67,30.67,0,0,1-2.79-2.55A40.47,40.47,0,0,1,266.39,207a31.63,31.63,0,0,1-2.07-7.27,34,34,0,0,1-.31-3.77c0-1.27.05-2.52.14-3.74.2-2.46.36-4.86.39-7.29s-.07-4.86-.18-7.3a50.89,50.89,0,0,0-.72-7.22c-.22-1.19-.5-2.37-.78-3.57-.15-.59-.31-1.18-.47-1.78-.08-.3-.16-.6-.22-.91l-.09-.48a2.09,2.09,0,0,1,0-.28v-.19c0-.06,0-.1,0-.19a.89.89,0,0,1,.08-.17A.67.67,0,0,1,262.5,162.52Z"/><path class="cls-2" d="M262.69,163.13c-.24.08.66,3.29,1.25,5.92a57.11,57.11,0,0,1,1.2,10.75c.49,9.55-.55,12.66-.23,17.33.87,12.69,10.7,21.75,12.23,23.12C288,230,301,229.86,305.37,229.81s11.77-.23,18.45-5.11a25.29,25.29,0,0,0,4.66-4.45,18.84,18.84,0,0,0,10,16,19.55,19.55,0,0,0,14,1.12c3.45-1,4.43-2.55,8.45-3.34a21,21,0,0,1,7.89,0,50.87,50.87,0,0,1-7.67-6c-4.39-4.17-4.21-5.58-7.56-8a26.61,26.61,0,0,0-12.67-4.67,29.23,29.23,0,0,0-8.22.22,27.26,27.26,0,0,0,4.67-8.67c3.91-12.24-2.48-23.48-3.78-25.78-4.72-8.3-11.52-12.57-25.12-21.11a218.35,218.35,0,0,1-20.23-14.23A25.11,25.11,0,0,1,280,135.34a22.84,22.84,0,0,1-1.56-7.55,4.59,4.59,0,0,0-3.78-.89c-1.52.5-2.08,2.17-3.11,5.11-1.42,4.07-2.61,8.22-4.22,12.22-1.42,3.53-2.74,5.88-1.78,6.89.62.65,1.45,0,2.67.67,1.75.94,2.19,3.4,2.67,6.23.57,3.41-.07,3.23.44,4.89.33,1.06.85,2,5.78,7.11a19.78,19.78,0,0,1,3.11,4.22c1.46,2.47,3.23,3.43,2.78,4.39-1,2.2-10.35,2.63-12.34-.83-.75-1.31.87-1.8-.33-4.45-.73-1.62-2.56-1.66-2.89-2-.7-.84-.78-3.22-1.28-4C263.88,163.92,262.91,163.06,262.69,163.13Z"/><path class="cls-4" d="M264.91,168.53c-.22.07.59,3,1.13,5.33a52.2,52.2,0,0,1,1.08,9.67c.44,8.6-.49,11.39-.2,15.61.78,11.41,13.3,18.77,14.67,20,9.78,8.77,21.46,8.64,25.41,8.6s10.59-.2,16.6-4.6c1.94-1.42,4.81-5,5.7-6.07a16.94,16.94,0,0,0,1,5.2c.47,1.29,2,7.57,7.45,10.35,5.75,2.93,10.5,2.25,11.66,1.92,3.1-.87,4-2.29,7.6-3,2.93-.57,5.67.3,7.32.6a57,57,0,0,1-7.91-6c-3.95-3.75-2.77-3.74-5.78-5.92-4.63-3.36-10.46-3.64-12.3-3.86a31.38,31.38,0,0,0-8,.12c1.3-1.64,4.38-5.75,5.51-9.3,3.52-11-2.22-21.14-3.4-23.21-4.24-7.47-10.36-11.32-22.6-19-1.85-1.16-11.95-8.66-20.21-15.29-2-1.56-9.45-9-11.41-13.93-1.07-2.7-.6-5.6-.66-7.24a2.32,2.32,0,0,0-2.51-.21c-1.37.45-1.88,2-2.8,4.6-1.28,3.67-2.36,7.4-3.81,11-1.27,3.18-2.46,5.29-1.6,6.21.56.58,1.3,0,2.4.6,1.58.84,2.29,2.36,2.72,4.9.51,3.07.2,4.29.66,5.78.3,1,.19,1.08,4.63,5.72a18.45,18.45,0,0,1,2.8,3.8c1.31,2.22,7.29,9.95,6.88,10.81-.93,2-15.37-.18-17.16-3.29-.67-1.18.54-2.59-.55-5-.66-1.46-2.3-1.49-2.6-1.85-.62-.75-.7-2.9-1.15-3.55C263.35,164.93,265.11,168.46,264.91,168.53Z"/><path class="cls-6" d="M299.77,162.13c-.58.15-3.09.64-4.15,2A5.55,5.55,0,0,0,296,171c1.2,1.28,3.47,1.31,4,1.33a6.63,6.63,0,0,1-2.54-4.05A7.09,7.09,0,0,1,299.77,162.13Z"/><path class="cls-6" d="M299,190.1c-.56.47-3,1.76-3.66,3.08-.32.65-1.76,3.16-.15,5.26,1.09,1.41,4.53,1.65,5.07,1.68a4.74,4.74,0,0,1-1.52-1.09,5.56,5.56,0,0,1-1.29-3.59A8.69,8.69,0,0,1,299,190.1Z"/><path class="cls-6" d="M314.85,185c-.13-.14-2.89.07-3.84,1.57a7.07,7.07,0,0,0-.9,2.21,5.55,5.55,0,0,0,.31,2.92c.16,0,.37-1.51,1.36-3.37C312.92,186.11,315,185.09,314.85,185Z"/><path class="cls-6" d="M295.14,191.1c-.19,0-3.9,2.8-3.7,5.19.26,3.15,4.74,4.69,4.89,4.59s-2.54-1.84-3-4.7S295.34,191.15,295.14,191.1Z"/><path class="cls-6" d="M295,162.5c-.18,0-3.37,2.64-3.19,4.89.24,3,4,4.61,4.15,4.52a8.57,8.57,0,0,1-2.32-4.17C293.19,165.06,295.18,162.55,295,162.5Z"/><path class="cls-6" d="M332.82,225a14,14,0,0,1-1.64-3c-.81-1.82-1.84-4.81-1.89-4.89a21.39,21.39,0,0,0,.36,3c.11.46.45,1.31.56,1.78a16,16,0,0,0,.83,2.58,21,21,0,0,0,1.17,2.56,13.73,13.73,0,0,0,3,3.89,13.94,13.94,0,0,0,4.08,2.41,19.35,19.35,0,0,0,3.67,1.14,17.92,17.92,0,0,0,3.86.39,11,11,0,0,0,2.64-.3c.28-.08.78-.23,1.34-.45.17-.06.48-.18.86-.36.65-.3.95-.52,1.42-.78a14.57,14.57,0,0,1,4.05-1.44,12.2,12.2,0,0,1,3.53-.08c.63.06,1.16.16,1.89.3s1.36.28,1.81.39L362.6,231l-3.41-1.12a16.43,16.43,0,0,0-2.34.11,27.89,27.89,0,0,0-3.92,1,36,36,0,0,1-3.66.89,21.16,21.16,0,0,1-2.53.25l-1.45,0c-1.28,0-1.49.11-2,.12a7.48,7.48,0,0,1-3.33-1,15.54,15.54,0,0,1-2.5-1.51,19.29,19.29,0,0,1-3.39-3A18.8,18.8,0,0,1,332.82,225Z"/><path class="cls-15" d="M271.13,135.17a14,14,0,0,1,1.19-5.21c.67-1.49,1.18-2.62,2.37-3.06,1.73-.64,3.53.69,3.78.89Z"/><ellipse class="cls-2" cx="306.12" cy="168.23" rx="3.53" ry="5.59" transform="translate(114.16 460.05) rotate(-85.45)"/><path class="cls-2" d="M308.48,188.21c.4.06-.2,3,.56,7.12.51,2.85,1.38,4.68,1,4.89-.2.1-.7-.2-2.12-2.12a8.23,8.23,0,0,1-3.89.56c-1.18-.12-3.14-.33-4.11-1.89a3.94,3.94,0,0,1-.11-3.78c1-1.92,4.17-2.83,7.45-1.55C308,188.72,308.3,188.19,308.48,188.21Z"/><path class="cls-2" d="M299.11,190.15a6.9,6.9,0,0,0-1.89,3.89,5.6,5.6,0,0,0,.67,4.34,4.92,4.92,0,0,0,2.44,1.77,7.37,7.37,0,0,1-1.78-2.26,7.51,7.51,0,0,1-.81-3.22A9.14,9.14,0,0,1,299.11,190.15Z"/><path class="cls-2" d="M299.76,162.3a7.65,7.65,0,0,0-2.56,4,5.44,5.44,0,0,0,.69,4.13,4.88,4.88,0,0,0,2.3,2,7.45,7.45,0,0,1-1.6-2.39,8.24,8.24,0,0,1-.25-3.14C298.35,166.6,299.82,162.34,299.76,162.3Z"/><path class="cls-2" d="M316.56,181.4a8.78,8.78,0,0,1-.56,3c-.68,1.81-1.6,2.37-2.48,3.6-2.72,3.79-1.49,9-1.26,9.89.47,1.84,1.24,3.7,1.55,3.63s.17-1.57,0-3.56c-.23-3.38-.53-3.64-.33-5a11.56,11.56,0,0,1,1.48-4c1.09-2,1.8-2.2,2.15-3.51A5.72,5.72,0,0,0,316.56,181.4Z"/><path class="cls-2" d="M311.61,175.55c.17.21.94-.09,1.48-.44,2.12-1.37,2.23-4.43,2.25-4.91.13-3.42-2.06-6.17-2.34-6.06s.14.69.45,2.68c.4,2.52.6,3.79.28,5C313.13,174,311.31,175.2,311.61,175.55Z"/><path class="cls-16" d="M278.47,127.76a4.09,4.09,0,0,0-3.78-.89c-2.11.66-2.82,4.28-3.11,5.11s-1.44,4.33-1.44,4.33,1.67-1.94,2.39-2.66S278.47,127.76,278.47,127.76Z"/><path class="cls-2" d="M332.87,225.05c-.18.18.86,1.89,2.39,3.39a15.17,15.17,0,0,0,10.23,4.39c1.23,0,1.36-.17,7.28-1.55,2.72-.63,5-1.13,6.44-1.45-.63-.56-1.6-1.45-2.77-2.55-3.15-3-3.5-3.57-4.84-4.5-2.83-2-5.94-2.55-6.06-2.28s2.11,1.15,4.95,3.22a33.51,33.51,0,0,1,5.56,5.11c-.85.26-2.07.62-3.56,1a31.78,31.78,0,0,1-6.06,1.28,14.59,14.59,0,0,1-6.55-1.28C335.48,228,333.14,224.81,332.87,225.05Z"/><path class="cls-17" d="M340.54,73.63a5,5,0,0,1-2.65,1c-2.18.11-3.27-1.49-5-1.15a3.76,3.76,0,0,0-2.41,2.06l-4.77,22.54a2.66,2.66,0,0,0,.66,2.2c1,.88,2.49.11,4.64,1.07a6.89,6.89,0,0,1,1.14.65c.62-1.22,1.24-2.44,1.85-3.66a3.6,3.6,0,0,1-3.56-3.52,7.26,7.26,0,0,1,.52-2.67c.05-.19.24-1.34.6-3.63a41.13,41.13,0,0,0,.66-4.74c0-1.73-.26-2,.08-2.75a4.69,4.69,0,0,1,3.11-2.29,3.27,3.27,0,0,1,2.86.15,2.39,2.39,0,0,1,.79,1.2Z"/><path class="cls-17" d="M331.83,103.47c-.38,1.33-.57,2-.83,2.73-.75,2.15-1.13,2.45-1.18,3.19-.07,1,.46,2.49,3.41,4.5,6.74,1.72,12.1,3.09,16.11,4.27,1.11.32,3.26,1,5.21,0a7,7,0,0,0,2.89-3.47c1-2,.81-3.13,1.45-6.29.23-1.15.61-2.45,1.37-5.05s1.82-6,3.33-10a1.79,1.79,0,0,0-.51-1.5c-.53-.39-1.14.09-1.8-.23a2.56,2.56,0,0,1-1-2.36,3.82,3.82,0,0,1,2.65-3.15,3.14,3.14,0,0,0,.59-2.58c-.19-.64-.59-.82-.55-1.34.05-.74.87-1,1.56-1.79a4.57,4.57,0,0,0,1-2.7c-1.36.44-2.61.82-3.72,1.13-2.64.75-3.14.78-3.69.72a6.41,6.41,0,0,1-3.53-1.43c-.57-.49-.71-.83-1.29-1-.73-.23-1.05.17-2.36.25a3.55,3.55,0,0,1-2.23-.33,2.76,2.76,0,0,1-1.11-1.63,2.1,2.1,0,0,1-1.78.67c-1.17-.36-.82-2.72-2.13-3.35-.94-.46-2.35.15-3.15.94-1.3,1.3-.94,3-1.24,6.12s-.77,2.6-1.33,6.22c-1,6.43.21,9.76-1.93,11.26-.93.65-1.43.2-2.34,1S332.87,99.78,331.83,103.47Z"/><path class="cls-16" d="M332.08,85.42c.72-.38,2.5-2,3.41-2.34s2.58-.58,3.31-.78"/><path class="cls-13" d="M341.82,72.52A6,6,0,0,1,339,74.41c-2.91.88-4.67-1.43-6.67-.89s-2.51,3.69-4.33,12.12c-2.12,9.82-3.22,13.37-1.33,14.89,1.6,1.28,3.82-.14,4.89,1.22,1.48,1.89-2.48,5.08-1.67,8.56.95,4.09,7.79,5.49,17.89,7.55,4.13.85,5.91.88,7.45-.11,2.39-1.52,2.42-4.35,3.55-9.11,1.85-7.76,3.36-10.34,5.89-19,.94-3.21,2.19-4.92,2.78-10.9Z"/><path class="cls-16" d="M335.15,98.19c-1.44.55-3.48-.59-4.33-2-1-1.71.12-3.13.89-7.67.93-5.53-.14-7.35,1.55-8.89s4.41-1.6,5.45-.44c.87,1,.21,2.62-.45,5C335.83,93,337.46,97.32,335.15,98.19Z"/><path class="cls-2" d="M342.93,82.41q-2.88,10.49-5.78,21a2.34,2.34,0,0,0,.23,1.85,2.16,2.16,0,0,0,2.66.89,2.25,2.25,0,0,0,1.11-1.7Q344,93.6,346.86,82.78a2.08,2.08,0,0,0-.45-1.78,2,2,0,0,0-2.29-.37A2.15,2.15,0,0,0,342.93,82.41Z"/><path class="cls-2" d="M359.16,86.64l-6.06,20.67a2.68,2.68,0,0,0,.09,1.85,1.76,1.76,0,0,0,2.25,1,2.33,2.33,0,0,0,1.05-1.65l6-21.34a2.32,2.32,0,0,0-.29-1.79,1.55,1.55,0,0,0-2-.47A2.15,2.15,0,0,0,359.16,86.64Z"/><path class="cls-2" d="M351,84.38q-3.48,11-7,22a2.18,2.18,0,0,0,.27,1.94,2.85,2.85,0,0,0,3.22.93,2.33,2.33,0,0,0,1.34-1.79q3.44-11.34,6.88-22.67a1.94,1.94,0,0,0-.54-1.87,2.71,2.71,0,0,0-2.77-.39A2.28,2.28,0,0,0,351,84.38Z"/><path class="cls-6" d="M331.66,96.93a14.95,14.95,0,0,1,12.27,1.6,11.69,11.69,0,0,0-2.49-3.4,12.47,12.47,0,0,0-6.81-3.25A28.51,28.51,0,0,1,347.38,91a15.82,15.82,0,0,0-10.15-4.49q.19-1,.48-2c.14-.54.29-1.06.44-1.56a11.28,11.28,0,0,0-5.61,2.54c-.14.43-.32,3.56-.46,4-.69,2.16-.74,3.13-1.43,5.28C330.43,95.39,331.41,96.05,331.66,96.93Z"/><path class="cls-16" d="M331.41,97c1.58,0,4.12-1,6.41-.53a25.42,25.42,0,0,1,6.11,2.11,12.93,12.93,0,0,0-4.67-5.12,12.52,12.52,0,0,0-3.77-1.55A22.21,22.21,0,0,1,347.38,91a19.18,19.18,0,0,0-6.78-4.11,10.2,10.2,0,0,0-2.68-.75"/><path class="cls-10" d="M334.15,64.74c-.67.71,1.17,2.06,2.41,3.48s2,3.11,2.34,3.43c1.44,1.35,3.56,1.28,4.18.24.35-.59.25.53.27.56,1.06,1.22.86,2.83,2.59,3.2.76.17,1.22-.57,2.07-.29s.64.91,1.56,1.48a3.49,3.49,0,0,0,1.48.44c1.75.24,2.38-.53,3.26-.07.66.34.46.84,1.19,1.48s1.69.74,3,.82c2.51.15,3.91-1.28,4.61-.62.16.15,1.83-1.53,1.79-1,2-.76.53,1.19.59,1.32s-.08.54-1.07,1.61c-.76.82-1.14,1.23-1.26,1.7-.29,1.15.65,1.67.3,3a3.8,3.8,0,0,1-.5,1.11c-.27.4-.69.45-1.1.83-.86.79-1.51,1.33-1.63,1.71-.25.82.65,2,1.42,2.34s1.1.12,1.65.54.25.94.25,1.21c0,1.13-.29,1.28-.35,2.3a3.41,3.41,0,0,0,.93,2.26,3,3,0,0,0,1.63,1.19,3.21,3.21,0,0,0,2.57-.93c2-1.71,1.79-5.16,1.78-7.14,0-1.64,1.94-1.47,2.38-3.62.35-1.67-1.3-3.7-.85-4.85,1.17-3,3.67-4.82,2.52-7.12-.1-.2-.54-3.91,1.52-5.11,3.74-2.19,2.69-4.38,1.8-4.12-2.26.67-6,3.36-7.51,3.27-2-.12-2.71-1.49-3.52-1.49-6.22.08-3.38,2.91-4.29,1.49-1.09-1.68-.39-2-2.08-2.78s-3.19,2.32-3.89,1.89c-1.73-1.09-1.6-5.17-3-4.41-5.56,3-7.56,1.3-9,0-.51-.46-2.42,1.2-3.3.18-2.17-2.52-4.87-3.11-5.53-2.63C333.43,63.19,334.46,63.63,334.15,64.74Z"/><path class="cls-2" d="M340.81,73.81a10.57,10.57,0,0,1-3.74-2.64c-.46-1-.09-1.56-.66-2.46s-1.11-.66-2.07-1.56a5.51,5.51,0,0,1-.67-4,2.77,2.77,0,0,1,1.72-1.72c1.91-.68,4,1.11,4.25,1.33.82.71.8,1.12,1.48,1.36,1.09.38,1.62-.48,2.85-.31,1.4.19,1.35,1.4,2.81,1.8,1.08.29,2.1-.1,3.91-.78s1.95-1.11,2.57-.94c1.05.29,2.14,1.9,2.54,3.32.09.32.16.68.43.78.47.17.88-.7,2.07-1.21a3.14,3.14,0,0,1,2.15-.24A2.32,2.32,0,0,1,362,67.73c.33.94.12,1.28.32,1.16a5.74,5.74,0,0,1,1.44-.77,5.21,5.21,0,0,1,3.63-.23c1.35.38,1.35,1,2.42,1.13.78.12,1.32-.11,3.59-1.21,3.29-1.59,4.05-2,4.64-1.64A1.81,1.81,0,0,1,378.6,68c-.22.93-1.12,1.06-2.11,2.07a7,7,0,0,0-1.72,3.51c-.55,2.22.34,2.46-.12,4.29-.65,2.61-2.62,2.85-2.53,4.84.05,1.17.73,1.38.82,3.13a5.63,5.63,0,0,1-.35,2.45c-.57,1.39-1.35,1.34-2,2.5-.83,1.5.14,2.16-.43,4.49a6.86,6.86,0,0,1-2.77,3.89,3.45,3.45,0,0,1-2.46.35,3.67,3.67,0,0,1-2.46-3.59c.08-1,.76-1.41.54-2.46a1.92,1.92,0,0,0-.85-1.33c-.58-.29-.94.12-1.45-.08-.9-.34-1.07-2.54-.43-3.84s1.78-1,2.23-2.23a5,5,0,0,0,.07-2.15c-.11-1-.34-1.21-.19-1.75s.55-.69,1.25-1.56c.16-.21,1.29-1.66,1-2.07s-1.76.47-3.35.9a11.48,11.48,0,0,1-3.82.58c-.91,0-2.48-.14-3.28-1.21-.43-.56-.33-1-.78-1.21-.61-.32-1.09.26-2.5.43a3.19,3.19,0,0,1-2.3-.27c-.8-.57-.64-1.49-1.25-1.64s-.84.6-1.6.55a2.36,2.36,0,0,1-1.45-1c-.48-.57-.38-.77-.94-1.48s-.7-.9-1.09-.94c-.56,0-1.09.51-1.72.47-.37,0,.43-.58.23-.78.08-.29.14-.57.22-.86a1.91,1.91,0,0,0,1.07.08c.64-.16.73-.6,1.17-.63.74,0,1.4,1.16,1.6,1.52.3.54.27.73.71,1.53.32.59.49.88.74,1,.66.24,1.17-.75,1.87-.58s.52,1.13,1.44,1.75a2.87,2.87,0,0,0,1.76.39c1.54,0,2.07-.81,2.85-.46.56.24.42.71,1.05,1.36A4.46,4.46,0,0,0,358.18,79a8.72,8.72,0,0,0,3.75-.5c2.55-.79,3.28-1.79,3.82-1.41.74.51.49,3.05-.81,4.06-.52.4-1.08.47-1.37,1.09-.2.44-.09.76,0,1.53a5.65,5.65,0,0,1-.16,2.49c-.51,1.24-1.77.92-2.42,2.19-.49,1-.34,2.32.24,2.65s.78-.22,1.44,0a2.51,2.51,0,0,1,1.45,2.14c.11,1.1-.57,1.28-.59,2.42a3.18,3.18,0,0,0,1.76,3,2.86,2.86,0,0,0,2.3-.2,4.63,4.63,0,0,0,2-3.2c.61-2.46-.47-3.36.43-4.8.62-1,1.31-.87,1.87-2.07a4.43,4.43,0,0,0,.35-2.46c-.19-1.81-1.2-2-1.28-3.2-.13-1.89,2.27-2.21,2.92-4.8.48-1.87-.65-2.2-.11-4.49a6.08,6.08,0,0,1,2.1-3.78c.81-.58,1.65-.72,2-1.56.14-.4.21-1.07-.12-1.33s-1.46.3-4.29,1.79c-2.61,1.37-3.14,1.52-3.79,1.41-1.09-.2-1.11-.9-2.46-1.29a5.16,5.16,0,0,0-3.43.27c-1.92.94-2.62,3.18-2.82,3.09s1.21-2.28.39-3.91a2,2,0,0,0-1-1,3,3,0,0,0-2.46.7c-1.22.8-1.43,1.55-1.87,1.45s-.35-1.13-1.13-2.66c-.4-.76-.88-1.71-1.72-1.91-.65-.16-1,.24-2.19.78-1.41.65-2.84,1.31-4.14,1-1.5-.39-1.41-1.74-2.88-2-1.26-.18-1.8.74-2.93.35-.71-.24-.64-.64-1.64-1.48-.55-.46-2.26-1.88-3.63-1.33a2.24,2.24,0,0,0-1.17,1.37,3.25,3.25,0,0,0,.93,2.81A9.33,9.33,0,0,1,337,68.36c.55.92.91,1.17,1.48,2.11A5.33,5.33,0,0,0,341,72C340.94,72.31,340.86,73.5,340.81,73.81Z"/><path class="cls-16" d="M373.18,51.59c-.8.14-1.39,1.8-1.2,3.22.22,1.65,1.34,1.71,1.53,3.14.22,1.68-1.26,2.17-1.37,4.5-.05,1.08.18,2.62.88,2.82s1.25-.63,2-1.53a7.62,7.62,0,0,0,2.1-3.86,7.53,7.53,0,0,0-.41-3.46,8.92,8.92,0,0,0-2-3.78C374.14,52,373.68,51.5,373.18,51.59Z"/><path class="cls-16" d="M381.87,64c-.19-.55,1.41-2,3.22-2.25,1.24-.18,1.56.36,2.49,0,1.36-.53,1.59-2,2.41-1.93a1.18,1.18,0,0,1,.89.88c.22.8-.53,1.57-.8,1.85s-1.24,1.15-4.51,1.53C383.68,64.28,382,64.47,381.87,64Z"/><path class="cls-16" d="M376.32,87.62c-.6-.19-3,2.78-2.73,6,.15,1.57.86,2.07.88,4.1,0,1.68-.46,1.79-.48,3.46a6.51,6.51,0,0,0,1.53,4.9,5.34,5.34,0,0,0,4.18,1.45c2-.25,3.75-1.8,3.54-2.49s-1.87,0-3.14-1.13A4.56,4.56,0,0,1,379,99.93c.26-1.73,1.29-2.12,1-3.14-.29-1.17-1.79-1.05-2.89-2.25C375,92.22,377,87.85,376.32,87.62Z"/><path class="cls-18" d="M351.82,156c-2.38.6-5.37-.29-6.22-2.22-1.28-2.87,2.24-7.92,5.78-7.56,2.58.27,5.12,3.41,4.44,6.23C355.18,155.09,352,155.93,351.82,156Z"/><path class="cls-18" d="M334.93,160.06a2.84,2.84,0,0,0,2.22-1.26c1-1.22,1.53-3.47.37-4.52a2.78,2.78,0,0,0-2.74-.3,3.58,3.58,0,0,0-2,4.38A2.68,2.68,0,0,0,334.93,160.06Z"/><path class="cls-18" d="M338.78,172.14c0,.17-.24,1.89-1.48,2.29s-2.8-.74-3.11-2.07c-.42-1.81,1.52-3.81,2.89-3.56C338.2,169,339,170.74,338.78,172.14Z"/><path class="cls-12" d="M75.48,160.82a12.35,12.35,0,0,0,4.67-2.22A12.22,12.22,0,0,0,83.32,155l-1.45-2a9.82,9.82,0,0,1-7.5,5Z"/><path class="cls-12" d="M70.71,152l1.83,2.62a14.55,14.55,0,0,0,4.06-1.84A14.13,14.13,0,0,0,80,149.59l-.83-2.33a10.88,10.88,0,0,1-3.45,3.22A10.75,10.75,0,0,1,70.71,152Z"/><path class="cls-12" d="M253.86,116.75a8.19,8.19,0,0,0,8.05,5.73c.43-.76.86-1.52,1.28-2.28a6.78,6.78,0,0,1-8.06-4.78Z"/><path class="cls-12" d="M257.86,112.09,256.41,114a8.42,8.42,0,0,0,2.67,3.34,8.54,8.54,0,0,0,5.31,1.63l1.81-1.83a7.82,7.82,0,0,1-5.73-1.41A7.67,7.67,0,0,1,257.86,112.09Z"/><path class="cls-2" d="M291.81,274c-.33,0-.42,2.13-.44,3.45q-4.55,1.43-4.45,1.88t4.11,0c.23,3,.45,4.56.67,4.56s.45-1.63.67-4.89c2.34-.67,3.49-1.15,3.44-1.44s-1-.38-3-.34C292.56,275.94,292.13,274,291.81,274Z"/><path class="cls-2" d="M302,285.42c-.26,0-.54,1.84-.68,3-2.43.58-3.63,1-3.61,1.28s1.07.37,3.16.36c-.12,2.7-.1,4.06.07,4.07s.5-1.4,1-4.25c1.87-.39,2.8-.72,2.8-1s-.77-.42-2.28-.55C302.37,287.18,302.23,285.42,302,285.42Z"/><path class="cls-2" d="M298,278.46c-.36,0-.89,2.31-1.22,4q-5.06,2.15-4.89,2.66t4.89-.44c-.73,2.36-1,3.58-.78,3.67s1.05-1.2,2.45-3.89q4.63-1.35,4.55-1.78c0-.28-1.57-.28-4.55,0C298.47,281,298.41,278.49,298,278.46Z"/><path class="cls-2" d="M120.22,162a5.44,5.44,0,0,0,3.56,2.62,6,6,0,0,0,4.91-1.48,10,10,0,0,1-4.72.53A10.7,10.7,0,0,1,120.22,162Z"/><path class="cls-2" d="M123.24,150.23a5.27,5.27,0,0,0,1.23,4.38c1.85,1.73,5,.85,5,.74a7.79,7.79,0,0,1-4.14-1.56A8.25,8.25,0,0,1,123.24,150.23Z"/><path class="cls-2" d="M129.11,139.9a5.55,5.55,0,0,0,.45,4,4.91,4.91,0,0,0,3.3,2.32,9.78,9.78,0,0,1-2.59-2.72A10.1,10.1,0,0,1,129.11,139.9Z"/><path class="cls-2" d="M135.41,132.51a4.76,4.76,0,0,0,0,4.06,3.79,3.79,0,0,0,2.57,1.8A7.73,7.73,0,0,1,136,136.2,7,7,0,0,1,135.41,132.51Z"/><path class="cls-2" d="M141.33,127.26a4,4,0,0,0-.14,3,3.35,3.35,0,0,0,2,1.92,8.21,8.21,0,0,1-1.39-2.2A8.57,8.57,0,0,1,141.33,127.26Z"/><path class="cls-2" d="M148.61,121.81a3.09,3.09,0,0,0-.38,2.85,2.55,2.55,0,0,0,2.08,1.18,4.6,4.6,0,0,1-1.45-1.5A4.54,4.54,0,0,1,148.61,121.81Z"/><path class="cls-2" d="M153.81,117.92a3.45,3.45,0,0,0-.29,2.73,2.6,2.6,0,0,0,1.68,1.52,6.5,6.5,0,0,1-1.12-1.78A6.11,6.11,0,0,1,153.81,117.92Z"/><path class="cls-2" d="M159,114.11a2.87,2.87,0,0,0-.26,2.67,2.34,2.34,0,0,0,2.18,1,4.48,4.48,0,0,1-1.53-1.37A4.36,4.36,0,0,1,159,114.11Z"/><path class="cls-2" d="M163.61,110.28a2.84,2.84,0,0,0,.43,2.51,2.4,2.4,0,0,0,1.69.85,9.33,9.33,0,0,1-1.25-1.25A6.24,6.24,0,0,1,163.61,110.28Z"/><path class="cls-2" d="M168.67,105a2.11,2.11,0,0,0,.4,1.91,2.85,2.85,0,0,0,2.8.45,4.44,4.44,0,0,1-2.2-.91A7,7,0,0,1,168.67,105Z"/><path class="cls-2" d="M173.23,100.17a2,2,0,0,0,1.1,1.5,2.74,2.74,0,0,0,2.37-.31,5.43,5.43,0,0,1-2-.25A6.78,6.78,0,0,1,173.23,100.17Z"/><path class="cls-2" d="M177.06,95.83a1.83,1.83,0,0,0,.48,1.5,2,2,0,0,0,1.91.36,3.67,3.67,0,0,1-1.61-.75A4.82,4.82,0,0,1,177.06,95.83Z"/><path class="cls-2" d="M180.45,91.53a1.32,1.32,0,0,0,.58,1.06,2,2,0,0,0,1.87-.18,3.67,3.67,0,0,1-1.53-.27A10.49,10.49,0,0,1,180.45,91.53Z"/><path class="cls-2" d="M182.7,87.58a1.43,1.43,0,0,0,.82,1.11,1.9,1.9,0,0,0,1.82-.39,5.55,5.55,0,0,1-1.55-.16C183.1,87.9,182.76,87.52,182.7,87.58Z"/><path class="cls-2" d="M185,82.61a1.61,1.61,0,0,0,.84,1.23,1.71,1.71,0,0,0,1.66-.43,4.05,4.05,0,0,1-1.53-.16A6.11,6.11,0,0,1,185,82.61Z"/></g></g></svg>