<svg width="341" height="380" viewBox="0 0 341 380" fill="none" xmlns="http://www.w3.org/2000/svg">
<circle cx="158" cy="139" r="136" fill="#834DC7"/>
<path d="M221.1 176.58C218.39 175.28 215.16 175.63 213.5 175.81C209.92 176.2 208.2 177.41 205.57 178.28C202.72 179.23 199.31 179 192.5 178.53C186.37 178.11 179.06 177.55 170.26 174.33C168.85 173.81 167.69 173.33 166.91 173C166.05 173.54 164.93 174.12 163.56 174.57C160.9 175.44 158.55 175.4 157.08 175.25C161.03 173.9 163.97 172.18 165.9 170.87C168.64 169.02 172.87 166.08 175.6 160.68C176.27 159.36 176.69 158.2 176.93 157.44C177.19 158.28 177.5 159.67 177.27 161.35C177.16 162.2 176.94 162.91 176.72 163.47C178.06 163.65 181.7 163.95 185.43 161.89C189.93 159.41 191.51 155.2 192.01 153.83C193.55 149.55 192.7 145.95 191.54 140.98C190.55 136.75 187.96 131.84 182.79 122C181.67 119.88 180.49 118.56 179.54 117.31C178.22 115.57 177.55 114.69 176.63 113.96C175.04 112.7 174.46 112.99 171.71 111.51C170.03 110.61 168.58 109.83 167.23 108.39C166.43 107.53 165.26 106.01 164.54 103.59C166.01 105.79 169.9 111 175.39 111.73C177.48 112.01 180.71 111.75 181.09 111.72C184.91 111.41 184.85 110.79 187.23 110.7C191.14 110.55 194.33 112.08 198.63 114.14C200.4 114.99 204.43 118.2 206.01 119.15C208.18 120.46 211.2 116.91 210.7 115.68C210.35 114.82 205.6 111.65 201.19 109.11C195.67 105.93 193.85 107.27 188.44 103.99C186.43 102.77 184.95 101.54 184.08 100.76C188.86 99.6 192.74 99.27 195.25 99.17C197.67 99.08 218.67 98.42 220.95 98.34C221.35 98.33 222.4 98.28 223.18 97.55C224.64 96.21 224.23 93.13 223.88 91.91C223.53 90.7 222.89 89.1 222.07 88.83C221.07 88.5 219.86 90.21 219.69 90.36C219.1 90.25 218.51 90.15 217.91 90.04C214.96 89.49 211.13 88.88 209.11 88.51C207.85 88.28 206.05 88.46 205.29 87.08C197.28 72.53 187.98 75.93 181.25 71.57C179.86 70.67 178.85 69.74 178.25 69.14C177.3 66.13 175.91 62.27 173.92 57.92C172.61 55.05 170 49.71 165.72 43.4C162.34 38.41 159.2 33.86 153.66 29.4C150.95 27.22 147.3 24.77 146.84 25.28C146.11 26.08 154.33 32.09 159.61 43.47C160.74 45.91 163.12 51.16 163.77 58.32C164.37 64.88 163.31 70.81 162.68 74.3C162.37 76.06 162.04 77.51 161.79 78.55C161.43 77.43 159.53 71.85 153.84 69.18C151.09 67.89 148.53 67.79 147.02 67.85C150.05 69.44 151.61 71.36 152.39 72.53C153.48 74.16 154.11 75.94 155.08 78.67C155.54 79.97 155.88 81.06 156.09 81.8C155.55 81.48 150.45 78.62 145.14 81.04C142.03 82.46 140.46 84.95 139.9 85.97C140.52 85.54 145.28 82.38 150.06 84.27C151.3 84.76 152.25 85.47 152.97 86.16C152.54 86.17 144.88 86.47 142.03 92.1C141.25 93.65 141.03 95.2 141.03 96.46C141.75 95.56 143.95 93.07 147.5 92.54C148.51 92.39 149.43 92.43 150.18 92.53C149.06 93.85 147.56 96 147.06 98.91C146.27 103.53 148.46 107.34 151.56 112.53C152.85 114.7 155.49 118.33 160.75 125.59C162.54 128.06 163.35 129.15 164 131.06C164.42 132.28 166.27 138.25 162.91 142.68C161.97 143.92 160.88 144.69 160.12 145.14C160.89 143.87 162.3 141.15 162.23 137.54C162.17 134.58 161.15 132.43 160.32 130.73C159.62 129.29 158.01 126.4 154.49 123.25C145.74 115.42 133.8 113.35 133.8 113.35C130.37 112.75 119.51 111.04 107.84 116.84C102.45 116.22 97.98 116.44 94.81 116.78C89.66 117.34 79.57 118.57 70.13 125.77C66.79 128.32 64.45 130.92 62.99 132.71C64.52 131.58 66.69 130.14 69.46 128.79C73.3 126.92 76.83 125.94 79.39 125.42C77.23 132.02 76 137.81 75.27 142.3C74.78 145.28 74.26 148.62 73.95 152.36C68.01 160.23 64.66 167.96 62.74 173.5C64.69 170.84 66.87 168.1 69.32 165.33C70.78 163.68 72.24 162.12 73.71 160.64C73.76 162.84 73.92 165.16 74.21 167.62C74.94 173.8 76.3 178.88 77.46 182.43C74.95 189.93 73.24 197 72.08 203.43C73.04 201.52 74.47 198.76 76.31 195.49C77.8 192.85 78.95 190.82 80.01 189.12C84.35 199.06 89.58 205.17 90.75 206.51C92.19 208.16 93.53 209.52 94.63 210.56C96.32 215.34 98.69 218.73 100.05 220.47C99.05 217.52 97.82 212.77 98.01 206.84C98.14 202.85 98.87 199.45 99.69 196.8C107.53 204.69 116.57 208.32 120.14 209.7C121.83 210.36 123.27 210.83 124.28 211.14C123.94 207.53 124.54 204.82 125.05 203.2C125.7 201.13 126.31 200.44 126.72 200.07C128.6 198.36 131.33 198.7 132.42 198.83C133.06 198.91 138.06 199.6 139.69 203.62C140.23 204.96 140.22 206.2 140.14 206.97C138.19 202.68 134.6 200.21 131.52 200.73C129.36 201.1 127.97 202.86 127.61 203.31C127.11 203.95 125.75 205.86 125.84 212.03C125.93 218.27 127.36 220.35 126.31 225.1C126.03 226.38 125.66 227.39 125.42 228.01C123.9 227.06 118.59 224 113.24 225.91C111.76 226.44 110.84 227.15 109.11 228.49C105.88 230.99 101.68 234.24 101.09 239.23C100.95 240.44 100.9 242.66 102.22 245.49C101.91 240.91 103.35 236.87 106.22 235.43C108.17 234.45 110.48 234.82 111.47 234.97C115.19 235.55 116.13 237.58 118.74 237.53C119.99 237.5 121.8 237 123.99 234.61C124.52 235.61 125.43 237.04 126.9 238.4C128.25 239.65 129.15 239.99 130.26 240.74C133.15 242.7 134.47 245.51 135.75 248.22C137.18 251.25 137.77 254.09 138 256.26C137.84 251.62 137.78 247.86 137.76 245.31C137.69 238.74 137.81 237.33 137.07 234.7C135.96 230.74 134.73 230.53 134.71 227.78C134.69 224.73 136.15 220.55 139.16 219.17C140.84 218.4 142.1 218.9 144.07 217.6C145.31 216.78 146.08 215.74 146.52 215.03C146.58 217.65 145.84 218.69 145.19 219.17C144.12 219.95 142.92 219.45 140.95 220.3C139.84 220.78 139.06 221.43 138.61 221.87C140.39 222.65 144.3 224.66 147.34 229C148.32 230.4 151.04 234.4 151.05 239.94C151.06 243.95 149.64 246.8 147.61 250.9C145.03 256.1 144.62 255.94 141.38 260.06C135.02 267.06 132.54 275.5 135.56 280.9C138.3 285.8 144.9 287.68 151.42 288.48C153.42 288.73 164.89 289.2 164.89 289.2C164.89 289.2 171.13 290.06 172.51 293.43C173.89 296.8 180.14 302.77 180.14 302.77C180.14 302.77 178.74 298.76 179.25 295.16C179.62 292.55 180.63 289.33 173.24 285.82C170.32 284.43 166.75 283.46 158.64 282.73C150.53 282 148.41 279.38 148.41 279.38C144.53 273.53 151.6 267.59 151.6 267.59C153.42 266 160.24 260.74 164.21 255.9C166.72 252.84 168.16 249.68 169.18 247.17C170.85 244.04 176.86 231.85 172.03 219.79C169.19 212.68 163.62 208.22 160.38 205.62C155.49 201.7 149.57 198.72 141.81 194.82C139.02 193.42 138.36 193.16 136.78 192.37C131.08 189.52 118.32 183.16 110.7 170.97C107.65 166.09 101.71 156.6 105.4 148.07C107.12 144.1 111.59 138.79 117.67 137.77C118.15 137.69 119.14 137.55 121.02 137.65C129.75 138.11 140.84 142.77 147.75 152.46C148.49 153.5 149.47 155 150.44 156.92C149.16 157.98 147.35 159.63 145.53 161.96C143.77 164.21 142.7 165.58 142.19 167.55C141.31 170.93 142.32 175.1 144.78 177.71C146.81 179.86 150.63 180.4 158.2 181.37C167.57 182.58 168.34 181.39 171.95 183.02C172.95 183.48 175.08 184.56 177.87 184.35C179.54 184.23 180.88 183.68 181.78 183.22C180.68 184.08 178.31 186.18 177.21 189.71C175.85 194.07 177.29 197.8 177.9 199.32C178.77 201.48 179.95 203.04 180.81 204.01C180.51 202.89 178.57 195.38 181.91 192.83C183.16 191.88 185.12 191.64 187.27 191.37C190.54 190.96 191.65 191.55 193.08 190.69C194.02 190.12 195.16 188.89 195.64 185.88C201.07 188.17 204.51 187.7 206.7 186.75C209.32 185.61 210.01 183.84 214.18 182.15C216.53 181.2 218.7 180.35 220.77 181.24C222.13 181.83 223 183.13 224.69 185.7C225.9 187.55 226.74 189.17 227.27 190.28C227.48 184.08 225.22 178.56 221.1 176.58ZM222.15 90.63C223.12 91.33 222.42 93.94 222.32 94.3C222.14 93.8 221.85 93.01 221.5 92.01C221.2 91.18 221.06 90.76 221.22 90.55C221.4 90.34 221.88 90.44 222.15 90.63ZM173.46 84.53C174.5 83.37 175.07 83.14 175.5 83.06C175.98 82.97 176.43 83.03 177.8 83.5C179.7 84.16 180.67 84.64 180.67 84.64C183.57 86.08 185.91 87.48 187 88.14C187.75 88.59 188.8 89.24 190.07 90.05C187.34 90.9 181.82 92.17 175.64 90.21C173.87 89.65 172.36 88.92 171.1 88.18C171.88 86.46 172.79 85.27 173.46 84.53ZM78.78 178.7C77.59 174.2 76.13 167.01 76.11 158.32C78.96 155.6 81.79 153.17 84.54 151.02C83.9 156.18 84.19 160.87 84.74 164.68C83.56 167.1 82.41 169.62 81.3 172.27C80.39 174.44 79.56 176.59 78.78 178.7ZM92.87 202.75C92.98 203.84 93.15 204.89 93.35 205.9C92.59 205.15 91.75 204.28 90.88 203.29C85.92 197.65 83.25 191.96 81.44 187C82.15 186 82.87 185.1 83.68 184.21C84.82 182.95 86.46 181.37 88.68 179.75C89.87 182.78 91.56 186.29 94 189.89C93.11 193.02 92.33 197.47 92.87 202.75ZM88.83 136.61C88.56 137.16 88.31 137.7 88.07 138.25C85.63 140.1 83.1 142.26 80.58 144.79C79.18 146.2 77.88 147.62 76.66 149.05C76.95 146.54 77.34 144.08 77.78 141.34C78.81 134.88 80.06 129.4 81.17 125.14C82.06 125 82.73 124.93 83.11 124.89C88.16 124.41 92.56 125.04 95.98 125.9C92.03 130.27 89.87 134.52 88.83 136.61Z" fill="#63CFE3"/>
<path d="M282.58 132.49C277.65 132.08 275.8 133.93 272.61 134.1C262.89 134.62 253.78 117.74 254.56 117.04C254.76 116.86 255.53 117.84 258 119.13C260.57 120.48 262.65 119.94 264.96 121.46C265.46 121.79 266.23 122.39 266.98 123.47C266.73 122.49 266.24 121.12 265.21 119.79C263.29 117.3 260.62 116.42 259.76 116.11C254.22 114.11 250.43 109.26 246.92 106.58C235.15 97.5901 209.02 99.7101 206.67 104.08C223.1 100.96 229.55 103.68 232.27 107.11C233.75 108.99 235.2 112.45 239.4 115.33C242.56 117.5 245.79 118.32 248.01 118.68C242.94 119.61 239.8 118.6 237.9 117.58C233.33 115.11 231.97 110.37 226.91 109.37C225.32 109.06 223.96 109.23 223.17 109.38C223.37 110.75 224.07 114.33 227.05 117.48C229.17 119.71 231.49 120.75 232.79 121.21C229.44 120.71 226.02 119.58 222.93 117.36C218.35 114.08 217.67 110.67 213.18 107.77C211.41 106.63 209.26 105.72 206.65 105.21C207.27 106.24 209.73 107.13 212.98 111.01C219.34 118.59 217.2 123.86 222.23 127C226.18 129.47 228.01 126.53 235.22 128.99C236.61 129.46 241.56 131.29 246.13 136.01C250.18 140.2 251.98 144.65 252.77 147.14C252.99 145.67 253.2 143.48 252.93 140.85C252.3 134.78 249.6 130.95 250.31 130.46C250.93 130.04 253 132.94 256.52 135.73C259.63 138.19 264.96 142.41 270.53 141.82C275.6 141.28 276.42 137.21 284.26 135.26C286.44 134.72 288.3 134.55 289.54 134.5C288.04 133.73 285.63 132.74 282.58 132.49Z" fill="#95D4E9"/>
<path d="M152.15 117.6C152.83 116.42 144.98 112.91 138.94 103.66C135.12 97.8101 133.69 92.2301 131.41 83.3401C129.58 76.1901 128.81 69.9701 128.47 66.4701C128.29 64.6501 128.19 63.1101 128.13 62.0001C128.1 61.8101 128 61.2601 127.68 60.6601C123.66 53.0401 95.1501 57.1901 74.3901 68.1401C68.4001 71.3001 60.8201 76.2001 53.0801 83.9401C54.6901 82.5401 57.7901 80.2801 62.2301 79.4501C64.5101 79.0201 68.3101 78.3101 72.0701 80.4401C72.7801 80.8401 75.3301 82.3301 76.7701 85.4601C79.1201 90.5701 76.4601 95.5701 76.1201 96.1901C77.4601 95.3201 79.7201 94.1101 82.7101 93.7201C89.5301 92.8201 94.6601 96.8701 96.0201 97.9401C103.42 103.79 103.83 112.98 103.87 114.46C104.7 113.66 106.41 112.14 108.89 110.87C125.92 102.16 150.88 119.84 152.15 117.6Z" fill="#95D4E9"/>
<path d="M171.12 294.3C170.37 294.25 169.29 294.14 168.02 293.93C166.04 293.59 163.66 293.19 161.18 291.88C158.97 290.72 157.95 289.52 157.72 289.73C157.41 290.02 159.55 292.22 161.04 295.13C163.58 300.08 163.16 305.04 162.99 306.8C162.41 312.78 159.59 316.88 158.3 318.56C159.54 317.54 160.79 316.48 162.06 315.36C164.61 313.11 166.95 310.86 169.1 308.67C170.25 310.27 170.99 311.64 171.42 312.48C178.07 325.62 173.64 342.1 172.08 346.44C171.85 347.08 170.97 349.45 171.32 349.63C171.68 349.81 173.08 347.72 173.53 347.05C178.22 340.06 180.72 326.87 181.03 325.25C181.86 320.88 183.78 316.61 185.86 308.62C190.16 314.34 196.08 315.74 197.8 317.33C197.36 316.11 196.72 314.33 195.96 312.18C194.64 308.41 193.97 306.51 193.74 305.5C193.24 303.32 192.48 299.97 193.36 296.21C194.32 292.09 196.72 289.8 196.05 289.17C195.62 288.76 194.38 289.49 192.44 290.51C188.57 292.54 186.84 293.36 184.51 294.26C183.34 294.71 182.38 295 181.81 295.17C181.5 296.07 181.22 297.15 181.05 298.36C180.64 301.37 181.13 303.9 181.6 305.54C180.2 304.77 178.54 303.68 176.87 302.16C173.82 299.36 172.08 296.35 171.12 294.3Z" fill="#95D4E9"/>
<path d="M149.1 155.94C148.77 156.19 148.3 156.55 147.76 157C147.06 157.59 146.62 157.96 146.14 158.51C145.82 158.88 145.39 159.43 144.97 160.19C143.32 158.26 141.76 156.79 140.55 155.73C137.11 152.73 133.9 150.9 131.99 149.82C131.1 149.32 130.34 148.92 129.81 148.65C129.57 148.16 129.35 147.51 129.36 146.75C129.4 144.02 132.33 142.47 132.48 142.39C133.2 142.72 134.19 143.21 135.33 143.84C137.14 144.84 140.4 146.66 143.83 149.86C145.33 151.25 147.23 153.25 149.1 155.94Z" fill="#95D4E9"/>
<path d="M131.19 141.45C130.65 141.63 129.95 141.94 129.29 142.52C127.26 144.3 127.33 147.03 127.34 147.5C126.66 147.19 125.56 146.79 124.15 146.72C123.38 146.68 121.11 146.6 118.96 148.13C116.73 149.7 116.07 151.96 115.84 152.77C115.38 154.4 115.5 155.8 115.62 156.63C114.95 156.6 114.17 156.64 113.33 156.8C110.27 157.41 108.3 159.38 107.47 160.33C107.02 159.57 106.44 158.41 106.07 156.92C104.95 152.4 106.74 148.59 107.28 147.48C110.12 141.66 115.8 139.79 116.65 139.53C121.17 138.13 125.13 139.25 127.04 139.79C128.82 140.28 130.22 140.93 131.19 141.45Z" fill="#95D4E9"/>
<path d="M108.32 162.16C108.85 161.54 109.68 160.71 110.89 160.03C113.04 158.81 115.11 158.75 116.08 158.79C116.79 160.47 117.67 162.24 118.77 164.04C123.62 171.97 130.3 176.55 134.89 179.04C134.23 179.5 133.46 180.13 132.71 181C131.03 182.97 130.44 185.07 130.21 186.26C128.22 185.32 126.12 184.14 124 182.64C114.88 176.19 110.43 167.46 108.32 162.16Z" fill="#95D4E9"/>
<path d="M136.41 180.04C135.71 180.45 134.85 181.06 134.01 181.94C132.33 183.72 131.67 185.67 131.39 186.75C132.67 187.52 134.61 188.65 137.04 189.92C141.85 192.45 144.93 193.65 147.44 194.82C150.67 196.32 155.19 198.8 160.36 203.01C160.37 202.42 160.48 201.2 161.25 199.94C162.32 198.17 164.18 197.36 164.71 197.17C163.73 195.98 160.71 193.69 158.71 192.57C154.23 190.06 151.72 188.22 145.3 185.06C143.22 184.03 140.1 182.39 136.41 180.04Z" fill="#95D4E9"/>
<path d="M161.82 204.07C161.88 203.44 162.05 202.59 162.49 201.67C163.42 199.72 164.99 198.74 165.67 198.37C166.8 199.13 168.36 200.28 170.03 201.88C172.15 203.91 177.24 208.8 178.83 216.72C180.28 223.93 178.06 229.85 176.96 232.31C176.84 231.11 176.63 229.36 176.22 227.28C175.46 223.4 174.39 218.01 170.88 212.76C169.45 210.62 166.68 207.13 161.82 204.07Z" fill="#95D4E9"/>
<path d="M179.07 114.76C178.9 114.96 180.15 116.12 181.76 118.11C184.65 121.69 186.4 125.18 187.48 127.82C187.63 127.49 187.92 126.95 188.48 126.48C189.46 125.65 190.58 125.59 190.94 125.58C190.23 124.52 189.16 123.05 187.69 121.45C183.91 117.32 179.38 114.4 179.07 114.76Z" fill="#95D4E9"/>
<path d="M188.04 129.04C188.16 128.71 188.39 128.24 188.82 127.81C189.88 126.75 191.32 126.78 191.61 126.8C192.73 128.23 194.03 130.13 195.2 132.49C195.6 133.3 197.08 136.37 198.01 140.75C198.4 142.57 198.74 144.88 198.81 147.56C198.42 147.42 197.93 147.28 197.36 147.23C195.9 147.08 194.74 147.51 194.12 147.8C193.94 145.92 193.62 143.86 193.1 141.66C191.85 136.41 189.87 132.18 188.04 129.04Z" fill="#95D4E9"/>
<path d="M194.11 149.26C194.51 149.05 195.08 148.82 195.79 148.7C197.03 148.49 198.04 148.74 198.58 148.92C198.69 150.25 198.63 151.44 198.48 152.5C197.26 160.91 189.42 165.78 187.22 167.05C186.99 166.51 186.77 165.96 186.55 165.38C186.3 164.73 186.08 164.1 185.88 163.48C186.36 163.25 187.03 162.89 187.78 162.36C191.16 159.96 192.47 156.56 193.02 155.09C193.48 153.8 194.05 151.81 194.11 149.26Z" fill="#95D4E9"/>
<path d="M184.2 163.3C184.13 163.69 184.02 164.69 184.54 165.76C184.85 166.39 185.27 166.81 185.55 167.04C184.77 167.54 183.81 168.04 182.65 168.39C178.23 169.71 174.29 167.84 173.04 167.18C173.54 166.91 174.12 166.54 174.71 166.06C175.52 165.4 176.12 164.72 176.55 164.16C177.22 164.33 178.03 164.47 178.95 164.49C181.29 164.54 183.13 163.82 184.2 163.3Z" fill="#95D4E9"/>
<path d="M57.1901 346.58C55.8901 348.32 55.8201 348.82 55.3901 348.82C55.0201 348.82 54.2101 346.83 53.4701 346.09C53.0401 345.66 52.6601 345.1 51.9201 345.1C51.1701 345.1 50.6201 345.72 50.6201 346.28V363.04C50.6201 364.47 51.8601 365.65 53.2301 365.65C53.6001 365.65 53.9801 365.34 54.2201 365.09L56.3301 363.04C56.5801 362.85 56.7601 362.79 56.9501 362.79C57.2601 362.79 57.6301 363.29 57.6301 363.54C57.6301 363.73 57.6301 363.85 57.2001 364.22L51.9801 368.69C51.5501 369.06 51.4801 369.12 51.1701 369.12C50.9201 369.12 50.8001 368.93 50.4901 368.69C49.4301 367.82 46.5201 366.33 45.3401 365.83C44.7201 365.58 44.2801 365.4 44.2801 365.15C44.2801 364.78 44.8401 364.53 45.0301 364.34C45.9001 363.6 46.4001 362.79 46.4001 360.74V346.46C46.4001 346.21 45.9701 344.04 45.6501 343.73C45.0301 343.17 44.9001 343.17 44.2801 343.17C43.6001 343.17 43.0401 343.29 42.9101 342.86C42.9101 342.8 42.8501 342.67 42.8501 342.61C42.8501 342.42 42.9101 342.3 43.1601 342.05C43.5301 341.68 45.1501 340.56 45.8901 340C46.3201 339.69 46.5701 339.63 46.8201 339.63C47.1901 339.63 47.4401 339.94 47.6901 340.25L50.1101 343.04C50.4201 343.35 50.6701 343.72 51.1701 343.72C51.6701 343.72 51.9201 343.41 52.1601 343.04L53.4601 341.24C53.9601 340.56 54.3301 339.63 54.9501 339.63C55.3801 339.63 55.4501 339.88 56.5001 341.24C57.8701 342.98 58.7401 344.03 58.7401 344.47C58.7501 344.9 58.5001 344.78 57.1901 346.58Z" fill="#63CFE3"/>
<path d="M85.3499 365.52C84.9199 366.08 81.9999 367.76 80.6299 368.69C80.4399 368.81 80.1999 368.94 79.9499 368.94C79.6399 368.94 79.4499 368.88 79.2699 368.69L75.1099 364.34L69.3399 368.69C69.1499 368.81 68.9099 368.94 68.6599 368.94C68.3499 368.94 68.1599 368.88 67.9799 368.69L62.8299 364.65C62.5799 364.46 62.3999 364.22 62.3999 363.84C62.3999 363.53 62.5199 363.28 62.7099 363.09L63.1399 362.72C63.8899 362.1 64.1299 360.92 64.1299 359.93V355.89C64.1299 354.77 63.7599 354.28 63.7599 353.41C63.7599 352.54 63.6399 351.86 64.3199 351.61L68.5399 349.93C68.7299 349.87 68.8499 349.81 69.0399 349.81C69.5399 349.81 69.9699 350.24 69.9699 350.74C69.9699 351.05 69.7199 351.3 69.4699 351.55C68.2299 352.79 68.0999 353.04 68.0999 355.03V362.17C68.0999 362.98 68.5299 363.41 69.0899 363.85L70.0799 364.6C70.2699 364.79 70.4499 364.85 70.7599 364.85C71.0099 364.85 71.2599 364.73 71.4399 364.6L74.5399 362.8C75.1599 362.43 75.7799 361.81 75.7199 361V348.02C75.7199 345.47 74.5399 345.16 73.4199 344.85L65.5299 341.5C65.0999 341.31 64.5999 341.13 64.5999 340.63C64.5999 340.13 65.0299 339.57 65.5299 339.64L69.8099 340.38C73.0999 340.94 74.1599 341.06 77.1399 341.06C78.2599 341.06 79.1899 340.75 80.6199 340.19C80.7399 340.13 80.9899 339.94 81.2399 340C81.2999 340 81.8599 340 81.8599 340.74C81.8599 340.99 81.7999 341.3 81.4299 341.61C80.1899 342.6 79.9999 343.35 79.9999 345.65V361.24C79.9999 363.72 80.4299 364.53 81.7399 364.72C82.6099 364.84 83.4199 364.78 83.9799 364.22C84.1699 364.03 84.4099 363.97 84.5999 363.91C84.9099 363.91 85.5899 364.1 85.5899 364.84C85.5999 365.08 85.4699 365.33 85.3499 365.52Z" fill="#63CFE3"/>
<path d="M111.77 375.2L106 378.86C105.25 379.36 104.08 379.54 103.58 379.54C101.1 379.48 99.23 377.24 94.95 377.24C93.09 377.24 90.79 378.17 89.98 378.48C89.61 378.6 89.36 378.79 89.11 378.79C88.99 378.79 88.86 378.79 88.74 378.67C88.49 378.48 88.49 378.48 88.49 378.36C88.49 378.24 88.68 378.05 88.86 377.74L90.47 374.57C90.72 374.07 91.03 373.2 91.71 373.2C91.83 373.2 92.02 373.26 92.14 373.32C93.2 373.69 94.81 374.44 96.86 374.44C98.66 374.44 100.52 374.38 101.45 374.38C102.69 374.38 103.69 374.57 104.12 375.19C104.43 375.62 104.99 375.81 105.55 375.81C106.67 375.81 107.54 374.94 107.54 373.82C107.54 373.26 107.35 372.83 107.04 372.45L103.81 368.91C102.94 367.92 102.82 367.98 102.82 366.92V347.73C102.82 346.24 102.76 344.94 101.33 344.63L97.73 343.82C97.36 343.76 96.92 343.51 96.55 343.51C95.43 343.51 94.56 344.44 94.5 345.56L93.88 361.89C93.88 362.45 94.31 363.07 94.87 363.82L95.99 365.31C96.3 365.68 96.49 366.12 96.49 366.68C96.49 367.8 95.62 368.67 94.5 368.67C93.94 368.67 93.44 368.42 93.07 368.05L90.9 365.75C89.6 364.32 89.66 363.27 89.66 361.53V345.51C89.66 344.33 89.78 343.9 91.83 343.03L98.23 340.3C98.6 340.11 99.22 339.62 99.84 339.62C100.09 339.62 100.34 339.74 100.59 339.93C101.46 340.61 105.25 342.54 108.54 342.54C109.04 342.54 109.47 342.6 111.15 342.29C111.4 342.23 111.65 342.17 111.83 342.17C112.14 342.17 112.39 342.36 112.39 343.23C112.39 345.16 112.14 345.65 112.14 345.84C112.14 346.71 112.08 347.02 111.83 347.02C111.71 347.02 111.64 346.96 111.52 346.9C110.46 346.22 108.85 345.91 108.29 345.91C107.54 345.91 107.05 346.66 107.05 348.39V365.47C107.05 366.15 107.17 366.46 107.73 367.21L111.64 372.61C111.95 373.04 112.2 372.86 112.32 372.86C112.51 372.86 112.57 372.98 112.57 373.48C112.57 374.21 112.45 374.77 111.77 375.2Z" fill="#63CFE3"/>
<path d="M132.66 363.78C129.87 365.71 128.25 367.44 126.95 368.93C126.76 369.05 126.52 369.18 126.27 369.18C125.96 369.18 125.77 369.12 125.59 368.93C123.67 367 120.81 365.08 117.27 364.46C116.9 364.4 116.52 364.4 116.28 364.4C116.22 364.4 115.6 364.52 115.6 363.47C115.6 363.22 115.66 363.04 115.91 363.04C116.59 363.04 116.41 362.79 116.66 362.36C117.03 361.74 117.16 360.81 117.16 359.26L117.04 346.72C117.04 344.8 117.16 343.24 118.65 342.99L122.87 340.32C123.24 340.07 123.62 339.7 124.11 339.7C124.36 339.7 124.54 339.76 124.79 339.89C126.4 340.88 129.32 342.31 132.12 342.99C132.86 343.18 133.98 342.87 133.98 345.23V362.18C133.96 362.54 133.59 363.16 132.66 363.78ZM127.38 344.59L123.9 343.66C123.71 343.6 123.47 343.54 123.28 343.54C122.16 343.54 121.17 344.47 121.17 345.59L120.92 360.86C120.92 361.85 121.79 362.91 123.03 363.22L126.51 364.15C126.7 364.21 126.94 364.21 127.13 364.21C128.25 364.21 129.12 363.34 129.12 362.22L129.37 347.13C129.37 345.9 128.56 344.9 127.38 344.59Z" fill="#63CFE3"/>
<path d="M165.34 365.77L161.37 368.5C161 368.75 160.63 368.81 160.31 368.81C158.82 368.81 156.96 365.21 156.96 360.92V345.58C156.96 344.52 156.09 343.66 154.91 343.66C154.48 343.66 153.92 343.91 153.61 344.03L148.89 346.27C148.21 346.58 147.77 347.26 147.77 348.01V362.11C147.77 363.1 148.08 364.22 148.76 364.9L149.07 365.21C149.26 365.4 149.5 365.64 149.5 366.02C149.5 366.33 149.38 366.64 149.19 366.77L146.33 368.76C146.14 368.88 145.9 369.01 145.65 369.01C145.34 369.01 145.15 368.89 144.97 368.76L142.24 366.84C141.99 366.65 141.81 366.41 141.81 366.03C141.81 365.72 141.93 365.47 142.12 365.29L142.55 364.92C143.3 364.3 143.54 363.12 143.54 362.13V350.46C143.54 347.91 143.17 346.61 142.36 345.55C141.93 344.99 141.49 344.81 140.99 344.81C140.62 344.81 140.18 345 139.81 345.24C139.5 345.43 139.25 345.55 139.13 345.55C138.94 345.55 138.82 345.43 138.7 345.3C138.51 345.11 138.45 344.99 138.45 344.87C138.45 344.68 138.57 344.5 138.95 344.19L143.42 340.28C143.79 339.97 144.1 339.78 144.35 339.78C144.78 339.78 145.22 340.28 145.96 341.33L148.2 344.5L155.28 340.28C155.65 340.03 156.03 339.72 156.4 339.72C157.33 339.72 159.63 342.02 160.93 342.02C162.23 342.02 162.54 342.33 162.54 342.89C162.54 343.88 161.17 345.56 161.17 347.61V360.96C161.17 364.19 161.85 365 162.91 365C163.72 365 164.83 364.38 164.9 364.38C165.15 364.38 165.65 364.88 165.65 365.31C165.65 365.45 165.53 365.64 165.34 365.77Z" fill="#63CFE3"/>
<path d="M269.39 366.2L265.42 368.93C265.05 369.18 264.67 369.24 264.36 369.24C262.87 369.24 261.01 365.64 261.01 361.35L260.95 345.39C260.95 344.33 260.08 343.47 258.9 343.47C258.47 343.47 257.91 343.72 257.6 343.84L252.94 345.89C252.26 346.2 251.76 346.88 251.76 347.63L252.07 362.1C252.07 363.22 252.5 364.4 253.25 365.02L253.68 365.39C253.87 365.58 253.99 365.82 253.99 366.14C253.99 366.51 253.8 366.76 253.56 366.95L250.83 368.87C250.64 368.99 250.46 369.12 250.15 369.12C248.91 369.12 248.29 364.46 248.1 362.1L246.73 345.77C246.67 344.71 245.86 343.84 244.68 343.84C244.25 343.84 243.69 344.09 243.38 344.21L239.41 346.26C238.73 346.63 238.29 347.25 238.29 348V362.03C238.29 363.02 238.6 364.14 239.28 364.82L239.59 365.13C239.78 365.32 240.02 365.56 240.02 365.94C240.02 366.25 239.9 366.56 239.71 366.69L236.85 368.68C236.66 368.8 236.42 368.93 236.17 368.93C235.86 368.93 235.67 368.81 235.49 368.68L232.76 366.76C232.51 366.57 232.33 366.33 232.33 365.95C232.33 365.64 232.45 365.39 232.64 365.2L233.07 364.83C233.82 364.21 234.06 363.03 234.06 362.04V347.95C234.06 346.71 233 345.65 231.76 345.65H230.15C229.65 345.65 229.28 345.28 229.28 344.78C229.28 344.53 229.34 344.35 229.47 344.22L233.38 340.43C233.88 339.93 234.19 339.75 234.5 339.75C235.12 339.75 235.56 340.49 236.42 341.36L239.15 344.09L240.89 343.34L247.29 339.99C247.72 339.74 247.97 339.68 248.22 339.68C248.65 339.68 249.03 340.11 250.02 341.11L252.75 343.84L258.96 340.05C259.33 339.8 259.77 339.68 260.08 339.68C260.33 339.68 260.51 339.68 260.7 339.8C261.63 340.42 263.43 342.47 264.74 342.47C265.92 342.47 266.29 342.84 266.29 343.34C266.29 344.27 265.11 345.82 265.11 347.07L265.23 361.35C265.23 364.58 265.91 365.39 266.97 365.39C267.78 365.39 268.9 364.77 268.96 364.77C269.21 364.77 269.71 365.27 269.71 365.7C269.71 365.89 269.58 366.08 269.39 366.2Z" fill="#63CFE3"/>
<path d="M289.11 363.78C286.32 365.71 284.7 367.44 283.4 368.93C283.21 369.05 282.97 369.18 282.72 369.18C282.41 369.18 282.22 369.12 282.04 368.93C280.12 367 277.26 365.08 273.72 364.46C273.35 364.4 272.97 364.4 272.73 364.4C272.67 364.4 272.05 364.52 272.05 363.47C272.05 363.22 272.11 363.04 272.36 363.04C273.04 363.04 272.86 362.79 273.1 362.36C273.47 361.74 273.6 360.81 273.6 359.26L273.48 346.72C273.48 344.8 273.6 343.24 275.09 342.99L279.31 340.32C279.68 340.07 280.06 339.7 280.55 339.7C280.8 339.7 280.98 339.76 281.23 339.89C282.84 340.88 285.76 342.31 288.56 342.99C289.3 343.18 290.42 342.87 290.42 345.23V362.18C290.41 362.54 290.04 363.16 289.11 363.78ZM283.83 344.59L280.35 343.66C280.16 343.6 279.92 343.54 279.73 343.54C278.61 343.54 277.62 344.47 277.62 345.59L277.37 360.86C277.37 361.85 278.24 362.91 279.48 363.22L282.96 364.15C283.15 364.21 283.39 364.21 283.58 364.21C284.7 364.21 285.57 363.34 285.57 362.22L285.82 347.13C285.82 345.9 285.01 344.9 283.83 344.59Z" fill="#63CFE3"/>
<path d="M306.81 366.51L303.64 368.62C303.45 368.74 303.21 368.87 302.96 368.87C302.65 368.87 302.53 368.75 302.28 368.62L297.87 365.95C297.62 365.83 297.44 365.52 297.44 365.14C297.44 364.83 297.56 364.58 297.75 364.39L298.18 364.02C298.86 363.34 299.17 362.22 299.17 361.29V336.02C299.17 334.41 298.86 333.47 298.18 332.6C297.19 331.36 296.63 330.67 296.01 330.18C295.76 329.99 295.58 329.68 295.58 329.37C295.58 328.87 296.01 328.44 296.51 328.44C296.63 328.44 296.7 328.44 296.82 328.44L299.43 329L303.65 327.32C303.84 327.26 303.96 327.2 304.15 327.2C304.65 327.2 305.08 327.63 305.08 328.13C305.08 328.44 304.83 328.69 304.58 328.94C303.34 330.18 303.4 330.43 303.4 332.42V360.98C303.4 362.22 303.52 363.15 304.7 363.84L306.69 364.96C306.94 365.08 307.12 365.39 307.12 365.77C307.12 366.08 307.06 366.39 306.81 366.51ZM321.28 365.52C320.16 366.45 317.93 368 317.37 368.31C316.56 368.81 316.31 368.87 316.13 368.87C315.94 368.87 315.76 368.87 315.57 368.68C314.95 368.18 314.51 366.69 314.14 365.45L312.03 358.74C311.72 357.68 311.22 356.94 310.23 356.94C309.3 356.94 308.49 356.13 308.49 355.2C308.49 354.64 308.8 354.08 309.3 353.77L313.21 351.35C313.83 350.98 314.39 350.42 314.39 349.67C314.39 349.36 314.33 349.05 314.2 348.8C312.71 346.07 310.97 343.71 310.72 343.21C310.6 342.96 309.6 342.15 308.55 342.71L307.12 343.46C306.87 343.58 306.62 343.46 306.31 343.65C306.19 343.71 306.12 343.71 306.06 343.71C305.56 343.52 305.44 343.28 305.44 343.09C305.44 342.97 305.5 342.84 305.63 342.72C305.82 342.47 306.06 342.22 306.69 341.91L311.16 339.61C311.66 339.36 312.22 339.18 312.65 339.18C313.39 339.18 314.02 339.61 314.51 340.55L318.73 348C318.92 348.31 318.98 348.5 318.98 348.68C318.98 349.11 318.61 349.55 317.86 350.11L314.38 352.78L317.05 363.27C317.36 364.39 317.86 365.01 318.79 365.01C318.91 365.01 318.98 364.95 319.1 364.95C320.28 364.7 320.59 364.7 321.21 364.27C321.4 364.15 321.52 364.15 321.58 364.15C321.83 364.21 321.95 364.52 321.95 364.71C321.96 364.9 321.84 365.08 321.28 365.52Z" fill="#63CFE3"/>
<path d="M340.37 363.96L334.1 368.18C333.23 368.8 332.98 368.99 332.73 368.99C332.17 368.99 331.67 368.68 330.93 368.31C328.69 367.13 327.08 366.57 326.34 366.45C325.59 366.33 324.73 366.33 324.73 365.77C324.73 365.46 325.04 365.15 325.29 364.78C325.91 363.79 326.22 361.74 326.22 360.37L326.53 343.54C326.53 343.23 326.72 342.86 326.9 342.73L331.31 340.18C332.06 339.75 332.43 339.31 332.8 339.31C333.05 339.31 333.3 339.43 333.54 339.68L339.81 345.64C340.49 346.26 340.74 346.88 340.74 347.44C340.74 348.12 340.37 348.74 339.93 349.3L336.64 353.4C336.21 353.96 335.89 354.21 335.58 354.33C335.46 354.39 335.33 354.45 335.27 354.45C335.21 354.45 334.77 354.14 334.77 353.71C334.77 353.59 334.83 353.46 334.89 353.4C335.14 353.15 335.01 352.84 335.2 352.66L336.32 351.29C336.63 350.92 336.69 350.48 336.69 350.17C336.69 349.55 336.44 349.18 336.32 348.99C336.01 348.43 333.59 346.07 332.9 345.39C332.65 345.14 332.34 344.96 331.97 344.96C331.16 344.96 330.54 345.52 330.54 347.32V360.36C330.54 362.04 330.29 363.22 331.66 364.09C331.85 364.21 334.33 365.46 335.01 365.46C335.38 365.46 335.82 365.4 336.07 365.21L339.36 362.97C339.79 362.66 340.04 362.6 340.23 362.6C340.35 362.6 340.85 362.97 340.85 363.41C340.86 363.59 340.74 363.72 340.37 363.96Z" fill="#63CFE3"/>
<path d="M216.86 328.99C214.84 331.55 212.82 334.11 210.79 336.66C209.59 335.96 207.86 334.99 205.72 333.94C200.85 331.54 199.65 331.54 199.04 331.59C196.78 331.76 194.57 333.1 193.35 335.06C192.91 335.77 191.84 337.47 192.36 339.14C193.01 341.23 195.73 342.01 198.8 342.85C201.41 343.56 202.8 343.58 208.95 344.21C214.6 344.79 215.41 344.98 216.38 345.32C218.52 346.08 221.53 347.14 223.31 350.15C225.4 353.68 224.38 357.48 224.05 358.69C223.8 359.64 222.63 363.97 218.73 365.87C217.8 366.32 216.96 366.52 216.38 366.61C216.91 366.01 217.7 365.12 218.61 364.01C220.19 362.08 220.99 361.1 221.33 360.17C222.16 357.96 221.48 355.82 221.21 354.97C220.08 351.41 217.15 349.61 216.01 348.9C213.66 347.46 211.47 347.1 209.57 346.8C208.36 346.61 207.9 346.63 203.13 346.55C197.32 346.46 196.32 346.4 194.84 345.93C193.06 345.37 191.07 344.74 190.01 342.84C188.83 340.71 189.54 338.27 189.76 337.52C190.2 336.02 190.94 335.05 191.62 334.18C194.06 331.05 197.07 329.9 199.79 328.86C201.08 328.37 202.05 328.12 203.13 328.36C204.36 328.64 205.06 329.4 205.73 329.97C206.86 330.93 208.67 332.04 211.67 332.57C213.39 331.39 215.13 330.19 216.86 328.99Z" fill="#63CFE3"/>
<path d="M210.05 368.73C209.94 369.12 209.25 369.5 206.71 369.47C205.6 368.9 203.98 368.08 202.01 367.12C193.3 362.88 191.07 362.42 189.01 362.42C187.38 362.41 184.1 362 183.32 363.53C182.75 364.65 183.75 366.24 184.31 367.12C185.81 369.5 188.1 370.6 189.38 371.08C188.51 371.08 186.33 370.97 184.31 369.47C182.92 368.44 180.64 366.04 181.22 363.78C181.96 360.9 186.8 360.22 187.9 360.07C189.71 359.82 192.01 359.87 198.05 362.17C199.38 362.68 210.55 366.94 210.05 368.73Z" fill="#63CFE3"/>
<path d="M210.67 361.05C211.03 361.05 212.53 360.99 213.76 359.81C214.66 358.95 215.39 357.51 215.12 356.34C214.53 353.78 209.26 353.05 207.07 352.75C201.51 351.99 200.1 353.46 193.45 352.63C191.95 352.44 189.15 352.01 186.77 350.03C185.15 348.69 184.78 347.51 184.67 347.06C184.27 345.48 184.8 344.12 185.04 343.59C184.74 343.86 183.14 345.4 183.06 347.92C183.05 348.18 183.02 350.44 184.67 352.25C185.82 353.51 187.25 353.97 188.26 354.23C193.91 355.68 199.7 354.42 205.59 354.73C205.94 354.75 207.64 354.86 209.43 355.84C210.33 356.34 211.38 356.92 211.66 358.07C212.02 359.57 210.83 360.88 210.67 361.05Z" fill="#63CFE3"/>
<path d="M0 320.83C0.35 321.63 1.01 322.82 2.23 323.8C3.91 325.16 5.77 325.42 6.69 325.53C12.36 326.24 20.19 326.7 21.3 326.77C29.3 327.26 31.29 328.22 32.69 329.25C34.81 330.8 35.99 332.8 36.65 334.2C36.61 344.02 36.57 353.84 36.53 363.66C36.12 364.51 35.34 365.86 33.93 367.13C32.32 368.57 30.66 369.2 29.72 369.48C28.96 368.69 28.17 368.04 27.37 367.5C17.9 361.15 3.58 368.38 1.01 369.73C1.77 368.64 2.93 367.2 4.6 365.77C8.31 362.59 12.28 361.41 14.63 360.94C16.65 360.54 22.66 359.35 28.37 362.67C30.13 363.7 31.39 364.88 32.21 365.76C32.72 364.52 33.26 362.89 33.57 360.93C33.84 359.21 33.88 357.7 33.82 356.47C33.74 351.64 33.65 346.82 33.57 341.99C33.6 340.98 33.5 339.05 32.33 337.16C30.82 334.71 28.41 333.8 26.76 333.2C23.97 332.19 22.03 332.3 18.22 332.21C11.11 332.05 7.56 331.97 5.59 330.85C3.51 329.68 1.11 327.1 0 320.83Z" fill="#63CFE3"/>
<path d="M14.3401 334.9C14.1601 335.32 13.8501 335.94 13.3701 336.6C12.7401 337.46 12.3901 337.6 12.0201 338.15C11.4101 339.04 11.4301 340 11.4701 341.46C11.5301 343.8 12.1801 344.53 11.6001 345.6C11.3801 346.02 11.0001 346.29 10.2401 346.83C7.94007 348.47 6.30007 348.78 6.34007 349.17C6.37007 349.43 7.14007 349.73 10.5501 349.84C11.0401 350.45 11.6601 351.26 11.9701 352.35C12.7801 355.19 10.9001 358.56 11.5501 359.08C11.6801 359.18 11.8401 359.15 11.8901 359.14C12.8501 359.02 13.2701 356.43 13.6101 354.17C13.6901 353.67 13.7801 353.02 13.9501 351.26C14.1801 348.86 14.2701 347.46 14.3401 346.58C14.8701 340.21 16.6301 337.37 14.9201 335.43C14.6801 335.15 14.4601 334.98 14.3401 334.9Z" fill="#63CFE3"/>
</svg>
