<svg width="394" height="224" viewBox="0 0 394 224" fill="none" xmlns="http://www.w3.org/2000/svg">
<path d="M175.38 2.76L176.17 0H236.7L235.91 2.76H215.6L182.67 94.44C181.49 97.86 180.23 101.08 178.92 104.1C177.6 107.13 176.12 110.05 174.48 112.87C172.83 115.7 170.96 118.49 168.86 121.25C166.76 124.01 164.33 126.84 161.56 129.73C157.62 133.94 153.51 137.19 149.24 139.49C144.97 141.79 140.46 142.94 135.73 142.94C133.23 142.94 130.77 142.64 128.34 142.05C125.91 141.46 123.78 140.54 121.93 139.29C120.09 138.04 118.58 136.37 117.4 134.26C116.22 132.16 115.63 129.66 115.63 126.77C115.63 122.56 116.75 119.28 118.98 116.91C121.21 114.54 123.91 113.36 127.06 113.36C129.82 113.36 131.96 114.02 133.47 115.33C134.98 116.65 135.74 118.36 135.74 120.46C135.74 122.43 135.48 124.01 134.96 125.19C134.43 126.37 133.8 127.46 133.08 128.44C132.36 129.42 131.73 130.44 131.21 131.5C130.69 132.55 130.43 133.93 130.43 135.64C130.43 137.48 130.98 138.73 132.11 139.39C133.22 140.05 134.57 140.38 136.15 140.38C136.94 140.38 137.99 140.28 139.31 140.08C140.62 139.88 142.07 139.26 143.65 138.21C145.23 137.16 146.87 135.48 148.58 133.18C150.28 130.88 152 127.69 153.71 123.62L159.03 111L197.67 2.76H175.38Z" fill="black"/>
<path d="M214.71 53.18C214.9 52.25 215.08 50.91 215.27 49.15C215.45 47.39 215.55 45.59 215.55 43.73C215.55 40.77 214.99 38.2 213.88 36.02C212.77 33.85 211.27 32.06 209.37 30.67C207.47 29.28 205.23 28.24 202.64 27.55C200.05 26.86 197.27 26.51 194.31 26.51C189.5 26.51 185.01 27.9 180.84 30.68C176.67 33.46 172.86 37.07 169.38 41.51C165.91 45.95 162.81 50.98 160.07 56.58C157.34 62.18 155.03 67.81 153.13 73.45C151.23 79.1 149.8 84.51 148.83 89.7C147.86 94.89 147.37 99.33 147.37 103.03C147.37 110.53 149.4 116.11 153.48 119.76C157.55 123.42 163.34 125.25 170.84 125.25C171.62 125.25 199.9 125.32 200.42 125.42C201.99 125.73 202.68 126.75 201.34 127.13C200.75 127.3 171.86 127.05 170.56 127.05C164.26 127.05 158.96 125.92 154.66 123.65C150.35 121.38 146.88 118.42 144.24 114.76C141.6 111.1 139.7 106.91 138.55 102.19C137.39 97.47 136.81 92.61 136.81 87.61C136.81 81.96 137.66 76.5 139.38 71.22C141.09 65.94 143.41 60.97 146.32 56.29C149.24 51.62 152.64 47.33 156.53 43.44C160.42 39.55 164.51 36.22 168.82 33.44C173.13 30.66 177.5 28.49 181.94 26.91C186.38 25.34 190.64 24.55 194.71 24.55C197.76 24.55 200.45 24.83 202.77 25.38C205.08 25.93 207.14 26.56 208.95 27.25C210.76 27.95 212.4 28.57 213.88 29.12C215.36 29.68 216.8 29.95 218.19 29.95C219.67 29.95 220.88 29.56 221.8 28.77C222.73 27.98 223.47 27.03 224.02 25.92L226.1 26.34L216.52 53.14H214.71V53.18Z" fill="black"/>
<path d="M192.06 81.87L192.6 79.99H268.32L260.15 102.77H258.27C258.54 101.7 258.83 100.09 259.14 97.95C259.45 95.81 259.61 93.8 259.61 91.92C259.61 88.79 258.89 86.34 257.46 84.55C256.03 82.76 253.17 81.87 248.88 81.87H219.67L203.85 125.42H222.88C225.65 125.42 228.11 124.71 230.25 123.28C232.4 121.85 234.23 120.2 235.75 118.32C237.27 116.44 238.52 114.57 239.5 112.69C240.48 110.82 241.19 109.39 241.64 108.4H243.52L229.58 147.53H227.7C227.97 146.55 228.31 145.16 228.7 143.37C229.1 141.58 229.31 139.66 229.31 137.61C229.31 134.04 228.31 131.42 226.29 129.77C224.28 128.12 221.08 127.29 216.71 127.29H203.17L186.55 173.52H202.23L201.69 175.4H160.41L160.95 173.52H174.49L207.32 81.85H192.06V81.87Z" fill="black"/>
<path d="M10.9802 207.55C10.9802 208.5 10.8802 209.4 10.6802 210.23C10.4802 211.07 10.1602 211.8 9.70023 212.43C9.25023 213.06 8.65023 213.55 7.91023 213.91C7.17023 214.27 6.26023 214.45 5.19023 214.45C4.45023 214.45 3.76023 214.36 3.13023 214.19C2.50023 214.02 1.96023 213.76 1.49023 213.42C1.03023 213.08 0.660234 212.68 0.390234 212.22C0.120234 211.76 -0.00976562 211.23 -0.00976562 210.65C-0.00976562 209.95 0.190234 209.39 0.580234 208.96C0.970234 208.53 1.56023 208.32 2.32023 208.32C2.67023 208.32 2.96023 208.38 3.19023 208.49C3.42023 208.6 3.60023 208.74 3.73023 208.89C3.86023 209.04 3.95023 209.21 4.01023 209.4C4.07023 209.59 4.10023 209.75 4.10023 209.89C4.10023 210.15 4.07023 210.37 4.00023 210.55C3.93023 210.74 3.86023 210.92 3.79023 211.11C3.72023 211.3 3.65023 211.49 3.58023 211.7C3.51023 211.91 3.48023 212.18 3.48023 212.5C3.48023 213.03 3.64023 213.41 3.95023 213.63C4.26023 213.85 4.69023 213.96 5.22023 213.96C5.89023 213.96 6.44023 213.71 6.86023 213.21C7.28023 212.71 7.49023 211.83 7.49023 210.58V189.6H3.62023V189.11H14.8402V189.6H10.9702V207.55H10.9802Z" fill="black"/>
<path d="M19.8603 205.28C19.8603 205.51 19.8503 205.75 19.8403 205.99C19.8303 206.23 19.8203 206.54 19.8203 206.91C19.8203 207.68 19.8703 208.48 19.9603 209.31C20.0503 210.15 20.2603 210.9 20.5703 211.57C20.8803 212.24 21.3503 212.8 21.9603 213.24C22.5803 213.68 23.3903 213.9 24.4203 213.9C25.4503 213.9 26.2803 213.75 26.9503 213.45C27.6103 213.15 28.1403 212.78 28.5203 212.35C28.9003 211.92 29.1903 211.48 29.3703 211.04C29.5603 210.6 29.7003 210.24 29.7903 209.96L30.3103 210.06C30.2403 210.32 30.1103 210.68 29.9103 211.16C29.7103 211.64 29.4003 212.11 28.9703 212.59C28.5403 213.07 27.9603 213.48 27.2303 213.84C26.5003 214.2 25.5503 214.38 24.3903 214.38C23.2303 214.38 22.1503 214.19 21.1703 213.82C20.1803 213.45 19.3303 212.91 18.6103 212.22C17.8903 211.52 17.3303 210.69 16.9403 209.73C16.5503 208.77 16.3503 207.69 16.3503 206.51C16.3503 205.49 16.5503 204.49 16.9603 203.53C17.3703 202.57 17.9203 201.71 18.6303 200.97C19.3403 200.23 20.1703 199.63 21.1203 199.18C22.0703 198.73 23.0903 198.5 24.1903 198.5C24.8403 198.5 25.5403 198.62 26.2803 198.85C27.0203 199.08 27.7103 199.46 28.3503 199.98C28.9903 200.5 29.5203 201.19 29.9503 202.05C30.3803 202.91 30.5903 203.98 30.5903 205.26H19.8603V205.28ZM27.0403 204.79C27.0903 204.46 27.1103 204.16 27.1103 203.88C27.1103 203.6 27.1103 203.31 27.1103 203.01C27.1103 202.22 27.0303 201.57 26.8803 201.06C26.7303 200.55 26.5203 200.14 26.2503 199.84C25.9803 199.54 25.6603 199.32 25.2703 199.19C24.8903 199.06 24.4703 199 24.0303 199C23.2403 199 22.5903 199.16 22.0803 199.47C21.5703 199.78 21.1603 200.21 20.8603 200.74C20.5603 201.27 20.3303 201.89 20.1803 202.59C20.0303 203.29 19.9303 204.02 19.8803 204.79H27.0403Z" fill="black"/>
<path d="M33.1401 213.44H35.8201V199.47H33.1401V198.98H38.7501V202.5H38.8201C38.9101 202.15 39.0601 201.76 39.2701 201.31C39.4801 200.87 39.7701 200.44 40.1401 200.04C40.5101 199.63 40.9601 199.29 41.4801 199.01C42.0001 198.73 42.6401 198.59 43.3801 198.59C43.9101 198.59 44.3801 198.68 44.7701 198.85C45.1601 199.02 45.4901 199.25 45.7501 199.51C46.0001 199.78 46.1901 200.08 46.3101 200.43C46.4301 200.78 46.4801 201.13 46.4801 201.48C46.4801 202.25 46.3101 202.76 45.9601 203.01C45.6101 203.27 45.2101 203.39 44.7401 203.39C43.7201 203.39 43.2101 203.06 43.2101 202.41C43.2101 202.2 43.2301 202.03 43.2801 201.9C43.3301 201.77 43.3801 201.64 43.4401 201.52C43.5001 201.39 43.5501 201.25 43.6001 201.08C43.6501 200.92 43.6701 200.68 43.6701 200.38C43.6701 199.64 43.2601 199.27 42.4501 199.27C42.0801 199.27 41.6801 199.41 41.2701 199.69C40.8601 199.97 40.4601 200.38 40.1001 200.91C39.7401 201.44 39.4401 202.09 39.1901 202.84C38.9501 203.6 38.8201 204.46 38.8201 205.44V213.42H41.8501V213.91H33.1401V213.44Z" fill="black"/>
<path d="M51.4702 205.28C51.4702 205.51 51.4602 205.75 51.4502 205.99C51.4402 206.23 51.4302 206.54 51.4302 206.91C51.4302 207.68 51.4802 208.48 51.5702 209.31C51.6602 210.15 51.8702 210.9 52.1802 211.57C52.4902 212.24 52.9602 212.8 53.5702 213.24C54.1902 213.68 55.0002 213.9 56.0302 213.9C57.0602 213.9 57.8902 213.75 58.5602 213.45C59.2202 213.15 59.7502 212.78 60.1302 212.35C60.5102 211.92 60.8002 211.48 60.9802 211.04C61.1702 210.6 61.3102 210.24 61.4002 209.96L61.9202 210.06C61.8502 210.32 61.7202 210.68 61.5202 211.16C61.3202 211.64 61.0102 212.11 60.5802 212.59C60.1502 213.07 59.5702 213.48 58.8402 213.84C58.1102 214.2 57.1602 214.38 56.0002 214.38C54.8402 214.38 53.7602 214.19 52.7802 213.82C51.7902 213.45 50.9402 212.91 50.2202 212.22C49.5002 211.52 48.9402 210.69 48.5502 209.73C48.1602 208.77 47.9602 207.69 47.9602 206.51C47.9602 205.49 48.1602 204.49 48.5702 203.53C48.9802 202.57 49.5302 201.71 50.2402 200.97C50.9502 200.23 51.7802 199.63 52.7302 199.18C53.6802 198.73 54.7002 198.5 55.8002 198.5C56.4502 198.5 57.1502 198.62 57.8902 198.85C58.6302 199.08 59.3202 199.46 59.9602 199.98C60.6002 200.5 61.1302 201.19 61.5602 202.05C61.9902 202.91 62.2002 203.98 62.2002 205.26H51.4702V205.28ZM58.6502 204.79C58.7002 204.46 58.7202 204.16 58.7202 203.88C58.7202 203.6 58.7202 203.31 58.7202 203.01C58.7202 202.22 58.6402 201.57 58.4902 201.06C58.3402 200.55 58.1302 200.14 57.8602 199.84C57.5902 199.54 57.2702 199.32 56.8802 199.19C56.5002 199.06 56.0802 199 55.6402 199C54.8502 199 54.2002 199.16 53.6902 199.47C53.1802 199.78 52.7702 200.21 52.4702 200.74C52.1702 201.27 51.9402 201.89 51.7902 202.59C51.6402 203.29 51.5402 204.02 51.4902 204.79H58.6502Z" fill="black"/>
<path d="M64.5002 213.44H67.1802V199.47H64.5002V198.98H70.1102V202.64H70.1802C70.6702 201.25 71.3702 200.22 72.2902 199.57C73.2102 198.92 74.3202 198.59 75.6202 198.59C76.7802 198.59 77.8102 198.85 78.7002 199.36C79.5902 199.87 80.1802 200.72 80.4602 201.9H80.5302C80.6902 201.48 80.9102 201.08 81.1902 200.68C81.4702 200.29 81.8202 199.93 82.2402 199.62C82.6602 199.31 83.1502 199.06 83.7202 198.87C84.2902 198.68 84.9302 198.59 85.6502 198.59C89.0402 198.59 90.7402 200.32 90.7402 203.78V213.43H93.4202V213.92H85.0602V213.43H87.7402V201.58C87.7402 200.79 87.5202 200.17 87.1002 199.73C86.6702 199.29 86.0802 199.07 85.3402 199.07C84.7602 199.07 84.1802 199.18 83.6002 199.4C83.0202 199.62 82.5002 199.95 82.0302 200.39C81.5602 200.83 81.1902 201.4 80.9002 202.1C80.6102 202.8 80.4602 203.61 80.4602 204.54V213.43H83.1402V213.92H74.7802V213.43H77.4602V202.07C77.4602 201.05 77.2502 200.29 76.8302 199.8C76.4102 199.31 75.8502 199.07 75.1602 199.07C74.6702 199.07 74.1402 199.19 73.5602 199.44C72.9802 199.68 72.4402 200.07 71.9402 200.59C71.4402 201.11 71.0202 201.79 70.6902 202.63C70.3502 203.47 70.1802 204.49 70.1802 205.7V213.44H72.8602V213.93H64.5002V213.44Z" fill="black"/>
<path d="M93.6003 198.97H102.14V199.46H99.2103L103.71 210.4L108.41 199.46H105.52V198.97H110.85V199.46H108.97L103.22 212.91C102.78 213.91 102.36 214.91 101.97 215.92C101.57 216.93 101.18 217.95 100.78 218.97C100.45 219.81 100.13 220.54 99.8003 221.17C99.4703 221.8 99.1302 222.31 98.7702 222.7C98.4102 223.09 98.0203 223.39 97.6003 223.59C97.1803 223.79 96.6903 223.89 96.1403 223.89C95.4703 223.89 94.9302 223.79 94.5202 223.58C94.1102 223.37 93.7902 223.13 93.5602 222.85C93.3302 222.57 93.1803 222.28 93.1103 221.98C93.0403 221.68 93.0103 221.42 93.0103 221.21C93.0103 220.63 93.1703 220.19 93.5003 219.9C93.8203 219.61 94.2203 219.46 94.6803 219.46C94.8403 219.46 95.0202 219.48 95.2002 219.51C95.3902 219.55 95.5603 219.61 95.7203 219.7C95.8803 219.79 96.0203 219.92 96.1403 220.08C96.2603 220.24 96.3102 220.44 96.3102 220.67C96.3102 221 96.2103 221.3 96.0103 221.59C95.8103 221.88 95.7103 222.2 95.7103 222.55C95.7103 222.85 95.7902 223.05 95.9502 223.14C96.1102 223.23 96.3303 223.28 96.6103 223.28C96.9803 223.28 97.3203 223.19 97.6403 223.02C97.9503 222.85 98.2602 222.56 98.5602 222.17C98.8602 221.77 99.1603 221.26 99.4703 220.62C99.7703 219.98 100.11 219.2 100.48 218.27L102.01 214.37L96.0003 199.46H93.6003V198.97Z" fill="black"/>
<path d="M143.61 213.92H143.09C142.93 213.73 142.74 213.57 142.53 213.41C142.32 213.26 141.99 213.18 141.55 213.18C141.2 213.18 140.82 213.24 140.42 213.37C140.01 213.5 139.55 213.64 139.03 213.81C138.51 213.97 137.92 214.12 137.27 214.25C136.62 214.38 135.9 214.44 135.11 214.44C133.65 214.44 132.22 214.17 130.84 213.64C129.46 213.11 128.15 212.23 126.92 211.03C125.78 209.89 124.83 208.54 124.06 206.99C123.29 205.43 122.91 203.63 122.91 201.59C122.91 199.85 123.22 198.19 123.85 196.61C124.48 195.03 125.35 193.64 126.46 192.43C127.58 191.22 128.89 190.26 130.4 189.56C131.91 188.85 133.56 188.5 135.35 188.5C136.07 188.5 136.71 188.57 137.27 188.71C137.83 188.85 138.33 189.01 138.77 189.18C139.21 189.35 139.62 189.51 139.99 189.65C140.36 189.79 140.72 189.86 141.07 189.86C141.53 189.86 141.86 189.78 142.06 189.63C142.26 189.48 142.44 189.31 142.6 189.12H143.12V196.09H142.74C142.53 195.21 142.26 194.34 141.94 193.48C141.61 192.62 141.16 191.86 140.58 191.2C140 190.54 139.26 190 138.37 189.6C137.48 189.19 136.37 188.99 135.04 188.99C133.81 188.99 132.75 189.18 131.87 189.57C130.99 189.95 130.24 190.46 129.64 191.1C129.04 191.74 128.55 192.48 128.19 193.33C127.83 194.18 127.56 195.07 127.37 196.01C127.18 196.95 127.06 197.9 127 198.87C126.94 199.83 126.91 200.75 126.91 201.61C126.91 204.05 127.11 206.07 127.5 207.67C127.89 209.27 128.45 210.54 129.16 211.47C129.87 212.4 130.72 213.05 131.72 213.42C132.72 213.79 133.82 213.98 135.03 213.98C136.59 213.98 137.84 213.76 138.79 213.32C139.74 212.88 140.51 212.3 141.09 211.6C141.67 210.89 142.11 210.09 142.41 209.2C142.71 208.31 142.98 207.42 143.21 206.53H143.59V213.92H143.61Z" fill="black"/>
<path d="M162.04 213.54C161.74 213.77 161.38 213.98 160.96 214.15C160.54 214.32 160.03 214.41 159.43 214.41C158.31 214.41 157.51 214.17 157.01 213.7C156.51 213.22 156.17 212.56 155.98 211.7H155.91C155.82 211.91 155.69 212.17 155.53 212.48C155.37 212.79 155.12 213.1 154.78 213.39C154.44 213.68 154 213.92 153.44 214.12C152.88 214.32 152.17 214.42 151.31 214.42C150.33 214.42 149.56 214.31 148.98 214.09C148.4 213.87 147.95 213.6 147.62 213.27C147.29 212.94 147.08 212.58 146.98 212.17C146.88 211.76 146.82 211.39 146.82 211.04C146.82 210.23 146.98 209.58 147.31 209.09C147.63 208.6 148.06 208.21 148.58 207.92C149.1 207.63 149.68 207.39 150.32 207.21C150.96 207.02 151.6 206.83 152.25 206.62C153.02 206.36 153.65 206.14 154.15 205.96C154.65 205.77 155.04 205.55 155.32 205.28C155.6 205.01 155.79 204.68 155.9 204.27C156 203.86 156.06 203.31 156.06 202.61C156.06 202.05 156.03 201.55 155.96 201.11C155.89 200.67 155.76 200.29 155.58 199.98C155.39 199.67 155.13 199.43 154.78 199.27C154.43 199.11 153.97 199.03 153.39 199.03C152.62 199.03 151.99 199.16 151.49 199.43C150.99 199.7 150.74 200.13 150.74 200.74C150.74 201.14 150.77 201.52 150.84 201.91C150.91 202.29 150.94 202.58 150.94 202.76C150.94 203.09 150.82 203.36 150.59 203.58C150.36 203.8 150.02 203.91 149.58 203.91C148.81 203.91 148.34 203.77 148.15 203.49C147.96 203.21 147.87 202.85 147.87 202.41C147.87 201.9 147.99 201.41 148.22 200.95C148.45 200.49 148.8 200.07 149.25 199.71C149.7 199.35 150.27 199.07 150.96 198.86C151.64 198.65 152.43 198.55 153.31 198.55C154.38 198.55 155.27 198.68 155.99 198.95C156.71 199.22 157.29 199.58 157.73 200.03C158.17 200.48 158.48 200.99 158.67 201.56C158.86 202.13 158.95 202.73 158.95 203.35V212.03C158.95 212.7 159.05 213.16 159.26 213.39C159.47 213.62 159.77 213.74 160.17 213.74C160.42 213.74 160.69 213.69 160.97 213.6C161.25 213.51 161.51 213.37 161.77 213.18L162.04 213.54ZM155.94 205.39H155.87C155.82 205.69 155.44 205.99 154.72 206.3L152.11 207.35C151.37 207.65 150.8 208.08 150.4 208.62C150.01 209.17 149.81 209.85 149.81 210.66C149.81 211.01 149.85 211.37 149.91 211.74C149.97 212.11 150.11 212.44 150.29 212.73C150.48 213.02 150.74 213.26 151.07 213.44C151.41 213.63 151.84 213.72 152.38 213.72C153.15 213.72 153.77 213.56 154.24 213.23C154.72 212.9 155.08 212.5 155.32 212.01C155.56 211.52 155.73 210.99 155.81 210.42C155.89 209.85 155.93 209.33 155.93 208.87V205.39H155.94Z" fill="black"/>
<path d="M163.12 213.44H165.8V189.29H163.12V188.8H168.8V213.44H171.48V213.93H163.12V213.44Z" fill="black"/>
<path d="M173.43 213.44H176.11V189.29H173.43V188.8H179.11V213.44H181.79V213.93H173.43V213.44Z" fill="black"/>
<path d="M184.34 206.47C184.34 205.33 184.59 204.27 185.09 203.3C185.59 202.32 186.23 201.48 187.01 200.77C187.79 200.06 188.66 199.51 189.62 199.11C190.58 198.71 191.53 198.52 192.46 198.52C193.39 198.52 194.34 198.72 195.3 199.11C196.26 199.5 197.13 200.06 197.91 200.77C198.69 201.48 199.33 202.32 199.83 203.3C200.33 204.28 200.58 205.33 200.58 206.47C200.58 207.56 200.35 208.59 199.88 209.55C199.42 210.51 198.8 211.36 198.05 212.08C197.3 212.8 196.43 213.37 195.45 213.79C194.47 214.21 193.48 214.42 192.45 214.42C191.42 214.42 190.43 214.21 189.45 213.79C188.47 213.37 187.61 212.8 186.85 212.08C186.09 211.36 185.48 210.52 185.02 209.55C184.57 208.59 184.34 207.56 184.34 206.47ZM187.82 206.47C187.82 208.12 187.95 209.43 188.2 210.41C188.45 211.39 188.79 212.14 189.21 212.66C189.63 213.18 190.12 213.53 190.67 213.69C191.23 213.85 191.82 213.93 192.45 213.93C193.08 213.93 193.67 213.85 194.23 213.69C194.79 213.53 195.27 213.19 195.69 212.66C196.11 212.14 196.44 211.39 196.7 210.41C196.96 209.43 197.08 208.12 197.08 206.47C197.08 205.08 196.99 203.91 196.8 202.97C196.61 202.03 196.33 201.26 195.95 200.67C195.57 200.08 195.08 199.65 194.5 199.4C193.92 199.14 193.23 199.02 192.44 199.02C191.65 199.02 190.96 199.15 190.38 199.4C189.8 199.66 189.32 200.08 188.93 200.67C188.55 201.26 188.26 202.03 188.08 202.97C187.92 203.9 187.82 205.07 187.82 206.47Z" fill="black"/>
<path d="M201.66 198.97H210.06V199.46H207.17L211.07 210.33L214.69 201.72L213.82 199.46H212.36V198.97H219.29V199.46H216.96L221 210.26L225.36 199.46H222.08V198.97H227.76V199.46H225.91L219.67 215.07L214.93 202.42L209.63 215.07L204.02 199.46H201.65V198.97H201.66Z" fill="black"/>
<path d="M243.93 213.54C243.63 213.77 243.27 213.98 242.85 214.15C242.43 214.32 241.92 214.41 241.32 214.41C240.2 214.41 239.4 214.17 238.9 213.7C238.4 213.22 238.06 212.56 237.87 211.7H237.8C237.71 211.91 237.58 212.17 237.42 212.48C237.26 212.79 237.01 213.1 236.67 213.39C236.33 213.68 235.89 213.92 235.33 214.12C234.77 214.32 234.06 214.42 233.2 214.42C232.22 214.42 231.45 214.31 230.87 214.09C230.29 213.87 229.84 213.6 229.51 213.27C229.18 212.94 228.97 212.58 228.87 212.17C228.77 211.76 228.71 211.39 228.71 211.04C228.71 210.23 228.87 209.58 229.2 209.09C229.52 208.6 229.95 208.21 230.47 207.92C230.99 207.63 231.57 207.39 232.21 207.21C232.85 207.02 233.49 206.83 234.14 206.62C234.91 206.36 235.54 206.14 236.04 205.96C236.54 205.77 236.93 205.55 237.21 205.28C237.49 205.01 237.68 204.68 237.79 204.27C237.89 203.86 237.95 203.31 237.95 202.61C237.95 202.05 237.92 201.55 237.85 201.11C237.78 200.67 237.65 200.29 237.47 199.98C237.28 199.67 237.02 199.43 236.67 199.27C236.32 199.11 235.86 199.03 235.28 199.03C234.51 199.03 233.88 199.16 233.38 199.43C232.88 199.7 232.63 200.13 232.63 200.74C232.63 201.14 232.66 201.52 232.73 201.91C232.8 202.29 232.83 202.58 232.83 202.76C232.83 203.09 232.71 203.36 232.48 203.58C232.25 203.8 231.91 203.91 231.47 203.91C230.7 203.91 230.23 203.77 230.04 203.49C229.85 203.21 229.76 202.85 229.76 202.41C229.76 201.9 229.88 201.41 230.11 200.95C230.34 200.49 230.69 200.07 231.14 199.71C231.59 199.35 232.16 199.07 232.85 198.86C233.53 198.65 234.32 198.55 235.2 198.55C236.27 198.55 237.16 198.68 237.88 198.95C238.6 199.22 239.18 199.58 239.62 200.03C240.06 200.48 240.37 200.99 240.56 201.56C240.75 202.13 240.84 202.73 240.84 203.35V212.03C240.84 212.7 240.94 213.16 241.15 213.39C241.36 213.62 241.66 213.74 242.06 213.74C242.31 213.74 242.58 213.69 242.86 213.6C243.14 213.51 243.4 213.37 243.66 213.18L243.93 213.54ZM237.83 205.39H237.76C237.71 205.69 237.33 205.99 236.61 206.3L234 207.35C233.26 207.65 232.69 208.08 232.29 208.62C231.9 209.17 231.7 209.85 231.7 210.66C231.7 211.01 231.74 211.37 231.8 211.74C231.86 212.11 232 212.44 232.18 212.73C232.37 213.02 232.63 213.26 232.96 213.44C233.3 213.63 233.73 213.72 234.27 213.72C235.04 213.72 235.66 213.56 236.13 213.23C236.61 212.9 236.97 212.5 237.21 212.01C237.45 211.52 237.62 210.99 237.7 210.42C237.78 209.85 237.82 209.33 237.82 208.87V205.39H237.83Z" fill="black"/>
<path d="M243.34 198.97H251.88V199.46H248.95L253.45 210.4L258.15 199.46H255.26V198.97H260.59V199.46H258.71L252.96 212.91C252.52 213.91 252.1 214.91 251.71 215.92C251.31 216.93 250.92 217.95 250.52 218.97C250.19 219.81 249.87 220.54 249.54 221.17C249.21 221.8 248.87 222.31 248.51 222.7C248.15 223.09 247.76 223.39 247.34 223.59C246.92 223.79 246.43 223.89 245.88 223.89C245.21 223.89 244.67 223.79 244.26 223.58C243.85 223.37 243.53 223.13 243.3 222.85C243.07 222.57 242.92 222.28 242.85 221.98C242.78 221.68 242.75 221.42 242.75 221.21C242.75 220.63 242.91 220.19 243.24 219.9C243.56 219.61 243.96 219.46 244.42 219.46C244.58 219.46 244.76 219.48 244.94 219.51C245.13 219.55 245.3 219.61 245.46 219.7C245.62 219.79 245.76 219.92 245.88 220.08C246 220.24 246.05 220.44 246.05 220.67C246.05 221 245.95 221.3 245.75 221.59C245.55 221.88 245.45 222.2 245.45 222.55C245.45 222.85 245.53 223.05 245.69 223.14C245.85 223.23 246.07 223.28 246.35 223.28C246.72 223.28 247.06 223.19 247.38 223.02C247.69 222.85 248 222.56 248.3 222.17C248.6 221.77 248.9 221.26 249.21 220.62C249.51 219.98 249.85 219.2 250.22 218.27L251.75 214.37L245.72 199.46H243.32V198.97H243.34Z" fill="black"/>
<path d="M271 213.44H274.87V189.6H271V189.11H290.93V195.14H290.55C290.25 194.23 289.92 193.44 289.57 192.75C289.22 192.07 288.8 191.48 288.32 191.01C287.83 190.53 287.25 190.18 286.58 189.95C285.91 189.72 285.09 189.6 284.14 189.6H278.36V200.89H280.62C281.39 200.89 282.04 200.82 282.57 200.68C283.1 200.54 283.56 200.28 283.95 199.9C284.34 199.52 284.66 198.99 284.93 198.33C285.2 197.67 285.46 196.81 285.71 195.77H286.09V206.61H285.71C285.55 205.94 285.38 205.29 285.21 204.66C285.04 204.03 284.79 203.48 284.48 202.99C284.17 202.5 283.75 202.11 283.23 201.82C282.71 201.53 282.03 201.38 281.19 201.38H278.37V213.44H282.24V213.93H271V213.44Z" fill="black"/>
<path d="M307.25 213.54C306.95 213.77 306.59 213.98 306.17 214.15C305.75 214.32 305.24 214.41 304.64 214.41C303.52 214.41 302.72 214.17 302.22 213.7C301.72 213.22 301.38 212.56 301.19 211.7H301.12C301.03 211.91 300.9 212.17 300.74 212.48C300.58 212.79 300.33 213.1 299.99 213.39C299.65 213.68 299.21 213.92 298.65 214.12C298.09 214.32 297.38 214.42 296.52 214.42C295.54 214.42 294.77 214.31 294.19 214.09C293.61 213.87 293.16 213.6 292.83 213.27C292.5 212.94 292.29 212.58 292.19 212.17C292.09 211.76 292.03 211.39 292.03 211.04C292.03 210.23 292.19 209.58 292.52 209.09C292.84 208.6 293.27 208.21 293.79 207.92C294.31 207.63 294.89 207.39 295.53 207.21C296.17 207.02 296.81 206.83 297.46 206.62C298.23 206.36 298.86 206.14 299.36 205.96C299.86 205.77 300.25 205.55 300.53 205.28C300.81 205.01 301 204.68 301.11 204.27C301.21 203.86 301.27 203.31 301.27 202.61C301.27 202.05 301.24 201.55 301.17 201.11C301.1 200.67 300.97 200.29 300.79 199.98C300.6 199.67 300.34 199.43 299.99 199.27C299.64 199.11 299.18 199.03 298.6 199.03C297.83 199.03 297.2 199.16 296.7 199.43C296.2 199.7 295.95 200.13 295.95 200.74C295.95 201.14 295.98 201.52 296.05 201.91C296.12 202.29 296.15 202.58 296.15 202.76C296.15 203.09 296.03 203.36 295.8 203.58C295.57 203.8 295.23 203.91 294.79 203.91C294.02 203.91 293.55 203.77 293.36 203.49C293.17 203.21 293.08 202.85 293.08 202.41C293.08 201.9 293.2 201.41 293.43 200.95C293.66 200.49 294.01 200.07 294.46 199.71C294.91 199.35 295.48 199.07 296.17 198.86C296.85 198.65 297.64 198.55 298.52 198.55C299.59 198.55 300.48 198.68 301.2 198.95C301.92 199.22 302.5 199.58 302.94 200.03C303.38 200.48 303.69 200.99 303.88 201.56C304.07 202.13 304.16 202.73 304.16 203.35V212.03C304.16 212.7 304.26 213.16 304.47 213.39C304.68 213.62 304.98 213.74 305.38 213.74C305.63 213.74 305.9 213.69 306.18 213.6C306.46 213.51 306.72 213.37 306.98 213.18L307.25 213.54ZM301.15 205.39H301.08C301.03 205.69 300.65 205.99 299.93 206.3L297.32 207.35C296.58 207.65 296.01 208.08 295.61 208.62C295.22 209.17 295.02 209.85 295.02 210.66C295.02 211.01 295.06 211.37 295.12 211.74C295.18 212.11 295.32 212.44 295.5 212.73C295.69 213.02 295.95 213.26 296.28 213.44C296.62 213.63 297.05 213.72 297.59 213.72C298.36 213.72 298.98 213.56 299.45 213.23C299.93 212.9 300.29 212.5 300.53 212.01C300.77 211.52 300.94 210.99 301.02 210.42C301.1 209.85 301.14 209.33 301.14 208.87V205.39H301.15Z" fill="black"/>
<path d="M309.3 209.05H309.68C309.84 209.61 310.05 210.17 310.31 210.74C310.57 211.31 310.91 211.83 311.34 212.31C311.77 212.79 312.3 213.18 312.92 213.48C313.55 213.78 314.3 213.93 315.19 213.93C315.93 213.93 316.6 213.7 317.18 213.25C317.76 212.8 318.05 212.06 318.05 211.04C318.05 210.16 317.82 209.54 317.37 209.18C316.92 208.82 316.39 208.54 315.78 208.33L313.06 207.39C312.71 207.27 312.33 207.13 311.93 206.95C311.53 206.77 311.15 206.53 310.8 206.22C310.45 205.91 310.17 205.51 309.95 205.02C309.73 204.53 309.62 203.9 309.62 203.14C309.62 202.49 309.75 201.89 310 201.33C310.25 200.77 310.6 200.28 311.04 199.87C311.48 199.45 312.01 199.13 312.63 198.89C313.25 198.66 313.91 198.54 314.63 198.54C315.14 198.54 315.55 198.58 315.87 198.66C316.18 198.74 316.46 198.82 316.69 198.9C316.92 198.98 317.13 199.06 317.32 199.14C317.51 199.22 317.73 199.26 317.98 199.26C318.23 199.26 318.42 199.17 318.54 198.98H318.92V202.95H318.54C318.38 202.44 318.19 201.95 317.98 201.47C317.77 200.99 317.52 200.57 317.23 200.2C316.94 199.83 316.58 199.54 316.15 199.33C315.72 199.12 315.21 199.02 314.63 199.02C313.51 199.02 312.65 199.27 312.03 199.77C311.41 200.27 311.11 200.94 311.11 201.77C311.11 202.51 311.37 203.08 311.89 203.46C312.41 203.84 313.18 204.2 314.21 204.52L316.75 205.36C317.84 205.73 318.74 206.24 319.43 206.89C320.13 207.54 320.48 208.4 320.48 209.47C320.48 210.1 320.36 210.71 320.11 211.32C319.87 211.92 319.51 212.45 319.03 212.91C318.55 213.36 317.97 213.73 317.29 214.01C316.6 214.29 315.82 214.43 314.94 214.43C314.43 214.43 313.96 214.38 313.53 214.27C313.1 214.17 312.7 214.06 312.35 213.94C311.99 213.82 311.66 213.71 311.36 213.61C311.06 213.51 310.78 213.45 310.52 213.45C310.26 213.45 310.08 213.5 309.96 213.61C309.84 213.72 309.75 213.82 309.68 213.94H309.3V209.05V209.05Z" fill="black"/>
<path d="M323.07 213.44H325.75V189.29H323.07V188.8H328.75V202.5H328.82C328.94 202.2 329.13 201.82 329.41 201.37C329.69 200.92 330.07 200.49 330.54 200.08C331.02 199.67 331.6 199.33 332.28 199.03C332.97 198.74 333.78 198.59 334.74 198.59C336.27 198.59 337.52 198.96 338.49 199.71C339.45 200.45 339.94 201.64 339.94 203.26V213.44H342.62V213.93H334.26V213.44H336.94V202.18C336.94 201.27 336.73 200.53 336.3 199.95C335.87 199.37 335.2 199.08 334.3 199.08C333.56 199.08 332.85 199.24 332.17 199.57C331.5 199.9 330.9 200.35 330.39 200.93C329.88 201.51 329.48 202.2 329.19 202.99C328.9 203.78 328.75 204.64 328.75 205.57V213.45H331.43V213.94H323.07V213.44Z" fill="black"/>
<path d="M344.46 213.44H347.14V199.47H344.46V198.98H350.14V213.44H352.82V213.93H344.46V213.44ZM346.73 190.85C346.73 190.34 346.91 189.9 347.27 189.54C347.63 189.18 348.06 189 348.58 189C349.09 189 349.53 189.18 349.89 189.54C350.25 189.9 350.43 190.34 350.43 190.85C350.43 191.36 350.25 191.8 349.89 192.16C349.53 192.52 349.09 192.7 348.58 192.7C348.07 192.7 347.63 192.52 347.27 192.16C346.91 191.8 346.73 191.37 346.73 190.85Z" fill="black"/>
<path d="M355.37 206.47C355.37 205.33 355.62 204.27 356.12 203.3C356.62 202.32 357.26 201.48 358.04 200.77C358.82 200.06 359.69 199.51 360.65 199.11C361.61 198.71 362.56 198.52 363.49 198.52C364.42 198.52 365.37 198.72 366.33 199.11C367.29 199.5 368.16 200.06 368.94 200.77C369.72 201.48 370.36 202.32 370.86 203.3C371.36 204.28 371.61 205.33 371.61 206.47C371.61 207.56 371.38 208.59 370.91 209.55C370.45 210.51 369.83 211.36 369.08 212.08C368.33 212.8 367.46 213.37 366.48 213.79C365.5 214.21 364.51 214.42 363.48 214.42C362.45 214.42 361.46 214.21 360.48 213.79C359.5 213.37 358.64 212.8 357.88 212.08C357.12 211.36 356.51 210.52 356.05 209.55C355.6 208.59 355.37 207.56 355.37 206.47ZM358.85 206.47C358.85 208.12 358.98 209.43 359.23 210.41C359.48 211.39 359.82 212.14 360.24 212.66C360.66 213.18 361.15 213.53 361.7 213.69C362.26 213.85 362.85 213.93 363.48 213.93C364.11 213.93 364.7 213.85 365.26 213.69C365.82 213.53 366.3 213.19 366.72 212.66C367.14 212.14 367.47 211.39 367.73 210.41C367.99 209.43 368.11 208.12 368.11 206.47C368.11 205.08 368.02 203.91 367.83 202.97C367.64 202.03 367.36 201.26 366.98 200.67C366.6 200.08 366.11 199.65 365.53 199.4C364.95 199.14 364.26 199.02 363.47 199.02C362.68 199.02 361.99 199.15 361.41 199.4C360.83 199.66 360.35 200.08 359.96 200.67C359.58 201.26 359.29 202.03 359.11 202.97C358.95 203.9 358.85 205.07 358.85 206.47Z" fill="black"/>
<path d="M374.05 213.44H376.73V199.47H374.05V198.98H379.66V202.71H379.73C379.87 202.41 380.07 202.02 380.34 201.56C380.61 201.1 380.97 200.64 381.44 200.2C381.9 199.76 382.49 199.38 383.18 199.07C383.88 198.76 384.72 198.6 385.72 198.6C387.25 198.6 388.5 198.97 389.47 199.72C390.43 200.46 390.92 201.65 390.92 203.27V213.45H393.6V213.94H385.24V213.45H387.92V202.19C387.92 201.28 387.71 200.54 387.28 199.96C386.85 199.38 386.18 199.09 385.28 199.09C384.54 199.09 383.83 199.25 383.15 199.58C382.48 199.91 381.88 200.36 381.37 200.94C380.86 201.52 380.46 202.21 380.17 203C379.88 203.79 379.73 204.65 379.73 205.58V213.46H382.41V213.95H374.05V213.44V213.44Z" fill="black"/>
</svg>
