<svg width="360" height="160" viewBox="0 0 360 160" fill="none" xmlns="http://www.w3.org/2000/svg">
<path d="M182.462 31.2488C183.222 30.3988 183.992 30.5488 184.232 31.6188C184.792 34.3088 183.822 37.5488 180.082 42.5788C174.672 49.8588 162.552 65.0388 153.662 79.1088C153.132 79.9588 152.592 80.2688 151.512 79.5088C148.652 77.3788 147.392 74.6188 147.972 69.2188C149.192 57.2788 152.892 39.3188 155.602 31.9088C156.052 30.7488 156.592 30.5888 157.292 31.4288C159.082 33.4888 159.412 36.3388 158.152 42.2788C156.592 49.6788 154.142 60.5488 152.312 72.3388C159.592 59.9088 175.662 38.4588 182.462 31.2488Z" fill="black"/>
<path d="M175.292 79.0288C168.212 79.0888 166.592 69.3188 172.912 60.0388C179.002 51.1388 185.052 47.5488 188.972 47.5188C191.972 47.4988 193.532 49.8688 193.552 52.5588C194.692 50.6288 195.682 49.0788 196.212 48.3088C196.822 47.3788 197.432 47.1488 198.052 47.8288C199.292 49.1988 199.862 52.4288 198.192 56.2888C196.682 59.7688 192.652 65.7988 190.982 69.7388C189.172 74.1388 189.502 76.9888 191.882 76.7388C196.802 76.2388 203.652 66.7188 207.182 55.3788C200.932 53.1988 208.162 42.6688 211.232 42.4188C213.612 42.2488 212.882 46.7888 211.312 52.1188C214.082 51.7888 216.922 50.4588 219.822 48.4388C220.892 47.6588 221.432 47.4988 222.132 48.2688C223.602 49.8688 225.482 53.3988 223.272 56.0288C219.692 60.2088 215.802 65.6288 214.602 69.4888C213.332 73.7288 214.202 76.7288 216.582 76.8588C219.822 77.0688 223.622 71.9588 226.042 66.1588C226.342 65.5388 226.882 65.3788 227.192 66.1488C227.582 67.0688 227.832 68.9888 226.922 71.1488C224.952 75.7788 220.442 79.2088 216.212 79.0788C210.362 78.8988 208.012 73.5988 209.812 67.4288C211.312 62.3388 215.962 56.6088 219.242 52.8888C215.872 54.9188 212.572 55.7888 210.182 55.8088C206.492 66.6888 199.662 78.3688 191.432 79.0488C187.202 79.3888 184.872 76.7188 184.912 72.7888C182.502 75.9688 179.062 78.9988 175.292 79.0288ZM178.012 63.0688C173.912 69.7188 173.112 76.4188 176.122 76.4788C179.202 76.5288 183.162 71.8088 187.032 64.8488C191.742 56.4188 192.392 51.5688 190.162 51.4288C187.772 51.2988 182.192 56.2688 178.012 63.0688Z" fill="black"/>
<path d="M224.842 67.7088C226.722 62.0788 231.732 52.9488 234.542 48.9288C235.232 47.9988 235.762 47.7688 236.382 48.4488C237.542 49.6688 238.192 52.9788 236.372 56.8388C234.782 60.2388 231.592 65.4988 230.002 69.3588C228.192 73.8388 228.372 76.8388 230.832 76.6588C234.292 76.4788 238.482 71.3688 240.752 66.0388C241.132 65.3388 241.672 65.4188 241.982 66.0288C242.602 67.2588 242.392 68.8688 241.482 70.8088C239.212 75.5988 234.392 78.8688 230.082 78.8988C224.232 78.9488 222.732 74.0288 224.842 67.7088ZM241.842 47.4788C240.852 48.5688 238.692 48.3488 237.522 46.3588C236.272 44.2888 236.642 41.9788 237.862 40.6588C239.082 39.3388 241.322 40.2488 242.342 42.3188C243.362 44.3188 242.842 46.3988 241.842 47.4788Z" fill="black"/>
<path d="M289.572 78.5888C284.572 78.6288 282.622 75.5688 283.202 71.0988C280.532 74.6588 276.642 78.7688 272.252 78.4188C266.782 77.9988 266.582 72.3788 268.242 67.2888C268.842 65.3588 269.822 63.0488 271.112 60.6488C268.962 61.6688 266.582 62.2988 264.192 62.0888C262.472 68.5688 257.842 76.2288 252.392 78.1088C249.552 79.0588 245.622 78.7788 242.592 74.7988C239.172 70.2888 240.272 63.6588 243.612 57.4788C246.492 52.1488 251.232 47.7988 255.852 47.4588C258.162 47.2888 259.472 47.9688 261.102 50.0288C262.972 52.3188 265.122 52.7688 264.782 58.4688C264.782 58.9288 264.712 59.3888 264.642 60.0088C269.032 59.8988 273.232 56.2488 275.812 51.9888C276.572 50.7488 277.792 49.0488 278.702 47.7288C279.312 46.8788 280.002 46.9488 280.622 47.6388C282.332 50.1688 281.982 53.3988 279.242 57.9588C276.512 62.5188 274.762 65.6088 273.332 69.2388C271.822 73.0188 272.072 75.7088 273.772 75.8488C276.772 76.0588 281.042 70.7888 285.072 64.0588C289.782 56.2488 291.972 50.9188 294.332 47.5888C295.012 46.5788 295.632 46.4288 296.252 47.1088C297.422 48.4888 298.062 51.7888 296.242 55.6488C294.572 59.1288 290.852 64.7688 289.112 68.7888C287.142 73.2688 287.482 76.4188 290.252 76.2488C293.402 76.0688 297.372 70.9588 300.252 65.5488C300.632 64.8488 301.242 64.7688 301.632 65.4588C302.022 66.1488 302.042 68.1488 300.982 70.2388C298.782 74.6688 294.112 78.5488 289.572 78.5888ZM254.202 53.1588C252.212 54.8688 249.922 57.4988 248.252 60.5188C245.062 66.3188 244.042 73.3288 246.062 75.0788C248.082 76.8388 252.822 74.0288 256.622 66.9888C257.832 64.7488 258.592 62.6588 259.262 60.7388C256.632 59.2988 254.232 56.3088 254.202 53.1588ZM257.972 53.2788C257.752 55.3588 258.392 57.2788 259.782 58.4988C260.382 56.2588 260.442 54.3388 260.272 53.0288C259.952 50.5688 258.192 51.1288 257.972 53.2788Z" fill="black"/>
<path d="M310.442 51.2488C310.802 48.2488 311.562 46.7788 313.162 45.2988C314.842 43.7488 316.612 43.4288 317.312 44.1088C318.092 44.8688 317.712 45.7188 316.722 47.4988C316.422 47.9588 316.192 48.4288 315.892 48.9688C315.412 56.0488 316.922 62.0488 316.732 67.3588C316.602 70.3588 316.092 73.5988 313.332 75.4688C318.472 73.4988 321.672 68.8588 323.562 64.6888C323.942 63.8388 324.712 64.0688 325.022 64.6788C325.332 65.3688 325.272 67.3688 323.982 69.7688C321.102 75.0988 315.892 78.0688 310.432 78.3388C305.972 78.5288 301.652 77.4088 298.992 72.6588C297.122 69.2088 297.312 64.1288 299.912 61.9488C300.832 61.1688 301.452 61.4788 301.532 62.7088C301.612 63.3188 301.622 63.9388 301.702 64.5588C304.822 60.2288 308.242 55.1988 310.442 51.2488ZM302.422 68.7088C303.612 73.1588 305.872 76.2988 308.402 75.5088C311.932 74.3988 310.682 62.3288 310.332 56.1788C308.132 60.2788 305.312 64.5288 302.422 68.7088Z" fill="black"/>
<path d="M162.842 126.499C156.942 137.559 147.702 146.269 137.622 142.659C131.542 140.489 129.142 134.969 129.092 128.909C128.972 113.169 142.682 99.3888 151.002 96.3688C155.272 94.8588 158.972 95.6388 161.062 97.7688C170.262 101.689 168.302 116.259 162.842 126.499ZM159.602 99.5588C155.972 98.2588 146.632 103.359 139.772 114.199C132.762 125.259 132.712 137.749 137.762 139.859C142.652 141.889 151.322 135.909 157.442 124.479C164.062 112.079 163.672 100.999 159.602 99.5588Z" fill="black"/>
<path d="M188.042 117.219C189.622 120.309 186.692 124.249 185.252 128.249C184.962 129.139 184.672 129.359 183.702 128.849C181.922 127.979 180.872 125.769 181.882 122.439C182.672 119.769 184.862 116.579 183.822 115.769C182.562 114.739 177.052 119.519 173.782 126.269C169.782 134.649 171.382 140.769 175.742 140.809C181.952 140.829 187.222 134.879 190.212 130.199C190.572 129.609 191.242 129.529 191.542 130.259C191.772 130.849 191.482 132.699 190.242 134.699C187.472 139.079 181.662 142.749 176.042 142.869C166.662 143.089 163.412 133.949 168.142 124.379C172.802 115.029 180.232 110.989 183.942 113.169C185.942 114.349 187.142 115.519 188.042 117.219Z" fill="black"/>
<path d="M211.012 117.029C212.592 120.119 209.662 124.059 208.222 128.059C207.932 128.949 207.642 129.169 206.672 128.659C204.892 127.789 203.842 125.579 204.852 122.249C205.642 119.579 207.832 116.389 206.792 115.579C205.532 114.549 200.022 119.329 196.752 126.079C192.752 134.459 194.352 140.579 198.712 140.619C204.922 140.639 210.192 134.689 213.182 130.009C213.542 129.419 214.212 129.339 214.512 130.069C214.742 130.659 214.452 132.509 213.212 134.509C210.442 138.889 204.632 142.559 199.012 142.679C189.632 142.899 186.382 133.769 191.112 124.189C195.772 114.839 203.202 110.799 206.912 112.979C208.922 114.169 210.112 115.339 211.012 117.029Z" fill="black"/>
<path d="M238.252 112.749C238.912 111.779 239.502 111.629 240.022 112.289C241.142 113.609 241.762 116.779 240.012 120.489C238.412 123.829 234.762 129.399 233.022 133.329C231.202 137.479 231.162 140.659 233.672 140.489C236.702 140.319 240.722 135.259 243.272 130.139C243.632 129.469 244.152 129.389 244.452 130.059C244.752 130.719 244.762 132.569 243.822 134.649C241.932 138.729 237.312 142.829 233.242 142.639C229.252 142.449 227.162 140.099 227.132 136.629C224.792 139.679 221.492 142.439 217.942 142.469C211.072 142.519 209.592 133.149 215.652 124.159C221.572 115.389 227.382 112.019 231.072 111.989C234.252 111.969 235.742 114.389 235.622 117.269C236.572 115.499 237.442 113.939 238.252 112.749ZM232.362 115.829C229.992 115.629 224.642 120.469 220.632 127.079C216.762 133.469 215.852 139.979 218.742 140.029C221.772 140.079 225.582 135.319 229.292 128.789C233.872 120.619 234.502 116.039 232.362 115.829Z" fill="black"/>
<path d="M253.122 116.329C253.472 113.439 254.192 112.039 255.742 110.619C257.352 109.129 259.052 108.819 259.722 109.479C260.462 110.209 260.102 111.029 259.152 112.739C258.862 113.189 258.642 113.629 258.352 114.149C257.892 120.949 259.332 126.699 259.152 131.799C259.032 134.679 258.532 137.789 255.892 139.579C260.832 137.689 263.892 133.239 265.712 129.229C266.072 128.409 266.812 128.629 267.112 129.219C267.412 129.879 267.352 131.799 266.112 134.099C263.342 139.219 258.342 142.069 253.102 142.329C248.812 142.509 244.672 141.439 242.122 136.869C240.322 133.559 240.502 128.679 243.002 126.589C243.882 125.849 244.472 126.139 244.562 127.319C244.642 127.909 244.642 128.499 244.722 129.089C247.722 124.949 251.012 120.119 253.122 116.329ZM245.422 133.089C246.562 137.369 248.732 140.379 251.162 139.619C254.552 138.559 253.352 126.969 253.012 121.059C250.902 124.999 248.202 129.079 245.422 133.089Z" fill="black"/>
<path d="M264.322 131.389C266.122 125.979 270.932 117.219 273.642 113.359C274.302 112.469 274.812 112.239 275.412 112.899C276.532 114.069 277.142 117.249 275.402 120.959C273.872 124.219 270.812 129.269 269.292 132.979C267.552 137.279 267.722 140.159 270.082 139.989C273.402 139.819 277.432 134.909 279.612 129.789C279.972 129.119 280.492 129.189 280.792 129.779C281.392 130.959 281.182 132.509 280.312 134.369C278.132 138.969 273.502 142.109 269.362 142.139C263.742 142.189 262.302 137.469 264.322 131.389ZM280.652 111.979C279.702 113.019 277.632 112.819 276.502 110.899C275.302 108.909 275.652 106.689 276.832 105.429C278.002 104.169 280.152 105.029 281.132 107.019C282.102 108.939 281.602 110.939 280.652 111.979Z" fill="black"/>
<path d="M325.072 141.849C318.942 141.899 317.352 137.329 319.442 131.029C321.892 123.769 328.262 115.889 327.002 115.449C326.112 115.159 321.992 117.109 317.302 122.319C313.052 127.009 309.632 134.129 306.662 141.099C306.442 141.619 305.932 142.069 305.262 141.329C303.922 139.859 303.382 137.499 304.612 133.799C305.412 131.499 307.002 127.649 309.192 123.709C307.202 125.059 304.922 125.739 302.332 125.609C300.902 131.899 296.232 139.549 290.782 141.369C288.132 142.279 284.362 142.229 281.452 138.339C278.162 134.009 279.222 127.499 282.502 121.709C285.342 116.659 289.742 112.419 294.172 112.009C296.382 111.769 297.652 112.429 299.142 114.409C300.932 116.759 303.152 117.189 302.752 122.509C302.752 122.879 302.762 123.399 302.692 123.839C307.342 123.729 312.102 118.299 316.052 112.209C316.562 111.389 317.152 111.389 317.602 112.049C318.722 113.889 318.742 116.399 317.952 118.989C321.252 115.489 326.092 111.459 328.612 111.739C331.052 112.019 333.372 115.769 331.552 119.549C329.952 122.889 326.522 128.229 324.782 132.089C322.892 136.319 323.292 139.639 326.102 139.539C329.052 139.439 332.492 134.609 335.332 129.269C335.622 128.679 336.362 128.669 336.592 129.259C336.972 130.139 336.982 131.619 335.892 133.919C333.912 138.089 329.432 141.819 325.072 141.849ZM292.662 117.429C290.602 119.149 288.562 121.749 286.952 124.489C283.742 130.059 282.762 136.939 284.772 138.549C286.782 140.159 291.342 137.539 294.832 130.859C296.072 128.489 296.942 126.409 297.512 124.559C294.922 123.169 292.762 120.309 292.662 117.429ZM298.422 117.379C298.032 115.019 296.482 115.469 296.212 117.619C296.002 119.249 296.532 121.389 298.022 122.559C298.452 120.479 298.662 118.709 298.422 117.379Z" fill="black"/>
<path d="M345.632 115.599C345.982 112.719 346.702 111.309 348.252 109.889C349.862 108.399 351.562 108.089 352.232 108.749C352.972 109.479 352.612 110.299 351.662 112.009C351.372 112.459 351.152 112.899 350.862 113.419C350.402 120.219 351.842 125.969 351.662 131.069C351.542 133.949 351.042 137.059 348.402 138.849C353.342 136.959 356.402 132.509 358.222 128.499C358.582 127.679 359.322 127.899 359.622 128.489C359.922 129.149 359.862 131.069 358.622 133.369C355.852 138.489 350.852 141.339 345.612 141.599C341.332 141.779 337.182 140.709 334.632 136.139C332.832 132.829 333.012 127.949 335.512 125.859C336.392 125.109 336.982 125.409 337.072 126.589C337.152 127.179 337.152 127.769 337.232 128.359C340.232 124.219 343.512 119.389 345.632 115.599ZM337.932 132.359C339.072 136.639 341.242 139.649 343.672 138.889C347.062 137.829 345.862 126.239 345.522 120.329C343.402 124.269 340.702 128.349 337.932 132.359Z" fill="black"/>
<path d="M80.4024 33.5388C80.9824 32.1188 81.6024 32.0788 82.2824 33.1788C83.3524 34.9688 83.2424 37.7888 81.8524 42.6288C79.6924 50.2388 75.0724 62.4088 72.1124 79.8488C71.9624 80.7688 71.7724 81.5888 70.6724 81.5188C66.4124 81.2688 64.3824 79.9888 62.6524 75.0588C60.3624 68.5488 57.4024 54.5388 56.5524 43.8088C56.5024 42.6588 57.0724 41.9888 58.0624 42.3288C62.1224 43.6188 63.9724 46.7888 65.0124 52.8588C66.2924 60.5288 66.6024 66.3788 69.4524 76.7988C71.4724 63.4888 76.8824 42.4688 80.4024 33.5388Z" fill="black"/>
<path d="M22.0125 145.489C20.0325 148.769 17.6725 150.869 15.7825 151.659C15.0225 151.979 14.6925 151.449 15.0625 150.739C26.6725 128.059 25.7425 103.369 18.3025 87.4088C15.2025 80.7888 15.1725 75.8988 16.7925 73.0988C17.3725 72.0788 18.1925 72.1788 18.8225 73.1488C35.2425 96.4988 32.0025 128.839 22.0125 145.489Z" fill="black"/>
<path d="M118.493 81.2988C120.033 83.7888 119.893 88.2988 116.973 94.3688C109.693 109.639 109.493 130.249 119.963 150.749C120.373 151.489 119.773 151.739 119.233 151.659C118.153 151.499 116.353 150.329 114.883 148.019C103.493 129.919 101.653 102.479 116.613 81.3788C117.253 80.5088 117.883 80.3388 118.493 81.2988Z" fill="black"/>
<path d="M75.4324 144.099C76.1724 148.899 75.1024 155.409 71.8524 158.269C70.2624 159.649 67.6224 160.519 64.4624 158.709C60.9724 156.679 59.8824 151.899 60.4824 146.849C60.9824 142.559 62.8624 138.289 65.8424 136.799C67.3824 136.039 68.4524 136.129 70.0524 137.089C71.8924 138.189 73.5724 137.899 74.8024 141.719C74.9224 142.149 75.0724 142.509 75.1924 142.939C75.5024 142.809 75.7624 142.579 76.1724 142.409C76.5324 142.259 76.6424 142.519 76.5424 142.859C76.3524 143.419 75.9224 143.829 75.4324 144.099ZM70.5424 144.629C69.1224 144.259 67.1524 142.979 66.3124 141.109C65.4224 142.859 64.6424 145.169 64.3724 147.569C63.8424 152.359 65.0424 157.389 66.8424 157.959C68.7624 158.539 71.1424 155.439 71.6824 149.689C71.8524 147.939 71.8724 146.249 71.7624 144.849C71.3524 144.839 70.9624 144.759 70.5424 144.629ZM70.3824 139.349C69.4424 137.819 68.5424 138.549 68.9124 140.139C69.2324 141.629 70.4124 142.879 71.5524 143.309C71.3024 141.549 70.9224 140.209 70.3824 139.349Z" fill="black"/>
<path d="M66.3523 132.679C67.8601 132.679 69.0823 131.457 69.0823 129.949C69.0823 128.441 67.8601 127.219 66.3523 127.219C64.8446 127.219 63.6223 128.441 63.6223 129.949C63.6223 131.457 64.8446 132.679 66.3523 132.679Z" fill="black"/>
<path d="M78.4424 144.599C79.9501 144.599 81.1724 143.377 81.1724 141.869C81.1724 140.361 79.9501 139.139 78.4424 139.139C76.9347 139.139 75.7124 140.361 75.7124 141.869C75.7124 143.377 76.9347 144.599 78.4424 144.599Z" fill="black"/>
<path d="M16.3024 -7.30119C16.3124 -0.911188 15.5824 4.18881 14.9124 7.66881C13.6124 14.4188 11.2024 20.8088 6.43242 33.3188C2.97241 42.3888 2.52242 42.9488 1.74242 46.2788C0.732415 50.5788 -0.837585 57.2688 0.542415 64.9588C0.832415 66.5888 4.14241 83.4588 18.8924 90.4288C26.7524 94.1488 34.5524 93.4888 36.8424 93.2688C40.4224 92.9288 42.2624 92.1788 46.4524 91.0488C51.4724 89.6988 58.7324 88.0988 68.0324 87.2888C68.0324 85.3888 68.0324 83.4988 68.0324 81.5988C67.2624 80.4188 66.1324 78.5788 64.9924 76.2288C61.0724 68.1588 58.1624 66.0888 57.0924 64.2288C53.9524 60.5188 37.2424 43.5388 29.9724 35.1488C25.4824 30.9788 22.5524 27.0288 20.7224 24.2088C18.3324 20.5188 17.6824 18.5588 17.3624 17.0688C16.8224 14.5588 17.0424 12.7188 17.7224 8.22881C19.4324 -3.12119 20.3824 -7.00119 18.9024 -7.84119C18.4824 -8.08119 17.7424 -8.15119 16.3024 -7.30119Z" fill="black"/>
<path d="M119.782 -7.30119C119.772 -0.911188 120.502 4.18881 121.172 7.66881C122.472 14.4188 124.882 20.8088 129.652 33.3188C133.112 42.3888 133.562 42.9488 134.342 46.2788C135.352 50.5788 136.922 57.2688 135.542 64.9588C135.252 66.5888 131.942 83.4588 117.192 90.4288C109.332 94.1488 101.532 93.4888 99.2425 93.2688C95.6625 92.9288 93.8225 92.1788 89.6325 91.0488C84.6125 89.6988 77.3525 88.0988 68.0525 87.2888C68.0525 85.3888 68.0525 83.4988 68.0525 81.5988C68.8225 80.4188 69.9525 78.5788 71.0925 76.2288C75.0125 68.1588 77.9225 66.0888 78.9925 64.2288C82.1325 60.5188 98.8425 43.5388 106.112 35.1488C110.602 30.9788 113.532 27.0288 115.362 24.2088C117.752 20.5188 118.402 18.5588 118.722 17.0688C119.262 14.5588 119.042 12.7188 118.362 8.22881C116.642 -3.12119 115.702 -7.00119 117.182 -7.84119C117.592 -8.08119 118.342 -8.15119 119.782 -7.30119Z" fill="black"/>
</svg>
